SplineFontDB: 3.2
FontName: bangla5m
FullName: bangla5m
FamilyName: bangla5m
Weight: Regular
Copyright: Copyright 2022 The Noto Project Authors (https://github.com/notofonts/bengali)
Version: 2.003
ItalicAngle: 0
UnderlinePosition: -125
UnderlineWidth: 50
Ascent: 800
Descent: 200
InvalidEm: 0
sfntRevision: 0x000200c5
LayerCount: 2
Layer: 0 1 "Back" 1
Layer: 1 1 "Fore" 0
XUID: [1021 467 -1121320856 3934262]
StyleMap: 0x0040
FSType: 0
OS2Version: 4
OS2_WeightWidthSlopeOnly: 0
OS2_UseTypoMetrics: 1
CreationTime: 1499331109
ModificationTime: 1716713219
PfmFamily: 81
TTFWeight: 400
TTFWidth: 5
LineGap: 0
VLineGap: 0
Panose: 0 0 0 0 0 0 0 0 0 0
OS2TypoAscent: 917
OS2TypoAOffset: 0
OS2TypoDescent: -408
OS2TypoDOffset: 0
OS2TypoLinegap: 0
OS2WinAscent: 917
OS2WinAOffset: 0
OS2WinDescent: 408
OS2WinDOffset: 0
HheadAscent: 917
HheadAOffset: 0
HheadDescent: -408
HheadDOffset: 0
OS2SubXSize: 650
OS2SubYSize: 600
OS2SubXOff: 0
OS2SubYOff: 75
OS2SupXSize: 650
OS2SupYSize: 600
OS2SupXOff: 0
OS2SupYOff: 350
OS2StrikeYSize: 50
OS2StrikeYPos: 322
OS2CapHeight: 622
OS2XHeight: 536
OS2Vendor: 'GOOG'
OS2CodePages: 00000093.00000000
OS2UnicodeRanges: 80018023.00002042.00000000.00000000
Lookup: 1 0 0 "'aalt' Access All Alternates in Bengali2 lookup 0" { "'aalt' Access All Alternates in Bengali2 lookup 0 subtable"  } ['aalt' ('bng2' <'dflt' > 'latn' <'MOL ' 'ROM ' > ) ]
Lookup: 3 0 0 "'aalt' Access All Alternates in Bengali2 lookup 1" { "'aalt' Access All Alternates in Bengali2 lookup 1 subtable"  } ['aalt' ('bng2' <'dflt' > 'latn' <'MOL ' 'ROM ' > ) ]
Lookup: 4 0 0 "'vatu' Vattu Variants in Bengali2 lookup 2" { "'vatu' Vattu Variants in Bengali2 lookup 2 subtable"  } ['cjct' ('bng2' <'dflt' > ) 'vatu' ('bng2' <'dflt' > ) ]
Lookup: 4 0 0 "'pres' Pre Base Substitutions in Bengali2 lookup 3" { "'pres' Pre Base Substitutions in Bengali2 lookup 3 subtable"  } ['cjct' ('bng2' <'dflt' > ) 'pres' ('bng2' <'dflt' > ) ]

StartChar: exclam.beng
Encoding: 33 33 3
Width: 893
Flags: W
LayerCount: 2
Fore
SplineSet
418.5 201 m 1,0,-1
 393.5 714 l 1,1,-1
 500.5 714 l 1,2,-1
 475.5 201 l 1,3,-1
 418.5 201 l 1,0,-1
384.5 54 m 0,4,5
 384.5 91 384.5 91 402.5 106 c 128,-1,6
 420.5 121 420.5 121 446.5 121 c 0,7,8
 471.5 121 471.5 121 490 106 c 128,-1,9
 508.5 91 508.5 91 508.5 54 c 0,10,11
 508.5 18 508.5 18 490 2 c 128,-1,12
 471.5 -14 471.5 -14 446.5 -14 c 0,13,14
 420.5 -14 420.5 -14 402.5 2 c 128,-1,15
 384.5 18 384.5 18 384.5 54 c 0,4,5
EndSplineSet
Validated: 524289
EndChar

StartChar: quotedbl.beng
Encoding: 34 34 4
Width: 893
Flags: W
LayerCount: 2
Fore
SplineSet
328.5 471 m 1,0,-1
 303.5 729 l 1,1,-1
 414.5 729 l 1,2,-1
 389.5 471 l 1,3,-1
 328.5 471 l 1,0,-1
504.5 471 m 1,4,-1
 479.5 729 l 1,5,-1
 589.5 729 l 1,6,-1
 564.5 471 l 1,7,-1
 504.5 471 l 1,4,-1
EndSplineSet
Validated: 524289
EndChar

StartChar: numbersign.beng
Encoding: 35 35 5
Width: 893
Flags: W
LayerCount: 2
Fore
SplineSet
279 176 m 1,0,-1
 154 176 l 1,1,-1
 154 242 l 1,2,-1
 291 242 l 1,3,-1
 322 394 l 1,4,-1
 190 394 l 1,5,-1
 190 459 l 1,6,-1
 333 459 l 1,7,-1
 367 632 l 1,8,-1
 437 632 l 1,9,-1
 404 459 l 1,10,-1
 544 459 l 1,11,-1
 578 632 l 1,12,-1
 647 632 l 1,13,-1
 613 459 l 1,14,-1
 739 459 l 1,15,-1
 739 394 l 1,16,-1
 600 394 l 1,17,-1
 571 242 l 1,18,-1
 704 242 l 1,19,-1
 704 176 l 1,20,-1
 558 176 l 1,21,-1
 524 0 l 1,22,-1
 454 0 l 1,23,-1
 489 176 l 1,24,-1
 349 176 l 1,25,-1
 315 0 l 1,26,-1
 246 0 l 1,27,-1
 279 176 l 1,0,-1
501 242 m 1,28,-1
 531 394 l 1,29,-1
 391 394 l 1,30,-1
 362 242 l 1,31,-1
 501 242 l 1,28,-1
EndSplineSet
Validated: 1
EndChar

StartChar: percent.beng
Encoding: 37 37 6
Width: 893
Flags: W
LayerCount: 2
Fore
SplineSet
602 622 m 1,0,-1
 679 622 l 1,1,-1
 294 0 l 1,2,-1
 216 0 l 1,3,-1
 602 622 l 1,0,-1
235 271 m 0,4,5
 164 271 164 271 127 319 c 128,-1,6
 90 367 90 367 90 452 c 0,7,8
 90 538 90 538 124.5 585 c 128,-1,9
 159 632 159 632 235 632 c 0,10,11
 307 632 307 632 344.5 585 c 128,-1,12
 382 538 382 538 382 452 c 0,13,14
 382 367 382 367 347 319 c 128,-1,15
 312 271 312 271 235 271 c 0,4,5
234 334 m 256,16,17
 272 334 272 334 290.5 364 c 128,-1,18
 309 394 309 394 309 452 c 0,19,20
 309 511 309 511 290.5 540 c 128,-1,21
 272 569 272 569 234 569 c 256,22,23
 196 569 196 569 179 540 c 128,-1,24
 162 511 162 511 162 452 c 0,25,26
 162 394 162 394 179 364 c 128,-1,27
 196 334 196 334 234 334 c 256,16,17
657 -10 m 0,28,29
 585 -10 585 -10 548.5 38.5 c 128,-1,30
 512 87 512 87 512 171 c 0,31,32
 512 257 512 257 546.5 304.5 c 128,-1,33
 581 352 581 352 657 352 c 0,34,35
 730 352 730 352 766.5 304.5 c 128,-1,36
 803 257 803 257 803 171 c 0,37,38
 803 87 803 87 768.5 38.5 c 128,-1,39
 734 -10 734 -10 657 -10 c 0,28,29
657 55 m 256,40,41
 695 55 695 55 713.5 84 c 128,-1,42
 732 113 732 113 732 171 c 0,43,44
 732 230 732 230 713.5 259.5 c 128,-1,45
 695 289 695 289 657 289 c 256,46,47
 619 289 619 289 602 259.5 c 128,-1,48
 585 230 585 230 585 171 c 0,49,50
 585 113 585 113 602 84 c 128,-1,51
 619 55 619 55 657 55 c 256,40,41
EndSplineSet
Validated: 1
EndChar

StartChar: quotesingle.beng
Encoding: 39 39 7
Width: 893
Flags: W
LayerCount: 2
Fore
SplineSet
416 471 m 1,0,-1
 391 729 l 1,1,-1
 502 729 l 1,2,-1
 477 471 l 1,3,-1
 416 471 l 1,0,-1
EndSplineSet
Validated: 1
EndChar

StartChar: parenleft.beng
Encoding: 40 40 8
Width: 893
Flags: W
LayerCount: 2
Fore
SplineSet
478 -135 m 1,0,1
 405 -39 405 -39 369 83 c 128,-1,2
 333 205 333 205 333 332 c 0,3,4
 333 461 333 461 369 579.5 c 128,-1,5
 405 698 405 698 478 792 c 1,6,-1
 559 792 l 1,7,8
 492 694 492 694 455.5 575 c 128,-1,9
 419 456 419 456 419 331 c 0,10,11
 419 204 419 204 454.5 85 c 128,-1,12
 490 -34 490 -34 560 -135 c 1,13,-1
 478 -135 l 1,0,1
EndSplineSet
Validated: 1
EndChar

StartChar: parenright.beng
Encoding: 41 41 9
Width: 893
Flags: W
LayerCount: 2
Fore
SplineSet
334 -135 m 1,0,1
 402 -37 402 -37 438 80.5 c 128,-1,2
 474 198 474 198 474 325 c 0,3,4
 474 453 474 453 438.5 572 c 128,-1,5
 403 691 403 691 333 792 c 1,6,-1
 415 792 l 1,7,8
 489 696 489 696 524.5 574 c 128,-1,9
 560 452 560 452 560 324 c 256,10,11
 560 196 560 196 524.5 77.5 c 128,-1,12
 489 -41 489 -41 415 -135 c 1,13,-1
 334 -135 l 1,0,1
EndSplineSet
Validated: 1
EndChar

StartChar: asterisk.beng
Encoding: 42 42 10
Width: 893
Flags: W
LayerCount: 2
Fore
SplineSet
276.5 340 m 1,0,-1
 394.5 499 l 1,1,-1
 211.5 513 l 1,2,-1
 225.5 607 l 1,3,-1
 416.5 553 l 1,4,-1
 395.5 745 l 1,5,-1
 495.5 745 l 1,6,-1
 474.5 553 l 1,7,-1
 668.5 607 l 1,8,-1
 681.5 513 l 1,9,-1
 496.5 499 l 1,10,-1
 616.5 340 l 1,11,-1
 529.5 293 l 1,12,-1
 443.5 468 l 1,13,-1
 366.5 293 l 1,14,-1
 276.5 340 l 1,0,-1
EndSplineSet
Validated: 524289
EndChar

StartChar: plus.beng
Encoding: 43 43 11
Width: 893
Flags: W
LayerCount: 2
Fore
SplineSet
410 286 m 1,0,-1
 221 286 l 1,1,-1
 221 359 l 1,2,-1
 410 359 l 1,3,-1
 410 548 l 1,4,-1
 483 548 l 1,5,-1
 483 359 l 1,6,-1
 672 359 l 1,7,-1
 672 286 l 1,8,-1
 483 286 l 1,9,-1
 483 97 l 1,10,-1
 410 97 l 1,11,-1
 410 286 l 1,0,-1
EndSplineSet
Validated: 1
EndChar

StartChar: comma.beng
Encoding: 44 44 12
Width: 893
Flags: W
LayerCount: 2
Fore
SplineSet
515 116 m 1,0,-1
 522 105 l 1,1,2
 513 70 513 70 499.5 32 c 128,-1,3
 486 -6 486 -6 470.5 -44 c 128,-1,4
 455 -82 455 -82 438 -119 c 1,5,-1
 371 -119 l 1,6,7
 386 -60 386 -60 398.5 2 c 128,-1,8
 411 64 411 64 418 116 c 1,9,-1
 515 116 l 1,0,-1
EndSplineSet
Validated: 1
EndChar

StartChar: hyphen.beng
Encoding: 45 45 13
Width: 893
Flags: W
LayerCount: 2
Fore
SplineSet
325.5 338 m 1,0,-1
 567.5 338 l 1,1,-1
 567.5 256 l 1,2,-1
 325.5 256 l 1,3,-1
 325.5 338 l 1,0,-1
EndSplineSet
Validated: 524289
EndChar

StartChar: period.beng
Encoding: 46 46 14
Width: 893
Flags: W
LayerCount: 2
Fore
SplineSet
384.5 54 m 0,0,1
 384.5 91 384.5 91 402.5 106 c 128,-1,2
 420.5 121 420.5 121 445.5 121 c 0,3,4
 471.5 121 471.5 121 490 106 c 128,-1,5
 508.5 91 508.5 91 508.5 54 c 0,6,7
 508.5 18 508.5 18 490 2 c 128,-1,8
 471.5 -14 471.5 -14 445.5 -14 c 0,9,10
 420.5 -14 420.5 -14 402.5 2 c 128,-1,11
 384.5 18 384.5 18 384.5 54 c 0,0,1
EndSplineSet
Validated: 524289
EndChar

StartChar: slash.beng
Encoding: 47 47 15
Width: 893
Flags: W
LayerCount: 2
Fore
SplineSet
537 792 m 1,0,-1
 619 792 l 1,1,-1
 357 -125 l 1,2,-1
 274 -125 l 1,3,-1
 537 792 l 1,0,-1
EndSplineSet
Validated: 1
EndChar

StartChar: zero.beng
Encoding: 48 48 16
Width: 893
Flags: W
LayerCount: 2
Fore
SplineSet
445.5 -10 m 0,0,1
 330.5 -10 330.5 -10 274.5 87.5 c 128,-1,2
 218.5 185 218.5 185 218.5 358 c 0,3,4
 218.5 474 218.5 474 241 556 c 128,-1,5
 263.5 638 263.5 638 313.5 681.5 c 128,-1,6
 363.5 725 363.5 725 445.5 725 c 0,7,8
 561.5 725 561.5 725 618 628.5 c 128,-1,9
 674.5 532 674.5 532 674.5 358 c 0,10,11
 674.5 243 674.5 243 652 160.5 c 128,-1,12
 629.5 78 629.5 78 579 34 c 128,-1,13
 528.5 -10 528.5 -10 445.5 -10 c 0,0,1
445.5 66 m 256,14,15
 520.5 66 520.5 66 552.5 138 c 128,-1,16
 584.5 210 584.5 210 584.5 358 c 0,17,18
 584.5 504 584.5 504 552.5 576.5 c 128,-1,19
 520.5 649 520.5 649 445.5 649 c 256,20,21
 370.5 649 370.5 649 339.5 576.5 c 128,-1,22
 308.5 504 308.5 504 308.5 358 c 256,23,24
 308.5 212 308.5 212 339.5 139 c 128,-1,25
 370.5 66 370.5 66 445.5 66 c 256,14,15
EndSplineSet
Validated: 524289
EndChar

StartChar: one.beng
Encoding: 49 49 17
Width: 893
Flags: W
LayerCount: 2
Fore
SplineSet
490.5 0 m 1,0,-1
 490.5 446 l 2,1,2
 490.5 474 490.5 474 491.5 506.5 c 128,-1,3
 492.5 539 492.5 539 493.5 569.5 c 128,-1,4
 494.5 600 494.5 600 494.5 622 c 1,5,6
 478.5 605 478.5 605 467 594.5 c 128,-1,7
 455.5 584 455.5 584 435.5 567 c 2,8,-1
 363.5 508 l 1,9,-1
 316.5 568 l 1,10,-1
 503.5 714 l 1,11,-1
 576.5 714 l 1,12,-1
 576.5 0 l 1,13,-1
 490.5 0 l 1,0,-1
EndSplineSet
Validated: 524289
EndChar

StartChar: two.beng
Encoding: 50 50 18
Width: 893
Flags: W
LayerCount: 2
Fore
SplineSet
224 76 m 1,0,-1
 395 262 l 2,1,2
 444 315 444 315 478.5 357 c 128,-1,3
 513 399 513 399 532 440 c 128,-1,4
 551 481 551 481 551 530 c 0,5,6
 551 587 551 587 519 618 c 128,-1,7
 487 649 487 649 436 649 c 0,8,9
 390 649 390 649 352.5 630 c 128,-1,10
 315 611 315 611 281 582 c 1,11,-1
 231 640 l 1,12,13
 257 664 257 664 288.5 683 c 128,-1,14
 320 702 320 702 357.5 713 c 128,-1,15
 395 724 395 724 437 724 c 0,16,17
 500 724 500 724 545.5 701 c 128,-1,18
 591 678 591 678 616 635.5 c 128,-1,19
 641 593 641 593 641 533 c 0,20,21
 641 478 641 478 619 429 c 128,-1,22
 597 380 597 380 558.5 332 c 128,-1,23
 520 284 520 284 470 231 c 2,24,-1
 333 85 l 1,25,-1
 333 81 l 1,26,-1
 669 81 l 1,27,-1
 669 0 l 1,28,-1
 224 0 l 1,29,-1
 224 76 l 1,0,-1
EndSplineSet
Validated: 1
EndChar

StartChar: three.beng
Encoding: 51 51 19
Width: 893
Flags: W
LayerCount: 2
Fore
SplineSet
410 -10 m 0,0,1
 357 -10 357 -10 309.5 -1.5 c 128,-1,2
 262 7 262 7 221 29 c 1,3,-1
 221 112 l 1,4,5
 264 90 264 90 313 77.5 c 128,-1,6
 362 65 362 65 408 65 c 0,7,8
 498 65 498 65 539.5 102.5 c 128,-1,9
 581 140 581 140 581 206 c 0,10,11
 581 250 581 250 558.5 278 c 128,-1,12
 536 306 536 306 494.5 319 c 128,-1,13
 453 332 453 332 395 332 c 2,14,-1
 330 332 l 1,15,-1
 330 406 l 1,16,-1
 395 406 l 2,17,18
 448 406 448 406 484.5 423 c 128,-1,19
 521 440 521 440 540 470.5 c 128,-1,20
 559 501 559 501 559 541 c 0,21,22
 559 575 559 575 543.5 599 c 128,-1,23
 528 623 528 623 501 636 c 128,-1,24
 474 649 474 649 437 649 c 0,25,26
 385 649 385 649 345 632.5 c 128,-1,27
 305 616 305 616 269 590 c 1,28,-1
 224 651 l 1,29,30
 261 681 261 681 315 702.5 c 128,-1,31
 369 724 369 724 437 724 c 0,32,33
 507 724 507 724 554.5 701 c 128,-1,34
 602 678 602 678 626 638.5 c 128,-1,35
 650 599 650 599 650 547 c 0,36,37
 650 499 650 499 630.5 463.5 c 128,-1,38
 611 428 611 428 576.5 406 c 128,-1,39
 542 384 542 384 496 376 c 1,40,-1
 496 373 l 1,41,42
 582 363 582 363 627 318.5 c 128,-1,43
 672 274 672 274 672 203 c 0,44,45
 672 141 672 141 644 92.5 c 128,-1,46
 616 44 616 44 558 17 c 128,-1,47
 500 -10 500 -10 410 -10 c 0,0,1
EndSplineSet
Validated: 1
EndChar

StartChar: four.beng
Encoding: 52 52 20
Width: 893
Flags: W
LayerCount: 2
Fore
SplineSet
516.5 160 m 1,0,-1
 186.5 160 l 1,1,-1
 186.5 238 l 1,2,-1
 510.5 718 l 1,3,-1
 602.5 718 l 1,4,-1
 602.5 241 l 1,5,-1
 706.5 241 l 1,6,-1
 706.5 160 l 1,7,-1
 602.5 160 l 1,8,-1
 602.5 0 l 1,9,-1
 516.5 0 l 1,10,-1
 516.5 160 l 1,0,-1
516.5 241 m 1,11,-1
 516.5 415 l 2,12,13
 516.5 442 516.5 442 517.5 472 c 128,-1,14
 518.5 502 518.5 502 519.5 531 c 128,-1,15
 520.5 560 520.5 560 521.5 585 c 128,-1,16
 522.5 610 522.5 610 522.5 626 c 1,17,-1
 518.5 626 l 1,18,19
 511.5 607 511.5 607 498.5 581 c 128,-1,20
 485.5 555 485.5 555 474.5 538 c 2,21,-1
 273.5 241 l 1,22,-1
 516.5 241 l 1,11,-1
EndSplineSet
Validated: 524289
EndChar

StartChar: five.beng
Encoding: 53 53 21
Width: 893
Flags: W
LayerCount: 2
Fore
SplineSet
405 -10 m 0,0,1
 355 -10 355 -10 309 -0.5 c 128,-1,2
 263 9 263 9 231 29 c 1,3,-1
 231 113 l 1,4,5
 253 98 253 98 283.5 87.5 c 128,-1,6
 314 77 314 77 347 71.5 c 128,-1,7
 380 66 380 66 407 66 c 0,8,9
 484 66 484 66 527.5 103 c 128,-1,10
 571 140 571 140 571 219 c 0,11,12
 571 290 571 290 528 326.5 c 128,-1,13
 485 363 485 363 403 363 c 0,14,15
 377 363 377 363 343.5 358.5 c 128,-1,16
 310 354 310 354 290 350 c 1,17,-1
 246 378 l 1,18,-1
 273 714 l 1,19,-1
 610 714 l 1,20,-1
 610 633 l 1,21,-1
 350 633 l 1,22,-1
 331 428 l 1,23,24
 347 432 347 432 374.5 435 c 128,-1,25
 402 438 402 438 433 438 c 0,26,27
 498 438 498 438 549.5 414.5 c 128,-1,28
 601 391 601 391 631.5 344.5 c 128,-1,29
 662 298 662 298 662 229 c 0,30,31
 662 117 662 117 596 53.5 c 128,-1,32
 530 -10 530 -10 405 -10 c 0,0,1
EndSplineSet
Validated: 1
EndChar

StartChar: six.beng
Encoding: 54 54 22
Width: 893
Flags: W
LayerCount: 2
Fore
SplineSet
454.5 -10 m 0,0,1
 389.5 -10 389.5 -10 336.5 24 c 128,-1,2
 283.5 58 283.5 58 252.5 128 c 128,-1,3
 221.5 198 221.5 198 221.5 305 c 0,4,5
 221.5 367 221.5 367 229 427 c 128,-1,6
 236.5 487 236.5 487 256.5 540.5 c 128,-1,7
 276.5 594 276.5 594 311.5 635.5 c 128,-1,8
 346.5 677 346.5 677 401 700.5 c 128,-1,9
 455.5 724 455.5 724 533.5 724 c 0,10,11
 552.5 724 552.5 724 577 722 c 128,-1,12
 601.5 720 601.5 720 617.5 715 c 1,13,-1
 617.5 639 l 1,14,15
 600.5 645 600.5 645 579 648 c 128,-1,16
 557.5 651 557.5 651 536.5 651 c 0,17,18
 470.5 651 470.5 651 428 628 c 128,-1,19
 385.5 605 385.5 605 361 565.5 c 128,-1,20
 336.5 526 336.5 526 325.5 474 c 128,-1,21
 314.5 422 314.5 422 312.5 364 c 1,22,-1
 318.5 364 l 1,23,24
 338.5 399 338.5 399 374.5 423 c 128,-1,25
 410.5 447 410.5 447 468.5 447 c 0,26,27
 530.5 447 530.5 447 576 421.5 c 128,-1,28
 621.5 396 621.5 396 646.5 347.5 c 128,-1,29
 671.5 299 671.5 299 671.5 230 c 0,30,31
 671.5 156 671.5 156 645 102 c 128,-1,32
 618.5 48 618.5 48 570 19 c 128,-1,33
 521.5 -10 521.5 -10 454.5 -10 c 0,0,1
453.5 65 m 0,34,35
 512.5 65 512.5 65 549 105 c 128,-1,36
 585.5 145 585.5 145 585.5 230 c 0,37,38
 585.5 298 585.5 298 553.5 337.5 c 128,-1,39
 521.5 377 521.5 377 456.5 377 c 0,40,41
 412.5 377 412.5 377 379.5 357.5 c 128,-1,42
 346.5 338 346.5 338 328.5 308.5 c 128,-1,43
 310.5 279 310.5 279 310.5 247 c 0,44,45
 310.5 204 310.5 204 326.5 162 c 128,-1,46
 342.5 120 342.5 120 374.5 92.5 c 128,-1,47
 406.5 65 406.5 65 453.5 65 c 0,34,35
EndSplineSet
Validated: 524289
EndChar

StartChar: seven.beng
Encoding: 55 55 23
Width: 893
Flags: W
LayerCount: 2
Fore
SplineSet
585 633 m 1,0,-1
 217 633 l 1,1,-1
 217 714 l 1,2,-1
 676 714 l 1,3,-1
 676 643 l 1,4,-1
 405 0 l 1,5,-1
 310 0 l 1,6,-1
 585 633 l 1,0,-1
EndSplineSet
Validated: 1
EndChar

StartChar: eight.beng
Encoding: 56 56 24
Width: 893
Flags: W
LayerCount: 2
Fore
SplineSet
446.5 -10 m 0,0,1
 339.5 -10 339.5 -10 281 41.5 c 128,-1,2
 222.5 93 222.5 93 222.5 182 c 0,3,4
 222.5 255 222.5 255 263 300.5 c 128,-1,5
 303.5 346 303.5 346 360.5 374 c 1,6,7
 328.5 395 328.5 395 302.5 420 c 128,-1,8
 276.5 445 276.5 445 261 478 c 128,-1,9
 245.5 511 245.5 511 245.5 554 c 0,10,11
 245.5 611 245.5 611 273.5 649 c 128,-1,12
 301.5 687 301.5 687 347.5 706 c 128,-1,13
 393.5 725 393.5 725 446.5 725 c 0,14,15
 501.5 725 501.5 725 547 706 c 128,-1,16
 592.5 687 592.5 687 620 649 c 128,-1,17
 647.5 611 647.5 611 647.5 553 c 0,18,19
 647.5 510 647.5 510 630.5 477.5 c 128,-1,20
 613.5 445 613.5 445 585 421 c 128,-1,21
 556.5 397 556.5 397 519.5 378 c 1,22,23
 557.5 358 557.5 358 592 331.5 c 128,-1,24
 626.5 305 626.5 305 648.5 269.5 c 128,-1,25
 670.5 234 670.5 234 670.5 186 c 0,26,27
 670.5 126 670.5 126 642 82 c 128,-1,28
 613.5 38 613.5 38 563.5 14 c 128,-1,29
 513.5 -10 513.5 -10 446.5 -10 c 0,0,1
444.5 64 m 0,30,31
 513.5 64 513.5 64 548.5 97 c 128,-1,32
 583.5 130 583.5 130 583.5 185 c 0,33,34
 583.5 235 583.5 235 545.5 270 c 128,-1,35
 507.5 305 507.5 305 433.5 340 c 1,36,37
 372.5 311 372.5 311 341 273 c 128,-1,38
 309.5 235 309.5 235 309.5 181 c 0,39,40
 309.5 129 309.5 129 342 96.5 c 128,-1,41
 374.5 64 374.5 64 444.5 64 c 0,30,31
447.5 414 m 1,42,43
 479.5 429 479.5 429 505 447 c 128,-1,44
 530.5 465 530.5 465 545.5 490 c 128,-1,45
 560.5 515 560.5 515 560.5 550 c 0,46,47
 560.5 600 560.5 600 530 625.5 c 128,-1,48
 499.5 651 499.5 651 445.5 651 c 0,49,50
 411.5 651 411.5 651 386 639.5 c 128,-1,51
 360.5 628 360.5 628 346.5 605.5 c 128,-1,52
 332.5 583 332.5 583 332.5 550 c 0,53,54
 332.5 514 332.5 514 347.5 489.5 c 128,-1,55
 362.5 465 362.5 465 388.5 447.5 c 128,-1,56
 414.5 430 414.5 430 447.5 414 c 1,42,43
EndSplineSet
Validated: 524289
EndChar

StartChar: nine.beng
Encoding: 57 57 25
Width: 893
Flags: W
LayerCount: 2
Fore
SplineSet
359.5 -10 m 0,0,1
 340.5 -10 340.5 -10 316.5 -7.5 c 128,-1,2
 292.5 -5 292.5 -5 275.5 -1 c 1,3,-1
 275.5 75 l 1,4,5
 292.5 69 292.5 69 314 66 c 128,-1,6
 335.5 63 335.5 63 356.5 63 c 0,7,8
 422.5 63 422.5 63 465.5 86 c 128,-1,9
 508.5 109 508.5 109 532.5 148.5 c 128,-1,10
 556.5 188 556.5 188 567.5 240 c 128,-1,11
 578.5 292 578.5 292 580.5 350 c 1,12,-1
 574.5 350 l 1,13,14
 561.5 327 561.5 327 541 308 c 128,-1,15
 520.5 289 520.5 289 492 278 c 128,-1,16
 463.5 267 463.5 267 424.5 267 c 0,17,18
 363.5 267 363.5 267 317.5 292.5 c 128,-1,19
 271.5 318 271.5 318 246.5 366.5 c 128,-1,20
 221.5 415 221.5 415 221.5 484 c 0,21,22
 221.5 559 221.5 559 248 612.5 c 128,-1,23
 274.5 666 274.5 666 323.5 695 c 128,-1,24
 372.5 724 372.5 724 438.5 724 c 256,25,26
 504.5 724 504.5 724 557 690 c 128,-1,27
 609.5 656 609.5 656 640.5 586 c 128,-1,28
 671.5 516 671.5 516 671.5 409 c 0,29,30
 671.5 348 671.5 348 664 287.5 c 128,-1,31
 656.5 227 656.5 227 636.5 173.5 c 128,-1,32
 616.5 120 616.5 120 581.5 78.5 c 128,-1,33
 546.5 37 546.5 37 492 13.5 c 128,-1,34
 437.5 -10 437.5 -10 359.5 -10 c 0,0,1
436.5 337 m 0,35,36
 480.5 337 480.5 337 513.5 356.5 c 128,-1,37
 546.5 376 546.5 376 564.5 406 c 128,-1,38
 582.5 436 582.5 436 582.5 467 c 0,39,40
 582.5 511 582.5 511 566.5 552.5 c 128,-1,41
 550.5 594 550.5 594 519 621.5 c 128,-1,42
 487.5 649 487.5 649 439.5 649 c 0,43,44
 381.5 649 381.5 649 344.5 609 c 128,-1,45
 307.5 569 307.5 569 307.5 484 c 0,46,47
 307.5 416 307.5 416 340 376.5 c 128,-1,48
 372.5 337 372.5 337 436.5 337 c 0,35,36
EndSplineSet
Validated: 524289
EndChar

StartChar: colon.beng
Encoding: 58 58 26
Width: 893
Flags: W
LayerCount: 2
Fore
SplineSet
446.5 414 m 256,0,1
 420.5 414 420.5 414 402.5 430 c 128,-1,2
 384.5 446 384.5 446 384.5 482 c 0,3,4
 384.5 520 384.5 520 402.5 535 c 128,-1,5
 420.5 550 420.5 550 446.5 550 c 256,6,7
 472.5 550 472.5 550 490.5 535 c 128,-1,8
 508.5 520 508.5 520 508.5 482 c 0,9,10
 508.5 446 508.5 446 490.5 430 c 128,-1,11
 472.5 414 472.5 414 446.5 414 c 256,0,1
446.5 -14 m 256,12,13
 420.5 -14 420.5 -14 402.5 2 c 128,-1,14
 384.5 18 384.5 18 384.5 54 c 0,15,16
 384.5 92 384.5 92 402.5 107 c 128,-1,17
 420.5 122 420.5 122 446.5 122 c 256,18,19
 472.5 122 472.5 122 490.5 107 c 128,-1,20
 508.5 92 508.5 92 508.5 54 c 0,21,22
 508.5 18 508.5 18 490.5 2 c 128,-1,23
 472.5 -14 472.5 -14 446.5 -14 c 256,12,13
EndSplineSet
Validated: 524289
EndChar

StartChar: semicolon.beng
Encoding: 59 59 27
Width: 893
Flags: W
LayerCount: 2
Fore
SplineSet
509 116 m 1,0,-1
 516 105 l 1,1,2
 507 70 507 70 493.5 32 c 128,-1,3
 480 -6 480 -6 464.5 -44 c 128,-1,4
 449 -82 449 -82 432 -119 c 1,5,-1
 365 -119 l 1,6,7
 380 -60 380 -60 392.5 2 c 128,-1,8
 405 64 405 64 412 116 c 1,9,-1
 509 116 l 1,0,-1
466 414 m 256,10,11
 440 414 440 414 422 430 c 128,-1,12
 404 446 404 446 404 482 c 0,13,14
 404 520 404 520 422 535 c 128,-1,15
 440 550 440 550 466 550 c 256,16,17
 492 550 492 550 510 535 c 128,-1,18
 528 520 528 520 528 482 c 0,19,20
 528 446 528 446 510 430 c 128,-1,21
 492 414 492 414 466 414 c 256,10,11
EndSplineSet
Validated: 1
EndChar

StartChar: less.beng
Encoding: 60 60 28
Width: 893
Flags: W
LayerCount: 2
Fore
SplineSet
221 284 m 1,0,-1
 221 333 l 1,1,-1
 672 568 l 1,2,-1
 672 490 l 1,3,-1
 313 313 l 1,4,-1
 672 155 l 1,5,-1
 672 77 l 1,6,-1
 221 284 l 1,0,-1
EndSplineSet
Validated: 1
EndChar

StartChar: equal.beng
Encoding: 61 61 29
Width: 893
Flags: W
LayerCount: 2
Fore
SplineSet
221 459 m 1,0,-1
 672 459 l 1,1,-1
 672 386 l 1,2,-1
 221 386 l 1,3,-1
 221 459 l 1,0,-1
221 259 m 1,4,-1
 672 259 l 1,5,-1
 672 186 l 1,6,-1
 221 186 l 1,7,-1
 221 259 l 1,4,-1
EndSplineSet
Validated: 1
EndChar

StartChar: greater.beng
Encoding: 62 62 30
Width: 893
Flags: W
LayerCount: 2
Fore
SplineSet
221 155 m 1,0,-1
 580 313 l 1,1,-1
 221 490 l 1,2,-1
 221 568 l 1,3,-1
 672 333 l 1,4,-1
 672 284 l 1,5,-1
 221 77 l 1,6,-1
 221 155 l 1,0,-1
EndSplineSet
Validated: 1
EndChar

StartChar: question.beng
Encoding: 63 63 31
Width: 893
Flags: W
LayerCount: 2
Fore
SplineSet
378 202 m 1,0,-1
 378 220 l 2,1,2
 378 258 378 258 385 285.5 c 128,-1,3
 392 313 392 313 410.5 338 c 128,-1,4
 429 363 429 363 461 390 c 0,5,6
 492 417 492 417 511.5 438 c 128,-1,7
 531 459 531 459 540 483 c 128,-1,8
 549 507 549 507 549 541 c 0,9,10
 549 588 549 588 520.5 617 c 128,-1,11
 492 646 492 646 438 646 c 0,12,13
 398 646 398 646 361 633.5 c 128,-1,14
 324 621 324 621 290 604 c 1,15,-1
 259 675 l 1,16,17
 299 695 299 695 345 709.5 c 128,-1,18
 391 724 391 724 438 724 c 0,19,20
 529 724 529 724 581.5 676 c 128,-1,21
 634 628 634 628 634 542 c 0,22,23
 634 499 634 499 622.5 467 c 128,-1,24
 611 435 611 435 587.5 408 c 128,-1,25
 564 381 564 381 529 350 c 0,26,27
 496 321 496 321 478 300.5 c 128,-1,28
 460 280 460 280 453 260 c 128,-1,29
 446 240 446 240 446 211 c 2,30,-1
 446 202 l 1,31,-1
 378 202 l 1,0,-1
417 -14 m 256,32,33
 391 -14 391 -14 373 2 c 128,-1,34
 355 18 355 18 355 54 c 0,35,36
 355 92 355 92 373 107 c 128,-1,37
 391 122 391 122 417 122 c 256,38,39
 443 122 443 122 461 107 c 128,-1,40
 479 92 479 92 479 54 c 0,41,42
 479 18 479 18 461 2 c 128,-1,43
 443 -14 443 -14 417 -14 c 256,32,33
EndSplineSet
Validated: 1
EndChar

StartChar: bracketleft.beng
Encoding: 91 91 32
Width: 893
Flags: W
LayerCount: 2
Fore
SplineSet
349.5 792 m 1,0,-1
 543.5 792 l 1,1,-1
 543.5 722 l 1,2,-1
 429.5 722 l 1,3,-1
 429.5 -65 l 1,4,-1
 543.5 -65 l 1,5,-1
 543.5 -135 l 1,6,-1
 349.5 -135 l 1,7,-1
 349.5 792 l 1,0,-1
EndSplineSet
Validated: 524289
EndChar

StartChar: backslash.beng
Encoding: 92 92 33
Width: 893
Flags: W
LayerCount: 2
Fore
SplineSet
274 792 m 1,0,-1
 356 792 l 1,1,-1
 619 -135 l 1,2,-1
 537 -135 l 1,3,-1
 274 792 l 1,0,-1
EndSplineSet
Validated: 1
EndChar

StartChar: bracketright.beng
Encoding: 93 93 34
Width: 893
Flags: W
LayerCount: 2
Fore
SplineSet
349.5 -65 m 1,0,-1
 462.5 -65 l 1,1,-1
 462.5 712 l 1,2,-1
 349.5 712 l 1,3,-1
 349.5 782 l 1,4,-1
 543.5 782 l 1,5,-1
 543.5 -135 l 1,6,-1
 349.5 -135 l 1,7,-1
 349.5 -65 l 1,0,-1
EndSplineSet
Validated: 524289
EndChar

StartChar: asciicircum.beng
Encoding: 94 94 35
Width: 893
Flags: W
LayerCount: 2
Fore
SplineSet
424.5 719 m 1,0,-1
 474.5 719 l 1,1,-1
 692.5 268 l 1,2,-1
 614.5 268 l 1,3,-1
 449.5 627 l 1,4,-1
 279.5 268 l 1,5,-1
 200.5 268 l 1,6,-1
 424.5 719 l 1,0,-1
EndSplineSet
Validated: 524289
EndChar

StartChar: underscore.beng
Encoding: 95 95 36
Width: 893
Flags: W
LayerCount: 2
Fore
SplineSet
239 -90 m 1,0,-1
 654 -90 l 1,1,-1
 654 -158 l 1,2,-1
 239 -158 l 1,3,-1
 239 -90 l 1,0,-1
EndSplineSet
Validated: 1
EndChar

StartChar: braceleft.beng
Encoding: 123 123 37
Width: 893
Flags: W
LayerCount: 2
Fore
SplineSet
300 365 m 1,0,1
 340 365 340 365 367.5 374 c 128,-1,2
 395 383 395 383 409 403 c 128,-1,3
 423 423 423 423 423 455 c 2,4,-1
 423 651 l 2,5,6
 423 701 423 701 445 731.5 c 128,-1,7
 467 762 467 762 505.5 776.5 c 128,-1,8
 544 791 544 791 593 792 c 1,9,-1
 593 720 l 1,10,11
 566 720 566 720 546 713.5 c 128,-1,12
 526 707 526 707 515 691.5 c 128,-1,13
 504 676 504 676 504 645 c 2,14,-1
 504 450 l 2,15,16
 504 400 504 400 477 370.5 c 128,-1,17
 450 341 450 341 398 330 c 1,18,-1
 398 325 l 1,19,20
 450 315 450 315 477 286 c 128,-1,21
 504 257 504 257 504 206 c 2,22,-1
 504 13 l 2,23,24
 504 -18 504 -18 515 -34 c 128,-1,25
 526 -50 526 -50 546 -56 c 128,-1,26
 566 -62 566 -62 593 -63 c 1,27,-1
 593 -135 l 1,28,29
 544 -134 544 -134 505.5 -119.5 c 128,-1,30
 467 -105 467 -105 445 -74.5 c 128,-1,31
 423 -44 423 -44 423 6 c 2,32,-1
 423 201 l 2,33,34
 423 234 423 234 409 253.5 c 128,-1,35
 395 273 395 273 367.5 282 c 128,-1,36
 340 291 340 291 300 291 c 1,37,-1
 300 365 l 1,0,1
EndSplineSet
Validated: 1
EndChar

StartChar: bar.beng
Encoding: 124 124 38
Width: 893
Flags: W
LayerCount: 2
Fore
SplineSet
410.5 792 m 1,0,-1
 482.5 792 l 1,1,-1
 482.5 -135 l 1,2,-1
 410.5 -135 l 1,3,-1
 410.5 792 l 1,0,-1
EndSplineSet
Validated: 524289
EndChar

StartChar: braceright.beng
Encoding: 125 125 39
Width: 893
Flags: W
LayerCount: 2
Fore
SplineSet
593 291 m 1,0,1
 553 291 553 291 526 282 c 128,-1,2
 499 273 499 273 485 253.5 c 128,-1,3
 471 234 471 234 471 201 c 2,4,-1
 471 6 l 2,5,6
 471 -44 471 -44 448.5 -74.5 c 128,-1,7
 426 -105 426 -105 387.5 -119.5 c 128,-1,8
 349 -134 349 -134 300 -135 c 1,9,-1
 300 -63 l 1,10,11
 328 -62 328 -62 348 -56 c 128,-1,12
 368 -50 368 -50 378.5 -34 c 128,-1,13
 389 -18 389 -18 389 13 c 2,14,-1
 389 206 l 2,15,16
 389 257 389 257 416 286 c 128,-1,17
 443 315 443 315 495 325 c 1,18,-1
 495 330 l 1,19,20
 443 341 443 341 416 370.5 c 128,-1,21
 389 400 389 400 389 450 c 2,22,-1
 389 645 l 2,23,24
 389 676 389 676 378.5 691.5 c 128,-1,25
 368 707 368 707 348 713.5 c 128,-1,26
 328 720 328 720 300 720 c 1,27,-1
 300 792 l 1,28,29
 349 791 349 791 387.5 776.5 c 128,-1,30
 426 762 426 762 448.5 731.5 c 128,-1,31
 471 701 471 701 471 651 c 2,32,-1
 471 455 l 2,33,34
 471 423 471 423 485 403 c 128,-1,35
 499 383 499 383 526 374 c 128,-1,36
 553 365 553 365 593 365 c 1,37,-1
 593 291 l 1,0,1
EndSplineSet
Validated: 1
EndChar

StartChar: asciitilde.beng
Encoding: 126 126 40
Width: 893
Flags: W
LayerCount: 2
Fore
SplineSet
221 335 m 1,0,1
 246 362 246 362 276 375 c 128,-1,2
 306 388 306 388 342 388 c 0,3,4
 361 388 361 388 377 385.5 c 128,-1,5
 393 383 393 383 413 376.5 c 128,-1,6
 433 370 433 370 463 357 c 0,7,8
 500 341 500 341 520 335.5 c 128,-1,9
 540 330 540 330 561 330 c 0,10,11
 589 330 589 330 619 347 c 128,-1,12
 649 364 649 364 672 389 c 1,13,-1
 672 310 l 1,14,15
 648 284 648 284 617.5 270.5 c 128,-1,16
 587 257 587 257 551 257 c 0,17,18
 532 257 532 257 516 259.5 c 128,-1,19
 500 262 500 262 480.5 268.5 c 128,-1,20
 461 275 461 275 430 288 c 0,21,22
 394 304 394 304 374.5 309.5 c 128,-1,23
 355 315 355 315 332 315 c 0,24,25
 305 315 305 315 275 298 c 128,-1,26
 245 281 245 281 221 256 c 1,27,-1
 221 335 l 1,0,1
EndSplineSet
Validated: 1
EndChar

StartChar: A
Encoding: 65 65 41
Width: 893
Flags: W
AnchorPoint: "Anchor-2" 446 622 basechar 0
LayerCount: 2
Fore
SplineSet
864 622 m 5,0,-1
 864 551 l 5,1,-1
 798 551 l 1,2,-1
 798 0 l 1,3,-1
 721 0 l 1,4,5
 692 59 692 59 649 103.5 c 128,-1,6
 606 148 606 148 557 180 c 1,7,-1
 582 246 l 1,8,9
 620 224 620 224 661 186 c 128,-1,10
 702 148 702 148 724 109 c 1,11,12
 723 124 723 124 722.5 137 c 128,-1,13
 722 150 722 150 721.5 164 c 128,-1,14
 721 178 721 178 721 194 c 2,15,-1
 721 551 l 1,16,-1
 37 551 l 1,17,-1
 37 622 l 1,18,-1
 864 622 l 5,0,-1
376 91 m 0,19,20
 308 91 308 91 246 123 c 128,-1,21
 184 155 184 155 129.5 231.5 c 128,-1,22
 75 308 75 308 29 442 c 1,23,-1
 102 466 l 1,24,25
 138 362 138 362 177.5 295.5 c 128,-1,26
 217 229 217 229 266 198 c 128,-1,27
 315 167 315 167 378 167 c 0,28,29
 433 167 433 167 466.5 184.5 c 128,-1,30
 500 202 500 202 515 232.5 c 128,-1,31
 530 263 530 263 530 300 c 0,32,33
 530 358 530 358 498.5 394 c 128,-1,34
 467 430 467 430 420 430 c 0,35,36
 387 430 387 430 370 415.5 c 128,-1,37
 353 401 353 401 353 372 c 0,38,39
 353 365 353 365 355 353 c 128,-1,40
 357 341 357 341 361 331 c 1,41,-1
 285 316 l 1,42,43
 278 337 278 337 274.5 354.5 c 128,-1,44
 271 372 271 372 271 388 c 0,45,46
 271 425 271 425 291.5 450 c 128,-1,47
 312 475 312 475 344.5 487.5 c 128,-1,48
 377 500 377 500 413 500 c 0,49,50
 472 500 472 500 515 473.5 c 128,-1,51
 558 447 558 447 582 401 c 128,-1,52
 606 355 606 355 606 294 c 0,53,54
 606 240 606 240 581 193.5 c 128,-1,55
 556 147 556 147 505 119 c 128,-1,56
 454 91 454 91 376 91 c 0,19,20
344 465 m 1,57,58
 339 497 339 497 314.5 521.5 c 128,-1,59
 290 546 290 546 243 556 c 1,60,-1
 267 601 l 1,61,-1
 312 589 l 1,62,63
 369 567 369 567 394 539 c 128,-1,64
 419 511 419 511 423 468 c 1,65,-1
 344 465 l 1,57,58
EndSplineSet
Validated: 1048581
EndChar

StartChar: B
Encoding: 66 66 42
Width: 893
Flags: W
LayerCount: 2
Fore
SplineSet
633 617 m 0,0,1
 633 583 633 583 619 557.5 c 128,-1,2
 605 532 605 532 584 512.5 c 128,-1,3
 563 493 563 493 542 477 c 128,-1,4
 521 461 521 461 507 445.5 c 128,-1,5
 493 430 493 430 493 412 c 0,6,7
 493 399 493 399 499.5 388 c 128,-1,8
 506 377 506 377 525 362.5 c 128,-1,9
 544 348 544 348 581 323 c 0,10,11
 617 299 617 299 643 275 c 128,-1,12
 669 251 669 251 683 222 c 128,-1,13
 697 193 697 193 697 153 c 0,14,15
 697 96 697 96 673.5 60 c 128,-1,16
 650 24 650 24 608 7 c 128,-1,17
 566 -10 566 -10 511 -10 c 0,18,19
 464 -10 464 -10 428 -1 c 128,-1,20
 392 8 392 8 366 24 c 1,21,-1
 366 103 l 1,22,23
 383 93 383 93 406 83 c 128,-1,24
 429 73 429 73 455.5 67 c 128,-1,25
 482 61 482 61 508 61 c 0,26,27
 563 61 563 61 587 84 c 128,-1,28
 611 107 611 107 611 147 c 0,29,30
 611 171 611 171 602.5 189.5 c 128,-1,31
 594 208 594 208 573.5 226 c 128,-1,32
 553 244 553 244 517 267 c 0,33,34
 475 294 475 294 451.5 315.5 c 128,-1,35
 428 337 428 337 418 359 c 128,-1,36
 408 381 408 381 408 407 c 0,37,38
 408 438 408 438 421.5 460 c 128,-1,39
 435 482 435 482 455.5 498.5 c 128,-1,40
 476 515 476 515 496.5 531 c 128,-1,41
 517 547 517 547 530.5 566 c 128,-1,42
 544 585 544 585 544 612 c 0,43,44
 544 654 544 654 508.5 673 c 128,-1,45
 473 692 473 692 417 692 c 0,46,47
 382 692 382 692 351.5 682.5 c 128,-1,48
 321 673 321 673 302.5 650 c 128,-1,49
 284 627 284 627 284 584 c 2,50,-1
 284 0 l 1,51,-1
 196 0 l 1,52,-1
 196 584 l 2,53,54
 196 651 196 651 225 690.5 c 128,-1,55
 254 730 254 730 304 747.5 c 128,-1,56
 354 765 354 765 417 765 c 0,57,58
 482 765 482 765 530.5 748.5 c 128,-1,59
 579 732 579 732 606 699.5 c 128,-1,60
 633 667 633 667 633 617 c 0,0,1
EndSplineSet
Validated: 1
EndChar

StartChar: C
Encoding: 67 67 43
Width: 893
Flags: W
LayerCount: 2
Fore
SplineSet
486.5 737 m 4,0,1
 506.5 737 506.5 737 522 723.5 c 132,-1,2
 537.5 710 537.5 710 537.5 681 c 4,3,4
 537.5 653 537.5 653 522 639 c 132,-1,5
 506.5 625 506.5 625 486.5 625 c 4,6,7
 464.5 625 464.5 625 449.5 639 c 132,-1,8
 434.5 653 434.5 653 434.5 681 c 4,9,10
 434.5 710 434.5 710 449.5 723.5 c 132,-1,11
 464.5 737 464.5 737 486.5 737 c 4,0,1
502.5 -10 m 0,12,13
 384.5 -10 384.5 -10 319.5 57 c 128,-1,14
 254.5 124 254.5 124 254.5 245 c 0,15,16
 254.5 325 254.5 325 283.5 380.5 c 128,-1,17
 312.5 436 312.5 436 366.5 465 c 1,18,-1
 233.5 465 l 1,19,-1
 233.5 537 l 1,20,-1
 659.5 537 l 1,21,-1
 659.5 465 l 1,22,-1
 546.5 465 l 2,23,24
 452.5 465 452.5 465 399 411.5 c 128,-1,25
 345.5 358 345.5 358 345.5 252 c 0,26,27
 345.5 165 345.5 165 388.5 114.5 c 128,-1,28
 431.5 64 431.5 64 511.5 64 c 0,29,30
 548.5 64 548.5 64 582.5 73.5 c 128,-1,31
 616.5 83 616.5 83 648.5 99 c 1,32,-1
 648.5 21 l 1,33,34
 619.5 5 619.5 5 584.5 -2.5 c 128,-1,35
 549.5 -10 549.5 -10 502.5 -10 c 0,12,13
EndSplineSet
Validated: 524289
EndChar

StartChar: D
Encoding: 68 68 44
Width: 893
Flags: W
AnchorPoint: "Anchor-2" 446 622 basechar 0
AnchorPoint: "Anchor-1" 588 0 basechar 0
AnchorPoint: "Anchor-0" 452 622 basechar 0
LayerCount: 2
Fore
SplineSet
758 622 m 1,0,-1
 758 551 l 1,1,-1
 304 551 l 1,2,-1
 304 253 l 1,3,-1
 290 273 l 1,4,5
 330 318 330 318 381 357 c 128,-1,6
 432 396 432 396 492 428.5 c 128,-1,7
 552 461 552 461 620 486 c 1,8,-1
 685 422 l 1,9,10
 666 387 666 387 654.5 354 c 128,-1,11
 643 321 643 321 637.5 285 c 128,-1,12
 632 249 632 249 632 205 c 0,13,14
 632 156 632 156 640 111 c 128,-1,15
 648 66 648 66 667 10 c 1,16,-1
 592 -7 l 1,17,18
 574 51 574 51 564 106.5 c 128,-1,19
 554 162 554 162 554 222 c 0,20,21
 554 263 554 263 560 299 c 128,-1,22
 566 335 566 335 576.5 363.5 c 128,-1,23
 587 392 587 392 598 410 c 1,24,-1
 610 405 l 1,25,26
 553 382 553 382 499 349 c 128,-1,27
 445 316 445 316 393 273 c 128,-1,28
 341 230 341 230 286 175 c 1,29,-1
 227 215 l 1,30,-1
 227 551 l 1,31,-1
 135 551 l 1,32,-1
 135 622 l 1,33,-1
 758 622 l 1,0,-1
EndSplineSet
Validated: 5
EndChar

StartChar: E
Encoding: 69 69 45
Width: 893
Flags: W
LayerCount: 2
Fore
SplineSet
646 0 m 1,0,-1
 247 0 l 1,1,-1
 247 714 l 1,2,-1
 646 714 l 1,3,-1
 646 635 l 1,4,-1
 337 635 l 1,5,-1
 337 412 l 1,6,-1
 628 412 l 1,7,-1
 628 334 l 1,8,-1
 337 334 l 1,9,-1
 337 79 l 1,10,-1
 646 79 l 1,11,-1
 646 0 l 1,0,-1
EndSplineSet
Validated: 1
EndChar

StartChar: F
Encoding: 70 70 46
Width: 893
Flags: W
LayerCount: 2
Fore
SplineSet
337 0 m 1,0,-1
 247 0 l 1,1,-1
 247 714 l 1,2,-1
 646 714 l 1,3,-1
 646 635 l 1,4,-1
 337 635 l 1,5,-1
 337 382 l 1,6,-1
 627 382 l 1,7,-1
 627 303 l 1,8,-1
 337 303 l 1,9,-1
 337 0 l 1,0,-1
EndSplineSet
Validated: 1
EndChar

StartChar: G
Encoding: 71 71 47
Width: 893
Flags: W
LayerCount: 2
Fore
SplineSet
429 546 m 0,0,1
 482 546 482 546 524.5 526 c 128,-1,2
 567 506 567 506 597 465 c 1,3,-1
 602 465 l 1,4,-1
 614 536 l 1,5,-1
 684 536 l 1,6,-1
 684 -9 l 2,7,8
 684 -85 684 -85 658 -136.5 c 128,-1,9
 632 -188 632 -188 579 -214 c 128,-1,10
 526 -240 526 -240 444 -240 c 0,11,12
 386 -240 386 -240 337.5 -231.5 c 128,-1,13
 289 -223 289 -223 251 -206 c 1,14,-1
 251 -125 l 1,15,16
 289 -145 289 -145 340 -156 c 128,-1,17
 391 -167 391 -167 449 -167 c 0,18,19
 518 -167 518 -167 557.5 -126.5 c 128,-1,20
 597 -86 597 -86 597 -16 c 2,21,-1
 597 5 l 2,22,23
 597 17 597 17 598 39.5 c 128,-1,24
 599 62 599 62 600 71 c 1,25,-1
 596 71 l 1,26,27
 568 30 568 30 526.5 10 c 128,-1,28
 485 -10 485 -10 430 -10 c 0,29,30
 326 -10 326 -10 267.5 63 c 128,-1,31
 209 136 209 136 209 267 c 0,32,33
 209 395 209 395 267.5 470.5 c 128,-1,34
 326 546 326 546 429 546 c 0,0,1
441 472 m 0,35,36
 396 472 396 472 364.5 448 c 128,-1,37
 333 424 333 424 316.5 378 c 128,-1,38
 300 332 300 332 300 266 c 0,39,40
 300 167 300 167 336.5 114.5 c 128,-1,41
 373 62 373 62 443 62 c 0,42,43
 484 62 484 62 513 72.5 c 128,-1,44
 542 83 542 83 561 105.5 c 128,-1,45
 580 128 580 128 589 163 c 128,-1,46
 598 198 598 198 598 246 c 2,47,-1
 598 267 l 2,48,49
 598 340 598 340 581.5 385 c 128,-1,50
 565 430 565 430 530 451 c 128,-1,51
 495 472 495 472 441 472 c 0,35,36
452 737 m 0,52,53
 472 737 472 737 487.5 723.5 c 128,-1,54
 503 710 503 710 503 681 c 0,55,56
 503 653 503 653 487.5 639 c 128,-1,57
 472 625 472 625 452 625 c 0,58,59
 430 625 430 625 415 639 c 128,-1,60
 400 653 400 653 400 681 c 0,61,62
 400 710 400 710 415 723.5 c 128,-1,63
 430 737 430 737 452 737 c 0,52,53
EndSplineSet
Validated: 1
EndChar

StartChar: H
Encoding: 72 72 48
Width: 893
Flags: W
AnchorPoint: "Anchor-2" 434 622 basechar 0
AnchorPoint: "Anchor-1" 437 0 basechar 0
AnchorPoint: "Anchor-0" 402 622 basechar 0
LayerCount: 2
Fore
SplineSet
411 500 m 0,0,1
 490 500 490 500 538.5 473.5 c 128,-1,2
 587 447 587 447 610 406.5 c 128,-1,3
 633 366 633 366 633 325 c 0,4,5
 633 243 633 243 575.5 195 c 128,-1,6
 518 147 518 147 405 141 c 1,7,-1
 415 152 l 1,8,9
 460 139 460 139 510 115 c 128,-1,10
 560 91 560 91 611 59.5 c 128,-1,11
 662 28 662 28 709 -10 c 1,12,-1
 663 -63 l 1,13,14
 601 -17 601 -17 549.5 16.5 c 128,-1,15
 498 50 498 50 448 75 c 128,-1,16
 398 100 398 100 342 119 c 128,-1,17
 286 138 286 138 215 154 c 1,18,-1
 230 223 l 1,19,20
 265 213 265 213 297.5 208.5 c 128,-1,21
 330 204 330 204 376 204 c 0,22,23
 447 204 447 204 485.5 221 c 128,-1,24
 524 238 524 238 539 265 c 128,-1,25
 554 292 554 292 554 320 c 0,26,27
 554 373 554 373 515 401.5 c 128,-1,28
 476 430 476 430 416 430 c 0,29,30
 380 430 380 430 358 423 c 128,-1,31
 336 416 336 416 326.5 402.5 c 128,-1,32
 317 389 317 389 317 370 c 0,33,34
 317 362 317 362 319 353.5 c 128,-1,35
 321 345 321 345 323 338 c 1,36,-1
 250 323 l 1,37,38
 245 338 245 338 242 354.5 c 128,-1,39
 239 371 239 371 239 384 c 0,40,41
 239 421 239 421 261 447 c 128,-1,42
 283 473 283 473 321.5 486.5 c 128,-1,43
 360 500 360 500 411 500 c 0,0,1
344 465 m 1,44,45
 339 497 339 497 314 521.5 c 128,-1,46
 289 546 289 546 242 556 c 1,47,-1
 266 601 l 1,48,-1
 312 589 l 1,49,50
 368 567 368 567 393.5 539 c 128,-1,51
 419 511 419 511 423 468 c 1,52,-1
 344 465 l 1,44,45
655 622 m 5,53,-1
 655 551 l 5,54,-1
 184 551 l 1,55,-1
 184 622 l 1,56,-1
 655 622 l 5,53,-1
EndSplineSet
Validated: 5
EndChar

StartChar: I
Encoding: 73 73 49
Width: 893
Flags: W
LayerCount: 2
Fore
SplineSet
547 756 m 1,0,1
 538 742 538 742 521 722 c 0,2,3
 504 702 504 702 483.5 680.5 c 0,4,5
 463 659 463 659 442.5 639.5 c 0,6,7
 422 620 422 620 404 606 c 1,8,-1
 346 606 l 1,9,-1
 346 618 l 1,10,11
 361 637 361 637 378.5 663 c 0,12,13
 396 689 396 689 413 716.5 c 0,14,15
 430 744 430 744 441 766 c 1,16,-1
 547 766 l 1,17,-1
 547 756 l 1,0,1
443 0 m 5,18,-1
 355 0 l 5,19,-1
 355 536 l 5,20,-1
 443 536 l 5,21,-1
 443 0 l 5,18,-1
EndSplineSet
Validated: 1
EndChar

StartChar: J
Encoding: 74 74 50
Width: 893
Flags: W
LayerCount: 2
Fore
SplineSet
396 -8 m 4,0,1
 341 -8 341 -8 297 4 c 132,-1,2
 253 16 253 16 219 33 c 5,3,-1
 250 103 l 5,4,5
 280 89 280 89 316.5 77 c 132,-1,6
 353 65 353 65 394 65 c 4,7,8
 451 65 451 65 481 94.5 c 132,-1,9
 511 124 511 124 511 190 c 6,10,-1
 511 329 l 5,11,-1
 307 329 l 5,12,-1
 307 395 l 5,13,-1
 511 395 l 5,14,-1
 511 499 l 6,15,16
 511 539 511 539 520.5 565.5 c 132,-1,17
 530 592 530 592 545.5 608 c 132,-1,18
 561 624 561 624 579 635 c 5,19,-1
 195 635 l 5,20,-1
 195 715 l 5,21,-1
 698 715 l 5,22,-1
 698 641 l 5,23,24
 669 634 669 634 647 617.5 c 132,-1,25
 625 601 625 601 612 572.5 c 132,-1,26
 599 544 599 544 599 500 c 6,27,-1
 599 395 l 5,28,-1
 695 395 l 5,29,-1
 695 329 l 5,30,-1
 599 329 l 5,31,-1
 599 181 l 6,32,33
 599 121 599 121 574 79 c 132,-1,34
 549 37 549 37 503 14.5 c 132,-1,35
 457 -8 457 -8 396 -8 c 4,0,1
EndSplineSet
Validated: 1
EndChar

StartChar: K
Encoding: 75 75 51
Width: 893
Flags: W
LayerCount: 2
Fore
SplineSet
426.5 737 m 4,0,1
 446.5 737 446.5 737 462 723.5 c 132,-1,2
 477.5 710 477.5 710 477.5 681 c 4,3,4
 477.5 653 477.5 653 462 639 c 132,-1,5
 446.5 625 446.5 625 426.5 625 c 4,6,7
 404.5 625 404.5 625 389.5 639 c 132,-1,8
 374.5 653 374.5 653 374.5 681 c 4,9,10
 374.5 710 374.5 710 389.5 723.5 c 132,-1,11
 404.5 737 404.5 737 426.5 737 c 4,0,1
313.5 363 m 2,12,13
 313.5 347 313.5 347 312 321 c 128,-1,14
 310.5 295 310.5 295 309.5 276 c 1,15,-1
 313.5 276 l 1,16,17
 319.5 284 319.5 284 331.5 299 c 128,-1,18
 343.5 314 343.5 314 356 329.5 c 128,-1,19
 368.5 345 368.5 345 377.5 355 c 2,20,-1
 548.5 536 l 1,21,-1
 651.5 536 l 1,22,-1
 434.5 307 l 1,23,-1
 666.5 0 l 1,24,-1
 560.5 0 l 1,25,-1
 374.5 250 l 1,26,-1
 313.5 197 l 1,27,-1
 313.5 0 l 1,28,-1
 226.5 0 l 1,29,-1
 226.5 536 l 1,30,-1
 313.5 536 l 1,31,-1
 313.5 363 l 2,12,13
EndSplineSet
Validated: 524289
EndChar

StartChar: L
Encoding: 76 76 52
Width: 893
Flags: W
LayerCount: 2
Fore
SplineSet
497 723 m 0,0,1
 552 723 552 723 596 711 c 128,-1,2
 640 699 640 699 674 682 c 1,3,-1
 643 612 l 1,4,5
 613 626 613 626 576.5 638 c 128,-1,6
 540 650 540 650 499 650 c 0,7,8
 442 650 442 650 412 620.5 c 128,-1,9
 382 591 382 591 382 525 c 2,10,-1
 382 386 l 1,11,-1
 586 386 l 1,12,-1
 586 320 l 1,13,-1
 382 320 l 1,14,-1
 382 216 l 2,15,16
 382 176 382 176 372.5 149.5 c 128,-1,17
 363 123 363 123 347.5 107 c 128,-1,18
 332 91 332 91 314 80 c 1,19,-1
 698 80 l 1,20,-1
 698 0 l 1,21,-1
 195 0 l 1,22,-1
 195 74 l 1,23,24
 224 81 224 81 246 97.5 c 128,-1,25
 268 114 268 114 281 142.5 c 128,-1,26
 294 171 294 171 294 215 c 2,27,-1
 294 320 l 1,28,-1
 198 320 l 1,29,-1
 198 386 l 1,30,-1
 294 386 l 1,31,-1
 294 534 l 2,32,33
 294 594 294 594 319 636 c 128,-1,34
 344 678 344 678 390 700.5 c 128,-1,35
 436 723 436 723 497 723 c 0,0,1
EndSplineSet
Validated: 1
EndChar

StartChar: M
Encoding: 77 77 53
Width: 893
Flags: W
LayerCount: 2
Fore
SplineSet
650 546 m 0,0,1
 741 546 741 546 786 499.5 c 128,-1,2
 831 453 831 453 831 349 c 2,3,-1
 831 0 l 1,4,-1
 744 0 l 1,5,-1
 744 345 l 2,6,7
 744 408 744 408 717.5 440 c 128,-1,8
 691 472 691 472 635 472 c 0,9,10
 557 472 557 472 523.5 427 c 128,-1,11
 490 382 490 382 490 296 c 2,12,-1
 490 0 l 1,13,-1
 403 0 l 1,14,-1
 403 345 l 2,15,16
 403 387 403 387 391 415.5 c 128,-1,17
 379 444 379 444 355 458 c 128,-1,18
 331 472 331 472 293 472 c 0,19,20
 239 472 239 472 208 449.5 c 128,-1,21
 177 427 177 427 163.5 384 c 128,-1,22
 150 341 150 341 150 278 c 2,23,-1
 150 0 l 1,24,-1
 62 0 l 1,25,-1
 62 536 l 1,26,-1
 133 536 l 1,27,-1
 146 463 l 1,28,-1
 151 463 l 1,29,30
 168 491 168 491 192.5 509.5 c 128,-1,31
 217 528 217 528 247 537 c 128,-1,32
 277 546 277 546 309 546 c 0,33,34
 371 546 371 546 412.5 524 c 128,-1,35
 454 502 454 502 473 456 c 1,36,-1
 478 456 l 1,37,38
 505 502 505 502 551.5 524 c 128,-1,39
 598 546 598 546 650 546 c 0,0,1
457 737 m 0,40,41
 477 737 477 737 492.5 723.5 c 128,-1,42
 508 710 508 710 508 681 c 0,43,44
 508 653 508 653 492.5 639 c 128,-1,45
 477 625 477 625 457 625 c 0,46,47
 435 625 435 625 420 639 c 128,-1,48
 405 653 405 653 405 681 c 0,49,50
 405 710 405 710 420 723.5 c 128,-1,51
 435 737 435 737 457 737 c 0,40,41
EndSplineSet
Validated: 1
EndChar

StartChar: N
Encoding: 78 78 54
Width: 893
Flags: W
LayerCount: 2
Fore
SplineSet
420.5 737 m 4,0,1
 440.5 737 440.5 737 456 723.5 c 132,-1,2
 471.5 710 471.5 710 471.5 681 c 4,3,4
 471.5 653 471.5 653 456 639 c 132,-1,5
 440.5 625 440.5 625 420.5 625 c 4,6,7
 398.5 625 398.5 625 383.5 639 c 132,-1,8
 368.5 653 368.5 653 368.5 681 c 4,9,10
 368.5 710 368.5 710 383.5 723.5 c 132,-1,11
 398.5 737 398.5 737 420.5 737 c 4,0,1
478.5 546 m 0,12,13
 574.5 546 574.5 546 623.5 499.5 c 128,-1,14
 672.5 453 672.5 453 672.5 349 c 2,15,-1
 672.5 0 l 1,16,-1
 585.5 0 l 1,17,-1
 585.5 343 l 2,18,19
 585.5 408 585.5 408 556.5 440 c 128,-1,20
 527.5 472 527.5 472 465.5 472 c 0,21,22
 376.5 472 376.5 472 342.5 422 c 128,-1,23
 308.5 372 308.5 372 308.5 278 c 2,24,-1
 308.5 0 l 1,25,-1
 220.5 0 l 1,26,-1
 220.5 536 l 1,27,-1
 291.5 536 l 1,28,-1
 304.5 463 l 1,29,-1
 309.5 463 l 1,30,31
 327.5 491 327.5 491 354 509.5 c 128,-1,32
 380.5 528 380.5 528 412.5 537 c 128,-1,33
 444.5 546 444.5 546 478.5 546 c 0,12,13
EndSplineSet
Validated: 524289
EndChar

StartChar: O
Encoding: 79 79 55
Width: 893
Flags: W
LayerCount: 2
Fore
SplineSet
694.5 269 m 256,0,1
 694.5 180 694.5 180 664 117.5 c 128,-1,2
 633.5 55 633.5 55 577.5 22.5 c 128,-1,3
 521.5 -10 521.5 -10 444.5 -10 c 0,4,5
 373.5 -10 373.5 -10 318 22.5 c 128,-1,6
 262.5 55 262.5 55 230.5 117.5 c 128,-1,7
 198.5 180 198.5 180 198.5 269 c 0,8,9
 198.5 402 198.5 402 265.5 474 c 128,-1,10
 332.5 546 332.5 546 447.5 546 c 0,11,12
 520.5 546 520.5 546 576 513.5 c 128,-1,13
 631.5 481 631.5 481 663 419.5 c 128,-1,14
 694.5 358 694.5 358 694.5 269 c 256,0,1
446.5 63 m 256,15,16
 497.5 63 497.5 63 531 83 c 128,-1,17
 564.5 103 564.5 103 582 142.5 c 128,-1,18
 599.5 182 599.5 182 602.5 239 c 1,19,-1
 289.5 239 l 1,20,21
 292.5 182 292.5 182 310.5 142.5 c 128,-1,22
 328.5 103 328.5 103 362 83 c 128,-1,23
 395.5 63 395.5 63 446.5 63 c 256,15,16
445.5 472 m 0,24,25
 371.5 472 371.5 472 334.5 431.5 c 128,-1,26
 297.5 391 297.5 391 290.5 312 c 1,27,-1
 602.5 312 l 1,28,29
 597.5 365 597.5 365 579 400.5 c 128,-1,30
 560.5 436 560.5 436 527.5 454 c 128,-1,31
 494.5 472 494.5 472 445.5 472 c 0,24,25
EndSplineSet
Validated: 524289
EndChar

StartChar: P
Encoding: 80 80 56
Width: 893
Flags: W
LayerCount: 2
Fore
SplineSet
327.5 744 m 4,0,1
 347.5 744 347.5 744 363 730.5 c 132,-1,2
 378.5 717 378.5 717 378.5 688 c 4,3,4
 378.5 660 378.5 660 363 646 c 132,-1,5
 347.5 632 347.5 632 327.5 632 c 4,6,7
 305.5 632 305.5 632 290.5 646 c 132,-1,8
 275.5 660 275.5 660 275.5 688 c 4,9,10
 275.5 717 275.5 717 290.5 730.5 c 132,-1,11
 305.5 744 305.5 744 327.5 744 c 4,0,1
465.5 546 m 0,12,13
 525.5 546 525.5 546 572.5 521 c 128,-1,14
 619.5 496 619.5 496 646.5 446.5 c 128,-1,15
 673.5 397 673.5 397 673.5 323 c 0,16,17
 673.5 252 673.5 252 646.5 193 c 128,-1,18
 619.5 134 619.5 134 570.5 90.5 c 128,-1,19
 521.5 47 521.5 47 454.5 21 c 128,-1,20
 387.5 -5 387.5 -5 307.5 -10 c 1,21,-1
 307.5 -240 l 1,22,-1
 219.5 -240 l 1,23,-1
 219.5 536 l 1,24,-1
 291.5 536 l 1,25,-1
 303.5 463 l 1,26,-1
 307.5 463 l 1,27,28
 322.5 486 322.5 486 343.5 505 c 128,-1,29
 364.5 524 364.5 524 394.5 535 c 128,-1,30
 424.5 546 424.5 546 465.5 546 c 0,12,13
447.5 472 m 0,31,32
 397.5 472 397.5 472 366.5 451.5 c 128,-1,33
 335.5 431 335.5 431 321.5 390 c 128,-1,34
 307.5 349 307.5 349 307.5 286 c 2,35,-1
 307.5 62 l 1,36,37
 372.5 70 372.5 70 423 91.5 c 128,-1,38
 473.5 113 473.5 113 509.5 146.5 c 128,-1,39
 545.5 180 545.5 180 564 224 c 128,-1,40
 582.5 268 582.5 268 582.5 321 c 0,41,42
 582.5 367 582.5 367 566.5 400.5 c 128,-1,43
 550.5 434 550.5 434 520.5 453 c 128,-1,44
 490.5 472 490.5 472 447.5 472 c 0,31,32
EndSplineSet
Validated: 524289
EndChar

StartChar: Q
Encoding: 81 81 57
Width: 893
Flags: W
LayerCount: 2
Fore
SplineSet
697.5 -5 m 1,0,1
 677.5 -5 677.5 -5 658.5 2 c 128,-1,2
 639.5 9 639.5 9 625.5 26 c 1,3,-1
 625.5 291 l 5,4,5
 597.5 266 597.5 266 560.5 250.5 c 132,-1,6
 523.5 235 523.5 235 473.5 235 c 4,7,8
 431.5 235 431.5 235 382.5 258 c 132,-1,9
 333.5 281 333.5 281 291.5 318 c 132,-1,10
 249.5 355 249.5 355 221.5 401 c 132,-1,11
 193.5 447 193.5 447 193.5 493 c 4,12,13
 193.5 541 193.5 541 211 578 c 132,-1,14
 228.5 615 228.5 615 258.5 640.5 c 132,-1,15
 288.5 666 288.5 666 329 679 c 132,-1,16
 369.5 692 369.5 692 415.5 692 c 4,17,18
 449.5 692 449.5 692 479.5 684 c 4,19,20
 528.5 671 528.5 671 535.5 662.5 c 4,21,22
 570.5 622 570.5 622 584 631.5 c 4,23,24
 587.5 634 587.5 634 625.5 718 c 5,25,-1
 623.5 717 l 5,26,-1
 699.5 717 l 6,27,-1
 697.5 -5 l 1,0,1
416.5 292 m 4,28,29
 454.5 292 454.5 292 490.5 304.5 c 132,-1,30
 526.5 317 526.5 317 556.5 340 c 5,31,-1
 323.5 580 l 5,32,33
 296.5 556 296.5 556 281.5 521.5 c 132,-1,34
 266.5 487 266.5 487 266.5 442 c 4,35,36
 266.5 406 266.5 406 278 378 c 132,-1,37
 289.5 350 289.5 350 309.5 331 c 132,-1,38
 329.5 312 329.5 312 357 302 c 132,-1,39
 384.5 292 384.5 292 416.5 292 c 4,28,29
625.5 571 m 5,40,41
 590.5 598 590.5 598 553 613.5 c 132,-1,42
 515.5 629 515.5 629 466.5 629 c 4,43,44
 394.5 629 394.5 629 343.5 596 c 5,45,-1
 574.5 356 l 5,46,47
 590.5 371 590.5 371 603.5 389 c 132,-1,48
 616.5 407 616.5 407 625.5 427 c 5,49,-1
 625.5 571 l 5,40,41
EndSplineSet
Validated: 524325
EndChar

StartChar: R
Encoding: 82 82 58
Width: 893
Flags: W
AnchorPoint: "Anchor-5" 331 0 basechar 0
LayerCount: 2
Fore
SplineSet
464 744 m 4,0,1
 484 744 484 744 499.5 730.5 c 132,-1,2
 515 717 515 717 515 688 c 4,3,4
 515 660 515 660 499.5 646 c 132,-1,5
 484 632 484 632 464 632 c 4,6,7
 442 632 442 632 427 646 c 132,-1,8
 412 660 412 660 412 688 c 4,9,10
 412 717 412 717 427 730.5 c 132,-1,11
 442 744 442 744 464 744 c 4,0,1
540 546 m 0,12,13
 555 546 555 546 572.5 544.5 c 128,-1,14
 590 543 590 543 603 540 c 1,15,-1
 592 459 l 1,16,17
 579 462 579 462 563.5 464 c 128,-1,18
 548 466 548 466 534 466 c 0,19,20
 503 466 503 466 475 453 c 128,-1,21
 447 440 447 440 425 416.5 c 128,-1,22
 403 393 403 393 390.5 360 c 128,-1,23
 378 327 378 327 378 286 c 2,24,-1
 378 0 l 1,25,-1
 290 0 l 1,26,-1
 290 536 l 1,27,-1
 362 536 l 1,28,-1
 372 438 l 1,29,-1
 376 438 l 1,30,31
 393 468 393 468 417 492.5 c 128,-1,32
 441 517 441 517 472 531.5 c 128,-1,33
 503 546 503 546 540 546 c 0,12,13
EndSplineSet
Validated: 1048577
EndChar

StartChar: S
Encoding: 83 83 59
Width: 893
Flags: W
AnchorPoint: "Anchor-5" 444 0 basechar 0
LayerCount: 2
Fore
SplineSet
463 744 m 4,0,1
 483 744 483 744 498.5 730.5 c 132,-1,2
 514 717 514 717 514 688 c 4,3,4
 514 660 514 660 498.5 646 c 132,-1,5
 483 632 483 632 463 632 c 4,6,7
 441 632 441 632 426 646 c 132,-1,8
 411 660 411 660 411 688 c 4,9,10
 411 717 411 717 426 730.5 c 132,-1,11
 441 744 441 744 463 744 c 4,0,1
638 148 m 0,12,13
 638 96 638 96 612 61 c 128,-1,14
 586 26 586 26 538 8 c 128,-1,15
 490 -10 490 -10 424 -10 c 0,16,17
 368 -10 368 -10 327.5 -1 c 128,-1,18
 287 8 287 8 256 24 c 1,19,-1
 256 104 l 1,20,21
 288 88 288 88 333.5 74.5 c 128,-1,22
 379 61 379 61 426 61 c 0,23,24
 493 61 493 61 523 82.5 c 128,-1,25
 553 104 553 104 553 140 c 0,26,27
 553 160 553 160 542 176 c 128,-1,28
 531 192 531 192 502.5 208 c 128,-1,29
 474 224 474 224 421 244 c 0,30,31
 369 264 369 264 332 284 c 128,-1,32
 295 304 295 304 275 332 c 128,-1,33
 255 360 255 360 255 404 c 0,34,35
 255 472 255 472 310.5 509 c 128,-1,36
 366 546 366 546 456 546 c 0,37,38
 505 546 505 546 547.5 536.5 c 128,-1,39
 590 527 590 527 627 510 c 1,40,-1
 597 440 l 1,41,42
 563 454 563 454 526 464 c 128,-1,43
 489 474 489 474 450 474 c 0,44,45
 396 474 396 474 367.5 456.5 c 128,-1,46
 339 439 339 439 339 409 c 0,47,48
 339 387 339 387 352 371.5 c 128,-1,49
 365 356 365 356 395.5 341.5 c 128,-1,50
 426 327 426 327 477 307 c 0,51,52
 528 288 528 288 564 268 c 128,-1,53
 600 248 600 248 619 219.5 c 128,-1,54
 638 191 638 191 638 148 c 0,12,13
EndSplineSet
Validated: 1048577
EndChar

StartChar: T
Encoding: 84 84 60
Width: 893
Flags: W
AnchorPoint: "Anchor-2" 449.5 622 basechar 0
AnchorPoint: "Anchor-1" 523.5 0 basechar 0
AnchorPoint: "Anchor-0" 474.5 622 basechar 0
LayerCount: 2
Fore
SplineSet
503.5 50 m 256,0,1
 421.5 50 421.5 50 350.5 90.5 c 128,-1,2
 279.5 131 279.5 131 223 222 c 128,-1,3
 166.5 313 166.5 313 125.5 466 c 1,4,-1
 201.5 486 l 1,5,6
 236.5 362 236.5 362 278 282 c 128,-1,7
 319.5 202 319.5 202 374 164 c 128,-1,8
 428.5 126 428.5 126 501.5 126 c 0,9,10
 548.5 126 548.5 126 580.5 137.5 c 128,-1,11
 612.5 149 612.5 149 632 170 c 128,-1,12
 651.5 191 651.5 191 660.5 218.5 c 128,-1,13
 669.5 246 669.5 246 669.5 278 c 0,14,15
 669.5 320 669.5 320 653.5 354.5 c 128,-1,16
 637.5 389 637.5 389 608.5 409 c 128,-1,17
 579.5 429 579.5 429 540.5 429 c 0,18,19
 500.5 429 500.5 429 483 412 c 128,-1,20
 465.5 395 465.5 395 465.5 367 c 0,21,22
 465.5 357 465.5 357 467.5 346 c 128,-1,23
 469.5 335 469.5 335 474.5 321 c 1,24,-1
 397.5 306 l 1,25,26
 391.5 325 391.5 325 388 343 c 128,-1,27
 384.5 361 384.5 361 384.5 380 c 0,28,29
 384.5 419 384.5 419 404 445.5 c 128,-1,30
 423.5 472 423.5 472 458 486 c 128,-1,31
 492.5 500 492.5 500 536.5 500 c 0,32,33
 598.5 500 598.5 500 645.5 471.5 c 128,-1,34
 692.5 443 692.5 443 719.5 392 c 128,-1,35
 746.5 341 746.5 341 746.5 274 c 0,36,37
 746.5 211 746.5 211 720 160.5 c 128,-1,38
 693.5 110 693.5 110 639.5 80 c 128,-1,39
 585.5 50 585.5 50 503.5 50 c 256,0,1
771.5 622 m 5,40,-1
 771.5 551 l 5,41,-1
 121.5 551 l 1,42,-1
 121.5 622 l 1,43,-1
 771.5 622 l 5,40,-1
EndSplineSet
Validated: 524289
EndChar

StartChar: U
Encoding: 85 85 61
Width: 893
Flags: W
LayerCount: 2
Fore
SplineSet
669.5 536 m 1,0,-1
 669.5 0 l 1,1,-1
 597.5 0 l 1,2,-1
 584.5 71 l 1,3,-1
 580.5 71 l 1,4,5
 563.5 43 563.5 43 536.5 25 c 128,-1,6
 509.5 7 509.5 7 477.5 -1.5 c 128,-1,7
 445.5 -10 445.5 -10 410.5 -10 c 0,8,9
 346.5 -10 346.5 -10 303 10.5 c 128,-1,10
 259.5 31 259.5 31 237.5 74 c 128,-1,11
 215.5 117 215.5 117 215.5 185 c 2,12,-1
 215.5 536 l 1,13,-1
 304.5 536 l 1,14,-1
 304.5 191 l 2,15,16
 304.5 127 304.5 127 333.5 95 c 128,-1,17
 362.5 63 362.5 63 423.5 63 c 0,18,19
 483.5 63 483.5 63 518 85.5 c 128,-1,20
 552.5 108 552.5 108 567 151.5 c 128,-1,21
 581.5 195 581.5 195 581.5 257 c 2,22,-1
 581.5 536 l 1,23,-1
 669.5 536 l 1,0,-1
584.5 -116 m 0,24,25
 584.5 -138 584.5 -138 596.5 -149.5 c 128,-1,26
 608.5 -161 608.5 -161 629.5 -161 c 0,27,28
 646.5 -161 646.5 -161 658 -158.5 c 128,-1,29
 669.5 -156 669.5 -156 677.5 -155 c 1,30,-1
 677.5 -211 l 1,31,32
 663.5 -215 663.5 -215 649.5 -217.5 c 128,-1,33
 635.5 -220 635.5 -220 615.5 -220 c 0,34,35
 562.5 -220 562.5 -220 537.5 -195 c 128,-1,36
 512.5 -170 512.5 -170 512.5 -126 c 0,37,38
 512.5 -97 512.5 -97 527 -70 c 128,-1,39
 541.5 -43 541.5 -43 563 -21 c 128,-1,40
 584.5 1 584.5 1 604.5 15 c 1,41,-1
 652.5 0 l 1,42,43
 618.5 -32 618.5 -32 601.5 -58.5 c 128,-1,44
 584.5 -85 584.5 -85 584.5 -116 c 0,24,25
EndSplineSet
Validated: 524293
EndChar

StartChar: V
Encoding: 86 86 62
Width: 893
Flags: W
LayerCount: 2
Fore
SplineSet
434.5 737 m 4,0,1
 454.5 737 454.5 737 470 723.5 c 132,-1,2
 485.5 710 485.5 710 485.5 681 c 4,3,4
 485.5 653 485.5 653 470 639 c 132,-1,5
 454.5 625 454.5 625 434.5 625 c 4,6,7
 412.5 625 412.5 625 397.5 639 c 132,-1,8
 382.5 653 382.5 653 382.5 681 c 4,9,10
 382.5 710 382.5 710 397.5 723.5 c 132,-1,11
 412.5 737 412.5 737 434.5 737 c 4,0,1
393.5 0 m 1,12,-1
 203.5 536 l 1,13,-1
 294.5 536 l 1,14,-1
 391.5 247 l 2,15,16
 399.5 223 399.5 223 411.5 190 c 128,-1,17
 423.5 157 423.5 157 434 125.5 c 128,-1,18
 444.5 94 444.5 94 449.5 74 c 1,19,-1
 453.5 74 l 1,20,21
 510.5 137 510.5 137 543 206.5 c 128,-1,22
 575.5 276 575.5 276 589 357.5 c 128,-1,23
 602.5 439 602.5 439 602.5 536 c 1,24,-1
 689.5 536 l 1,25,26
 689.5 431 689.5 431 671.5 340.5 c 128,-1,27
 653.5 250 653.5 250 610 166.5 c 128,-1,28
 566.5 83 566.5 83 488.5 0 c 1,29,-1
 393.5 0 l 1,12,-1
EndSplineSet
Validated: 524289
EndChar

StartChar: W
Encoding: 87 87 63
Width: 893
Flags: W
LayerCount: 2
Fore
SplineSet
302.5 -10 m 0,0,1
 240.5 -10 240.5 -10 198 24 c 128,-1,2
 155.5 58 155.5 58 133.5 119 c 128,-1,3
 111.5 180 111.5 180 111.5 260 c 0,4,5
 111.5 322 111.5 322 123 467 c 128,-1,6
 134.5 612 134.5 612 153.5 652 c 5,7,-1
 39.5 652 l 5,8,-1
 39.5 725 l 5,9,-1
 853.5 725 l 5,10,-1
 853.5 652 l 5,11,-1
 739.5 652 l 5,12,13
 759.5 612 759.5 612 770.5 467 c 128,-1,14
 781.5 322 781.5 322 781.5 260 c 0,15,16
 781.5 180 781.5 180 759.5 119 c 128,-1,17
 737.5 58 737.5 58 695 24 c 128,-1,18
 652.5 -10 652.5 -10 590.5 -10 c 0,19,20
 535.5 -10 535.5 -10 500.5 15.5 c 128,-1,21
 465.5 41 465.5 41 448.5 100 c 1,22,-1
 443.5 100 l 1,23,24
 433.5 61 433.5 61 414.5 36.5 c 128,-1,25
 395.5 12 395.5 12 367.5 1 c 128,-1,26
 339.5 -10 339.5 -10 302.5 -10 c 0,0,1
308.5 63 m 0,27,28
 341.5 63 341.5 63 363 80 c 128,-1,29
 384.5 97 384.5 97 394.5 126.5 c 128,-1,30
 404.5 156 404.5 156 404.5 193 c 2,31,-1
 404.5 344 l 1,32,-1
 488.5 344 l 1,33,-1
 488.5 193 l 2,34,35
 488.5 152 488.5 152 500 122.5 c 128,-1,36
 511.5 93 511.5 93 532.5 78 c 128,-1,37
 553.5 63 553.5 63 583.5 63 c 0,38,39
 617.5 63 617.5 63 642 85 c 128,-1,40
 666.5 107 666.5 107 680 151 c 128,-1,41
 693.5 195 693.5 195 693.5 259 c 0,42,43
 693.5 322 693.5 322 682.5 467 c 128,-1,44
 671.5 612 671.5 612 651.5 652 c 5,45,-1
 242.5 652 l 5,46,47
 223.5 612 223.5 612 211.5 467 c 128,-1,48
 199.5 322 199.5 322 199.5 259 c 0,49,50
 199.5 162 199.5 162 229.5 112.5 c 128,-1,51
 259.5 63 259.5 63 308.5 63 c 0,27,28
EndSplineSet
Validated: 524289
EndChar

StartChar: X
Encoding: 88 88 64
Width: 893
Flags: W
LayerCount: 2
Fore
SplineSet
437.5 722 m 0,0,1
 457.5 722 457.5 722 473 708.5 c 128,-1,2
 488.5 695 488.5 695 488.5 666 c 0,3,4
 488.5 638 488.5 638 473 624 c 128,-1,5
 457.5 610 457.5 610 437.5 610 c 0,6,7
 415.5 610 415.5 610 400.5 624 c 128,-1,8
 385.5 638 385.5 638 385.5 666 c 0,9,10
 385.5 695 385.5 695 400.5 708.5 c 128,-1,11
 415.5 722 415.5 722 437.5 722 c 0,0,1
617.5 574 m 1,12,-1
 667.5 523 l 1,13,-1
 497.5 353 l 1,14,-1
 666.5 183 l 1,15,-1
 616.5 132 l 1,16,-1
 445.5 301 l 1,17,-1
 278.5 132 l 1,18,-1
 226.5 183 l 1,19,-1
 395.5 353 l 1,20,-1
 225.5 522 l 1,21,-1
 277.5 574 l 1,22,-1
 446.5 403 l 1,23,-1
 617.5 574 l 1,12,-1
EndSplineSet
Validated: 524289
EndChar

StartChar: Y
Encoding: 89 89 65
Width: 893
Flags: W
LayerCount: 2
Fore
SplineSet
450 744 m 4,0,1
 470 744 470 744 485.5 730.5 c 132,-1,2
 501 717 501 717 501 688 c 4,3,4
 501 660 501 660 485.5 646 c 132,-1,5
 470 632 470 632 450 632 c 4,6,7
 428 632 428 632 413 646 c 132,-1,8
 398 660 398 660 398 688 c 4,9,10
 398 717 398 717 413 730.5 c 132,-1,11
 428 744 428 744 450 744 c 4,0,1
192 536 m 1,12,-1
 286 536 l 1,13,-1
 402 231 l 2,14,15
 412 204 412 204 420.5 179 c 128,-1,16
 429 154 429 154 436 130.5 c 128,-1,17
 443 107 443 107 447 85 c 1,18,-1
 451 85 l 1,19,20
 457 110 457 110 470 150.5 c 128,-1,21
 483 191 483 191 497 232 c 2,22,-1
 606 536 l 1,23,-1
 701 536 l 1,24,-1
 470 -74 l 2,25,26
 451 -124 451 -124 425.5 -161.5 c 128,-1,27
 400 -199 400 -199 363.5 -219.5 c 128,-1,28
 327 -240 327 -240 275 -240 c 0,29,30
 251 -240 251 -240 233 -237.5 c 128,-1,31
 215 -235 215 -235 202 -232 c 1,32,-1
 202 -162 l 1,33,34
 213 -164 213 -164 228.5 -166 c 128,-1,35
 244 -168 244 -168 261 -168 c 0,36,37
 292 -168 292 -168 314.5 -156.5 c 128,-1,38
 337 -145 337 -145 353 -123.5 c 128,-1,39
 369 -102 369 -102 380 -73 c 2,40,-1
 408 -2 l 1,41,-1
 192 536 l 1,12,-1
EndSplineSet
Validated: 1
EndChar

StartChar: Z
Encoding: 90 90 66
Width: 893
Flags: W
LayerCount: 2
Fore
SplineSet
235.5 0 m 1,0,-1
 235.5 56 l 1,1,-1
 538.5 499 l 1,2,-1
 246.5 499 l 1,3,-1
 246.5 572 l 1,4,-1
 649.5 572 l 1,5,-1
 649.5 515 l 1,6,-1
 346.5 73 l 1,7,-1
 657.5 73 l 1,8,-1
 657.5 0 l 1,9,-1
 235.5 0 l 1,0,-1
451.5 773 m 0,10,11
 471.5 773 471.5 773 487 759.5 c 128,-1,12
 502.5 746 502.5 746 502.5 717 c 0,13,14
 502.5 689 502.5 689 487 675 c 128,-1,15
 471.5 661 471.5 661 451.5 661 c 0,16,17
 429.5 661 429.5 661 414.5 675 c 128,-1,18
 399.5 689 399.5 689 399.5 717 c 0,19,20
 399.5 746 399.5 746 414.5 759.5 c 128,-1,21
 429.5 773 429.5 773 451.5 773 c 0,10,11
EndSplineSet
Validated: 524289
EndChar

StartChar: a
Encoding: 97 97 67
Width: 893
Flags: W
LayerCount: 2
Fore
SplineSet
471.5 545 m 0,0,1
 569.5 545 569.5 545 616.5 502 c 128,-1,2
 663.5 459 663.5 459 663.5 365 c 2,3,-1
 663.5 0 l 1,4,-1
 599.5 0 l 1,5,-1
 582.5 76 l 1,6,-1
 578.5 76 l 1,7,8
 555.5 47 555.5 47 531 27.5 c 128,-1,9
 506.5 8 506.5 8 475 -1 c 128,-1,10
 443.5 -10 443.5 -10 398.5 -10 c 0,11,12
 350.5 -10 350.5 -10 312 7 c 128,-1,13
 273.5 24 273.5 24 251.5 59.5 c 128,-1,14
 229.5 95 229.5 95 229.5 149 c 0,15,16
 229.5 229 229.5 229 292.5 272.5 c 128,-1,17
 355.5 316 355.5 316 486.5 320 c 2,18,-1
 577.5 323 l 1,19,-1
 577.5 355 l 2,20,21
 577.5 422 577.5 422 548.5 448 c 128,-1,22
 519.5 474 519.5 474 466.5 474 c 0,23,24
 424.5 474 424.5 474 386.5 461.5 c 128,-1,25
 348.5 449 348.5 449 315.5 433 c 1,26,-1
 288.5 499 l 1,27,28
 323.5 518 323.5 518 371.5 531.5 c 128,-1,29
 419.5 545 419.5 545 471.5 545 c 0,0,1
497.5 259 m 2,30,31
 397.5 255 397.5 255 359 227 c 128,-1,32
 320.5 199 320.5 199 320.5 148 c 0,33,34
 320.5 103 320.5 103 348 82 c 128,-1,35
 375.5 61 375.5 61 418.5 61 c 0,36,37
 486.5 61 486.5 61 531.5 98.5 c 128,-1,38
 576.5 136 576.5 136 576.5 214 c 2,39,-1
 576.5 262 l 1,40,-1
 497.5 259 l 2,30,31
EndSplineSet
Validated: 524289
EndChar

StartChar: b
Encoding: 98 98 68
Width: 893
Flags: W
AnchorPoint: "Anchor-2" 443.5 622 basechar 0
AnchorPoint: "Anchor-1" 569.5 0 basechar 0
LayerCount: 2
Fore
SplineSet
710.5 622 m 5,0,-1
 710.5 551 l 5,1,-1
 646.5 551 l 1,2,-1
 646.5 0 l 1,3,-1
 569.5 0 l 1,4,5
 539.5 60 539.5 60 487 110.5 c 128,-1,6
 434.5 161 434.5 161 366.5 196 c 128,-1,7
 298.5 231 298.5 231 221.5 243 c 1,8,-1
 182.5 339 l 1,9,10
 278.5 397 278.5 397 381 444 c 128,-1,11
 483.5 491 483.5 491 592.5 524 c 1,12,-1
 569.5 482 l 1,13,-1
 569.5 551 l 1,14,-1
 193.5 551 l 1,15,-1
 193.5 622 l 1,16,-1
 710.5 622 l 5,0,-1
569.5 474 m 1,17,-1
 590.5 446 l 1,18,19
 514.5 421 514.5 421 430.5 384.5 c 128,-1,20
 346.5 348 346.5 348 275.5 304 c 1,21,22
 329.5 292 329.5 292 390.5 263 c 128,-1,23
 451.5 234 451.5 234 503.5 190 c 128,-1,24
 555.5 146 555.5 146 583.5 88 c 1,25,-1
 574.5 88 l 1,26,27
 572.5 111 572.5 111 571 134 c 128,-1,28
 569.5 157 569.5 157 569.5 189 c 2,29,-1
 569.5 474 l 1,17,-1
EndSplineSet
Validated: 1572869
EndChar

StartChar: c
Encoding: 99 99 69
Width: 893
Flags: W
AnchorPoint: "Anchor-1" 446.5 536 basechar 0
AnchorPoint: "Anchor-0" 446.5 0 basechar 0
LayerCount: 2
Fore
SplineSet
502.5 -10 m 0,0,1
 384.5 -10 384.5 -10 319.5 57 c 128,-1,2
 254.5 124 254.5 124 254.5 245 c 0,3,4
 254.5 325 254.5 325 283.5 380.5 c 128,-1,5
 312.5 436 312.5 436 366.5 465 c 1,6,-1
 233.5 465 l 1,7,-1
 233.5 537 l 1,8,-1
 659.5 537 l 1,9,-1
 659.5 465 l 1,10,-1
 546.5 465 l 2,11,12
 452.5 465 452.5 465 399 411.5 c 128,-1,13
 345.5 358 345.5 358 345.5 252 c 0,14,15
 345.5 165 345.5 165 388.5 114.5 c 128,-1,16
 431.5 64 431.5 64 511.5 64 c 0,17,18
 548.5 64 548.5 64 582.5 73.5 c 128,-1,19
 616.5 83 616.5 83 648.5 99 c 1,20,-1
 648.5 21 l 1,21,22
 619.5 5 619.5 5 584.5 -2.5 c 128,-1,23
 549.5 -10 549.5 -10 502.5 -10 c 0,0,1
EndSplineSet
Validated: 1572865
EndChar

StartChar: d
Encoding: 100 100 70
Width: 893
Flags: W
AnchorPoint: "Anchor-2" 447.5 622 basechar 0
AnchorPoint: "Anchor-1" 525.5 0 basechar 0
AnchorPoint: "Anchor-0" 457.5 622 basechar 0
LayerCount: 2
Fore
SplineSet
772.5 622 m 1,0,-1
 772.5 551 l 1,1,-1
 447.5 551 l 1,2,-1
 447.5 372 l 2,3,4
 447.5 343 447.5 343 456.5 329.5 c 128,-1,5
 465.5 316 465.5 316 484.5 316 c 256,6,7
 503.5 316 503.5 316 524 328 c 128,-1,8
 544.5 340 544.5 340 568.5 366 c 128,-1,9
 592.5 392 592.5 392 620.5 433 c 1,10,-1
 680.5 442 l 1,11,12
 712.5 395 712.5 395 730 345 c 128,-1,13
 747.5 295 747.5 295 747.5 245 c 0,14,15
 747.5 182 747.5 182 720 132 c 128,-1,16
 692.5 82 692.5 82 639 53 c 128,-1,17
 585.5 24 585.5 24 508.5 24 c 0,18,19
 442.5 24 442.5 24 385.5 47 c 128,-1,20
 328.5 70 328.5 70 280.5 121.5 c 128,-1,21
 232.5 173 232.5 173 192.5 257.5 c 128,-1,22
 152.5 342 152.5 342 120.5 465 c 1,23,-1
 196.5 485 l 1,24,25
 232.5 346 232.5 346 276 261.5 c 128,-1,26
 319.5 177 319.5 177 375.5 138.5 c 128,-1,27
 431.5 100 431.5 100 504.5 100 c 0,28,29
 584.5 100 584.5 100 628 140 c 128,-1,30
 671.5 180 671.5 180 671.5 243 c 0,31,32
 671.5 288 671.5 288 659 320 c 128,-1,33
 646.5 352 646.5 352 626.5 373 c 1,34,-1
 672.5 392 l 1,35,36
 642.5 341 642.5 341 611 308 c 128,-1,37
 579.5 275 579.5 275 548 258.5 c 128,-1,38
 516.5 242 516.5 242 485.5 242 c 0,39,40
 462.5 242 462.5 242 442.5 248.5 c 128,-1,41
 422.5 255 422.5 255 408.5 268 c 0,42,43
 392.5 282 392.5 282 381.5 307.5 c 128,-1,44
 370.5 333 370.5 333 370.5 393 c 2,45,-1
 370.5 551 l 1,46,-1
 125.5 551 l 5,47,-1
 125.5 622 l 5,48,-1
 772.5 622 l 1,0,-1
EndSplineSet
Validated: 524293
EndChar

StartChar: e
Encoding: 101 101 71
Width: 893
Flags: W
LayerCount: 2
Fore
SplineSet
454.5 546 m 0,0,1
 523.5 546 523.5 546 573 516 c 128,-1,2
 622.5 486 622.5 486 649 431.5 c 128,-1,3
 675.5 377 675.5 377 675.5 304 c 2,4,-1
 675.5 251 l 1,5,-1
 308.5 251 l 1,6,7
 310.5 160 310.5 160 355 112.5 c 128,-1,8
 399.5 65 399.5 65 479.5 65 c 0,9,10
 530.5 65 530.5 65 570 74.5 c 128,-1,11
 609.5 84 609.5 84 651.5 102 c 1,12,-1
 651.5 25 l 1,13,14
 610.5 7 610.5 7 570.5 -1.5 c 128,-1,15
 530.5 -10 530.5 -10 475.5 -10 c 0,16,17
 399.5 -10 399.5 -10 341 21 c 128,-1,18
 282.5 52 282.5 52 250 113.5 c 128,-1,19
 217.5 175 217.5 175 217.5 264 c 0,20,21
 217.5 352 217.5 352 247 415 c 128,-1,22
 276.5 478 276.5 478 330 512 c 128,-1,23
 383.5 546 383.5 546 454.5 546 c 0,0,1
453.5 474 m 0,24,25
 390.5 474 390.5 474 354 433.5 c 128,-1,26
 317.5 393 317.5 393 310.5 321 c 1,27,-1
 583.5 321 l 1,28,29
 583.5 367 583.5 367 569.5 401 c 128,-1,30
 555.5 435 555.5 435 527 454.5 c 128,-1,31
 498.5 474 498.5 474 453.5 474 c 0,24,25
EndSplineSet
Validated: 524289
EndChar

StartChar: f
Encoding: 102 102 72
Width: 893
Flags: W
AnchorPoint: "Anchor-2" 463.5 622 basechar 0
AnchorPoint: "Anchor-1" 489.5 0 basechar 0
AnchorPoint: "Anchor-0" 489.5 622 basechar 0
LayerCount: 2
Fore
SplineSet
806.5 622 m 1,0,-1
 806.5 551 l 1,1,-1
 174.5 551 l 1,2,-1
 158.5 560 l 1,3,4
 200.5 550 200.5 550 243 528 c 128,-1,5
 285.5 506 285.5 506 322 480.5 c 128,-1,6
 358.5 455 358.5 455 380.5 432 c 1,7,-1
 385.5 376 l 1,8,9
 349.5 360 349.5 360 310 341 c 128,-1,10
 270.5 322 270.5 322 234 303 c 128,-1,11
 197.5 284 197.5 284 169.5 265 c 1,12,-1
 158.5 282 l 1,13,14
 236.5 266 236.5 266 295.5 241 c 128,-1,15
 354.5 216 354.5 216 401.5 181 c 128,-1,16
 448.5 146 448.5 146 491.5 99 c 1,17,18
 490.5 116 490.5 116 490 134 c 128,-1,19
 489.5 152 489.5 152 489.5 171 c 2,20,-1
 489.5 510 l 1,21,-1
 502.5 510 l 2,22,23
 557.5 510 557.5 510 609 501 c 128,-1,24
 660.5 492 660.5 492 705 471 c 128,-1,25
 749.5 450 749.5 450 783.5 414 c 0,26,27
 807.5 389 807.5 389 822 357.5 c 128,-1,28
 836.5 326 836.5 326 836.5 288 c 0,29,30
 836.5 255 836.5 255 823 225.5 c 128,-1,31
 809.5 196 809.5 196 779.5 177 c 128,-1,32
 749.5 158 749.5 158 699.5 158 c 0,33,34
 684.5 158 684.5 158 670 159 c 128,-1,35
 655.5 160 655.5 160 641.5 163 c 1,36,-1
 646.5 234 l 1,37,38
 652.5 233 652.5 233 661.5 232.5 c 128,-1,39
 670.5 232 670.5 232 680.5 232 c 0,40,41
 729.5 232 729.5 232 744 251 c 128,-1,42
 758.5 270 758.5 270 758.5 296 c 0,43,44
 758.5 347 758.5 347 707 386 c 128,-1,45
 655.5 425 655.5 425 566.5 434 c 1,46,-1
 566.5 0 l 1,47,-1
 489.5 0 l 1,48,49
 448.5 56 448.5 56 399 98 c 128,-1,50
 349.5 140 349.5 140 284 168.5 c 128,-1,51
 218.5 197 218.5 197 128.5 212 c 1,52,-1
 92.5 303 l 1,53,54
 123.5 324 123.5 324 157.5 343 c 128,-1,55
 191.5 362 191.5 362 227 380 c 128,-1,56
 262.5 398 262.5 398 296.5 414 c 1,57,58
 258.5 443 258.5 443 209 465.5 c 128,-1,59
 159.5 488 159.5 488 92.5 502 c 1,60,-1
 123.5 570 l 1,61,-1
 125.5 551 l 1,62,-1
 56.5 551 l 5,63,-1
 56.5 622 l 5,64,-1
 806.5 622 l 1,0,-1
EndSplineSet
Validated: 524293
EndChar

StartChar: g
Encoding: 103 103 73
Width: 893
Flags: W
LayerCount: 2
Fore
SplineSet
429 546 m 0,0,1
 482 546 482 546 524.5 526 c 128,-1,2
 567 506 567 506 597 465 c 1,3,-1
 602 465 l 1,4,-1
 614 536 l 1,5,-1
 684 536 l 1,6,-1
 684 -9 l 2,7,8
 684 -85 684 -85 658 -136.5 c 128,-1,9
 632 -188 632 -188 579 -214 c 128,-1,10
 526 -240 526 -240 444 -240 c 0,11,12
 386 -240 386 -240 337.5 -231.5 c 128,-1,13
 289 -223 289 -223 251 -206 c 1,14,-1
 251 -125 l 1,15,16
 289 -145 289 -145 340 -156 c 128,-1,17
 391 -167 391 -167 449 -167 c 0,18,19
 518 -167 518 -167 557.5 -126.5 c 128,-1,20
 597 -86 597 -86 597 -16 c 2,21,-1
 597 5 l 2,22,23
 597 17 597 17 598 39.5 c 128,-1,24
 599 62 599 62 600 71 c 1,25,-1
 596 71 l 1,26,27
 568 30 568 30 526.5 10 c 128,-1,28
 485 -10 485 -10 430 -10 c 0,29,30
 326 -10 326 -10 267.5 63 c 128,-1,31
 209 136 209 136 209 267 c 0,32,33
 209 395 209 395 267.5 470.5 c 128,-1,34
 326 546 326 546 429 546 c 0,0,1
441 472 m 0,35,36
 374 472 374 472 337 418.5 c 128,-1,37
 300 365 300 365 300 266 c 256,38,39
 300 167 300 167 336.5 114.5 c 128,-1,40
 373 62 373 62 443 62 c 0,41,42
 484 62 484 62 513 72.5 c 128,-1,43
 542 83 542 83 561 105.5 c 128,-1,44
 580 128 580 128 589 163 c 128,-1,45
 598 198 598 198 598 246 c 2,46,-1
 598 267 l 2,47,48
 598 340 598 340 581.5 385 c 128,-1,49
 565 430 565 430 530 451 c 128,-1,50
 495 472 495 472 441 472 c 0,35,36
EndSplineSet
Validated: 1
EndChar

StartChar: h
Encoding: 104 104 74
Width: 893
Flags: W
LayerCount: 2
Fore
SplineSet
308.5 537 m 2,0,1
 308.5 518 308.5 518 307 498 c 128,-1,2
 305.5 478 305.5 478 303.5 462 c 1,3,-1
 309.5 462 l 1,4,5
 326.5 490 326.5 490 352.5 508 c 128,-1,6
 378.5 526 378.5 526 410.5 535.5 c 128,-1,7
 442.5 545 442.5 545 476.5 545 c 0,8,9
 541.5 545 541.5 545 585 524.5 c 128,-1,10
 628.5 504 628.5 504 650.5 461 c 128,-1,11
 672.5 418 672.5 418 672.5 349 c 2,12,-1
 672.5 0 l 1,13,-1
 585.5 0 l 1,14,-1
 585.5 343 l 2,15,16
 585.5 408 585.5 408 556.5 440 c 128,-1,17
 527.5 472 527.5 472 465.5 472 c 0,18,19
 375.5 472 375.5 472 342 421.5 c 128,-1,20
 308.5 371 308.5 371 308.5 277 c 2,21,-1
 308.5 0 l 1,22,-1
 220.5 0 l 1,23,-1
 220.5 760 l 1,24,-1
 308.5 760 l 1,25,-1
 308.5 537 l 2,0,1
EndSplineSet
Validated: 524289
EndChar

StartChar: i
Encoding: 105 105 75
Width: 893
Flags: W
LayerCount: 2
Fore
SplineSet
490 536 m 1,0,-1
 490 0 l 1,1,-1
 402 0 l 1,2,-1
 402 536 l 1,3,-1
 490 536 l 1,0,-1
447 737 m 0,4,5
 467 737 467 737 482.5 723.5 c 128,-1,6
 498 710 498 710 498 681 c 0,7,8
 498 653 498 653 482.5 639 c 128,-1,9
 467 625 467 625 447 625 c 0,10,11
 425 625 425 625 410 639 c 128,-1,12
 395 653 395 653 395 681 c 0,13,14
 395 710 395 710 410 723.5 c 128,-1,15
 425 737 425 737 447 737 c 0,4,5
EndSplineSet
Validated: 513
Substitution2: "Single Substitution lookup 63 subtable" dotlessi
Substitution2: "Single Substitution lookup 62 subtable" dotlessi
EndChar

StartChar: j
Encoding: 106 106 76
Width: 893
Flags: W
AnchorPoint: "Anchor-1" 446.5 536 basechar 0
AnchorPoint: "Anchor-0" 446.5 0 basechar 0
LayerCount: 2
Fore
SplineSet
635.5 536 m 1,0,-1
 635.5 470 l 1,1,-1
 524.5 313 l 1,2,-1
 625.5 313 l 1,3,-1
 625.5 243 l 1,4,-1
 474.5 243 l 1,5,-1
 351.5 68 l 1,6,-1
 642.5 68 l 1,7,-1
 642.5 0 l 1,8,-1
 250.5 0 l 1,9,-1
 250.5 58 l 1,10,-1
 380.5 243 l 1,11,-1
 268.5 243 l 1,12,-1
 268.5 313 l 1,13,-1
 429.5 313 l 1,14,-1
 538.5 468 l 1,15,-1
 267.5 468 l 1,16,-1
 267.5 536 l 1,17,-1
 635.5 536 l 1,0,-1
EndSplineSet
Validated: 1573377
Substitution2: "Single Substitution lookup 63 subtable" uni0237
Substitution2: "Single Substitution lookup 62 subtable" uni0237
EndChar

StartChar: k
Encoding: 107 107 77
Width: 893
Flags: W
LayerCount: 2
Fore
SplineSet
313.5 363 m 2,0,1
 313.5 347 313.5 347 312 321 c 128,-1,2
 310.5 295 310.5 295 309.5 276 c 1,3,-1
 313.5 276 l 1,4,5
 319.5 284 319.5 284 331.5 299 c 128,-1,6
 343.5 314 343.5 314 356 329.5 c 128,-1,7
 368.5 345 368.5 345 377.5 355 c 2,8,-1
 548.5 536 l 1,9,-1
 651.5 536 l 1,10,-1
 434.5 307 l 1,11,-1
 666.5 0 l 1,12,-1
 560.5 0 l 1,13,-1
 374.5 250 l 1,14,-1
 313.5 197 l 1,15,-1
 313.5 0 l 1,16,-1
 226.5 0 l 1,17,-1
 226.5 760 l 1,18,-1
 313.5 760 l 1,19,-1
 313.5 363 l 2,0,1
EndSplineSet
Validated: 524289
EndChar

StartChar: l
Encoding: 108 108 78
Width: 893
Flags: W
AnchorPoint: "Anchor-2" 435.5 622 basechar 0
AnchorPoint: "Anchor-1" 629.5 0 basechar 0
LayerCount: 2
Fore
SplineSet
777.5 622 m 5,0,-1
 777.5 551 l 5,1,-1
 706.5 551 l 1,2,-1
 706.5 0 l 1,3,-1
 629.5 0 l 1,4,-1
 629.5 335 l 1,5,-1
 635.5 309 l 1,6,7
 613.5 341 613.5 341 589 360 c 128,-1,8
 564.5 379 564.5 379 535.5 379 c 0,9,10
 520.5 379 520.5 379 505 373.5 c 128,-1,11
 489.5 368 489.5 368 479 353 c 128,-1,12
 468.5 338 468.5 338 468.5 307 c 0,13,14
 468.5 296 468.5 296 469 287.5 c 128,-1,15
 469.5 279 469.5 279 470.5 271 c 1,16,-1
 405.5 266 l 1,17,18
 401.5 307 401.5 307 383.5 335.5 c 128,-1,19
 365.5 364 365.5 364 339.5 379 c 128,-1,20
 313.5 394 313.5 394 283.5 394 c 0,21,22
 256.5 394 256.5 394 237.5 383.5 c 128,-1,23
 218.5 373 218.5 373 208.5 355.5 c 128,-1,24
 198.5 338 198.5 338 198.5 316 c 0,25,26
 198.5 276 198.5 276 228 248 c 128,-1,27
 257.5 220 257.5 220 311.5 201 c 1,28,-1
 284.5 127 l 1,29,30
 236.5 142 236.5 142 198.5 168 c 128,-1,31
 160.5 194 160.5 194 138.5 232 c 128,-1,32
 116.5 270 116.5 270 116.5 320 c 0,33,34
 116.5 365 116.5 365 138.5 397.5 c 128,-1,35
 160.5 430 160.5 430 197.5 448 c 128,-1,36
 234.5 466 234.5 466 278.5 466 c 0,37,38
 331.5 466 331.5 466 369.5 446.5 c 128,-1,39
 407.5 427 407.5 427 439.5 384 c 1,40,-1
 424.5 383 l 1,41,42
 434.5 416 434.5 416 463 433.5 c 128,-1,43
 491.5 451 491.5 451 522.5 451 c 0,44,45
 558.5 451 558.5 451 584.5 437 c 128,-1,46
 610.5 423 610.5 423 641.5 397 c 1,47,-1
 632.5 382 l 1,48,49
 631.5 403 631.5 403 630.5 424 c 128,-1,50
 629.5 445 629.5 445 629.5 467 c 2,51,-1
 629.5 551 l 1,52,-1
 115.5 551 l 1,53,-1
 115.5 622 l 1,54,-1
 777.5 622 l 5,0,-1
EndSplineSet
Validated: 1572869
EndChar

StartChar: m
Encoding: 109 109 79
Width: 893
Flags: W
AnchorPoint: "Anchor-2" 445.5 622 basechar 0
AnchorPoint: "Anchor-1" 584.5 0 basechar 0
LayerCount: 2
Fore
SplineSet
748.5 622 m 1,0,-1
 748.5 551 l 1,1,-1
 661.5 551 l 1,2,-1
 661.5 0 l 1,3,-1
 584.5 0 l 1,4,-1
 584.5 135 l 1,5,-1
 602.5 82 l 1,6,7
 567.5 135 567.5 135 532 180 c 128,-1,8
 496.5 225 496.5 225 457 253 c 128,-1,9
 417.5 281 417.5 281 370.5 281 c 0,10,11
 333.5 281 333.5 281 308 262 c 128,-1,12
 282.5 243 282.5 243 282.5 205 c 0,13,14
 282.5 172 282.5 172 306.5 149.5 c 128,-1,15
 330.5 127 330.5 127 377.5 111 c 1,16,-1
 352.5 34 l 1,17,18
 298.5 53 298.5 53 265 80 c 128,-1,19
 231.5 107 231.5 107 216 139.5 c 128,-1,20
 200.5 172 200.5 172 200.5 208 c 0,21,22
 200.5 256 200.5 256 224 288 c 128,-1,23
 247.5 320 247.5 320 284 336.5 c 128,-1,24
 320.5 353 320.5 353 357.5 353 c 0,25,26
 417.5 353 417.5 353 463 331 c 128,-1,27
 508.5 309 508.5 309 543 272 c 128,-1,28
 577.5 235 577.5 235 605.5 189 c 1,29,-1
 588.5 186 l 1,30,31
 586.5 209 586.5 209 585.5 232.5 c 128,-1,32
 584.5 256 584.5 256 584.5 281 c 2,33,-1
 584.5 551 l 1,34,-1
 144.5 551 l 5,35,-1
 144.5 622 l 5,36,-1
 748.5 622 l 1,0,-1
433.5 323 m 0,37,38
 433.5 317 433.5 317 433 311 c 128,-1,39
 432.5 305 432.5 305 431.5 299 c 1,40,-1
 355.5 322 l 1,41,42
 353.5 380 353.5 380 335.5 415 c 128,-1,43
 317.5 450 317.5 450 278.5 468.5 c 128,-1,44
 239.5 487 239.5 487 172.5 494 c 1,45,-1
 185.5 566 l 1,46,-1
 231.5 553 l 1,47,48
 279.5 549 279.5 549 317 533.5 c 128,-1,49
 354.5 518 354.5 518 380.5 490 c 128,-1,50
 406.5 462 406.5 462 420 420.5 c 128,-1,51
 433.5 379 433.5 379 433.5 323 c 0,37,38
EndSplineSet
Validated: 1572869
EndChar

StartChar: n
Encoding: 110 110 80
Width: 893
Flags: W
AnchorPoint: "Anchor-2" 437.5 622 basechar 0
AnchorPoint: "Anchor-1" 567.5 0 basechar 0
LayerCount: 2
Fore
SplineSet
711.5 622 m 5,0,-1
 711.5 551 l 5,1,-1
 644.5 551 l 1,2,-1
 644.5 0 l 1,3,-1
 567.5 0 l 1,4,-1
 567.5 243 l 1,5,-1
 583.5 187 l 1,6,7
 550.5 233 550.5 233 511.5 270 c 128,-1,8
 472.5 307 472.5 307 431.5 329 c 128,-1,9
 390.5 351 390.5 351 351.5 351 c 0,10,11
 314.5 351 314.5 351 289 331.5 c 128,-1,12
 263.5 312 263.5 312 263.5 274 c 0,13,14
 263.5 244 263.5 244 284.5 222.5 c 128,-1,15
 305.5 201 305.5 201 349.5 184 c 1,16,-1
 311.5 113 l 1,17,18
 250.5 138 250.5 138 216 180.5 c 128,-1,19
 181.5 223 181.5 223 181.5 277 c 0,20,21
 181.5 326 181.5 326 205 358.5 c 128,-1,22
 228.5 391 228.5 391 265 407 c 128,-1,23
 301.5 423 301.5 423 339.5 423 c 0,24,25
 391.5 423 391.5 423 434.5 405 c 128,-1,26
 477.5 387 477.5 387 515 356 c 128,-1,27
 552.5 325 552.5 325 586.5 284 c 1,28,-1
 572.5 280 l 1,29,30
 569.5 303 569.5 303 568.5 325.5 c 128,-1,31
 567.5 348 567.5 348 567.5 371 c 2,32,-1
 567.5 551 l 1,33,-1
 206.5 551 l 1,34,-1
 206.5 622 l 1,35,-1
 711.5 622 l 5,0,-1
EndSplineSet
Validated: 1572869
EndChar

StartChar: o
Encoding: 111 111 81
Width: 893
Flags: W
LayerCount: 2
Fore
SplineSet
694.5 269 m 256,0,1
 694.5 180 694.5 180 664 117.5 c 128,-1,2
 633.5 55 633.5 55 577.5 22.5 c 128,-1,3
 521.5 -10 521.5 -10 444.5 -10 c 0,4,5
 373.5 -10 373.5 -10 318 22.5 c 128,-1,6
 262.5 55 262.5 55 230.5 117.5 c 128,-1,7
 198.5 180 198.5 180 198.5 269 c 0,8,9
 198.5 402 198.5 402 265.5 474 c 128,-1,10
 332.5 546 332.5 546 447.5 546 c 0,11,12
 520.5 546 520.5 546 576 513.5 c 128,-1,13
 631.5 481 631.5 481 663 419.5 c 128,-1,14
 694.5 358 694.5 358 694.5 269 c 256,0,1
289.5 269 m 0,15,16
 289.5 206 289.5 206 306 159.5 c 128,-1,17
 322.5 113 322.5 113 357.5 88 c 128,-1,18
 392.5 63 392.5 63 446.5 63 c 256,19,20
 500.5 63 500.5 63 535.5 88 c 128,-1,21
 570.5 113 570.5 113 587 159.5 c 128,-1,22
 603.5 206 603.5 206 603.5 269 c 0,23,24
 603.5 333 603.5 333 586.5 378 c 128,-1,25
 569.5 423 569.5 423 535 447.5 c 128,-1,26
 500.5 472 500.5 472 445.5 472 c 0,27,28
 363.5 472 363.5 472 326.5 418 c 128,-1,29
 289.5 364 289.5 364 289.5 269 c 0,15,16
EndSplineSet
Validated: 524289
EndChar

StartChar: p
Encoding: 112 112 82
Width: 893
Flags: W
AnchorPoint: "Anchor-2" 430.5 622 basechar 0
AnchorPoint: "Anchor-1" 616.5 0 basechar 0
AnchorPoint: "Anchor-0" 555.5 622 basechar 0
LayerCount: 2
Fore
SplineSet
798.5 622 m 1,0,-1
 798.5 551 l 1,1,-1
 693.5 551 l 1,2,-1
 693.5 0 l 1,3,-1
 616.5 0 l 1,4,-1
 616.5 396 l 1,5,-1
 638.5 332 l 1,6,7
 597.5 392 597.5 392 563.5 434.5 c 128,-1,8
 529.5 477 529.5 477 499 504 c 128,-1,9
 468.5 531 468.5 531 437.5 543.5 c 128,-1,10
 406.5 556 406.5 556 370.5 556 c 0,11,12
 330.5 556 330.5 556 298 541 c 128,-1,13
 265.5 526 265.5 526 238.5 501 c 128,-1,14
 211.5 476 211.5 476 188.5 447 c 1,15,-1
 180.5 445 l 1,16,17
 196.5 455 196.5 455 212 460 c 128,-1,18
 227.5 465 227.5 465 246.5 465 c 0,19,20
 304.5 465 304.5 465 331.5 433.5 c 128,-1,21
 358.5 402 358.5 402 358.5 356 c 0,22,23
 358.5 345 358.5 345 357.5 335 c 128,-1,24
 356.5 325 356.5 325 354.5 320 c 1,25,-1
 337.5 326 l 1,26,27
 349.5 339 349.5 339 360.5 351 c 128,-1,28
 371.5 363 371.5 363 384 375 c 128,-1,29
 396.5 387 396.5 387 409.5 400 c 2,30,-1
 533.5 516 l 1,31,-1
 582.5 463 l 1,32,-1
 298.5 195 l 1,33,-1
 239.5 250 l 1,34,-1
 321.5 328 l 1,35,-1
 285.5 285 l 1,36,-1
 255.5 262 l 1,37,38
 270.5 279 270.5 279 281 298.5 c 128,-1,39
 291.5 318 291.5 318 291.5 343 c 256,40,41
 291.5 368 291.5 368 276.5 383 c 128,-1,42
 261.5 398 261.5 398 232.5 398 c 0,43,44
 216.5 398 216.5 398 201.5 394 c 128,-1,45
 186.5 390 186.5 390 170.5 380 c 1,46,-1
 94.5 452 l 1,47,48
 134.5 505 134.5 505 176.5 544.5 c 128,-1,49
 218.5 584 218.5 584 264.5 606.5 c 128,-1,50
 310.5 629 310.5 629 363.5 629 c 0,51,52
 419.5 629 419.5 629 464.5 608 c 128,-1,53
 509.5 587 509.5 587 551.5 545.5 c 128,-1,54
 593.5 504 593.5 504 639.5 441 c 1,55,-1
 621.5 446 l 1,56,57
 618.5 470 618.5 470 617.5 498 c 128,-1,58
 616.5 526 616.5 526 616.5 558 c 2,59,-1
 616.5 688 l 1,60,-1
 669.5 688 l 1,61,-1
 692.5 622 l 1,62,-1
 798.5 622 l 1,0,-1
EndSplineSet
Validated: 524293
EndChar

StartChar: q
Encoding: 113 113 83
Width: 893
Flags: W
AnchorPoint: "Anchor-1" 408.5 765 basechar 0
AnchorPoint: "Anchor-0" 408.5 0 basechar 0
LayerCount: 2
Fore
SplineSet
347.5 765 m 0,0,1
 366.5 765 366.5 765 384.5 761 c 128,-1,2
 402.5 757 402.5 757 412.5 752 c 1,3,-1
 412.5 679 l 1,4,5
 405.5 682 405.5 682 391.5 685.5 c 128,-1,6
 377.5 689 377.5 689 360.5 689 c 0,7,8
 338.5 689 338.5 689 326 676 c 128,-1,9
 313.5 663 313.5 663 313.5 631 c 2,10,-1
 313.5 363 l 2,11,12
 313.5 347 313.5 347 312.5 321 c 128,-1,13
 311.5 295 311.5 295 309.5 276 c 1,14,-1
 313.5 276 l 1,15,16
 319.5 285 319.5 285 331.5 299.5 c 128,-1,17
 343.5 314 343.5 314 356 329.5 c 128,-1,18
 368.5 345 368.5 345 377.5 355 c 2,19,-1
 548.5 536 l 1,20,-1
 651.5 536 l 1,21,-1
 434.5 307 l 1,22,-1
 666.5 0 l 1,23,-1
 560.5 0 l 1,24,-1
 374.5 250 l 1,25,-1
 313.5 197 l 1,26,-1
 313.5 0 l 1,27,-1
 226.5 0 l 1,28,-1
 226.5 625 l 2,29,30
 226.5 765 226.5 765 347.5 765 c 0,0,1
EndSplineSet
Validated: 1572865
EndChar

StartChar: r
Encoding: 114 114 84
Width: 893
Flags: W
AnchorPoint: "Anchor-2" 440.5 622 basechar 0
AnchorPoint: "Anchor-1" 566.5 0 basechar 0
LayerCount: 2
Fore
SplineSet
327.5 -6 m 256,0,1
 302.5 -6 302.5 -6 285 10 c 128,-1,2
 267.5 26 267.5 26 267.5 52 c 256,3,4
 267.5 78 267.5 78 285 95 c 128,-1,5
 302.5 112 302.5 112 327.5 112 c 256,6,7
 352.5 112 352.5 112 370 95 c 128,-1,8
 387.5 78 387.5 78 387.5 52 c 256,9,10
 387.5 26 387.5 26 370 10 c 128,-1,11
 352.5 -6 352.5 -6 327.5 -6 c 256,0,1
713.5 622 m 1,12,-1
 713.5 551 l 1,13,-1
 643.5 551 l 1,14,-1
 643.5 0 l 1,15,-1
 566.5 0 l 1,16,17
 536.5 60 536.5 60 484 110.5 c 128,-1,18
 431.5 161 431.5 161 363.5 196 c 128,-1,19
 295.5 231 295.5 231 218.5 243 c 1,20,-1
 179.5 339 l 1,21,22
 275.5 397 275.5 397 378 444 c 128,-1,23
 480.5 491 480.5 491 589.5 524 c 1,24,-1
 566.5 482 l 1,25,-1
 566.5 551 l 1,26,-1
 182.5 551 l 1,27,-1
 182.5 622 l 1,28,-1
 713.5 622 l 1,12,-1
566.5 474 m 1,29,-1
 587.5 446 l 1,30,31
 511.5 421 511.5 421 427.5 384.5 c 128,-1,32
 343.5 348 343.5 348 272.5 304 c 1,33,34
 326.5 292 326.5 292 387.5 263 c 128,-1,35
 448.5 234 448.5 234 500.5 190 c 128,-1,36
 552.5 146 552.5 146 580.5 88 c 1,37,-1
 571.5 88 l 1,38,39
 569.5 111 569.5 111 568 134 c 128,-1,40
 566.5 157 566.5 157 566.5 189 c 2,41,-1
 566.5 474 l 1,29,-1
EndSplineSet
Validated: 1572869
EndChar

StartChar: s
Encoding: 115 115 85
Width: 893
Flags: W
AnchorPoint: "Anchor-2" 456.5 622 basechar 0
AnchorPoint: "Anchor-1" 625.5 0 basechar 0
LayerCount: 2
Fore
SplineSet
773.5 622 m 1,0,-1
 773.5 551 l 1,1,-1
 702.5 551 l 1,2,-1
 702.5 0 l 1,3,-1
 625.5 0 l 1,4,-1
 625.5 353 l 1,5,-1
 648.5 290 l 1,6,7
 617.5 331 617.5 331 595 353 c 128,-1,8
 572.5 375 572.5 375 551.5 375 c 0,9,10
 537.5 375 537.5 375 525.5 367 c 128,-1,11
 513.5 359 513.5 359 498.5 336.5 c 128,-1,12
 483.5 314 483.5 314 458.5 268 c 0,13,14
 431.5 219 431.5 219 409.5 187.5 c 128,-1,15
 387.5 156 387.5 156 363 141.5 c 128,-1,16
 338.5 127 338.5 127 303.5 127 c 0,17,18
 276.5 127 276.5 127 252 138 c 128,-1,19
 227.5 149 227.5 149 203 174.5 c 128,-1,20
 178.5 200 178.5 200 150.5 244 c 1,21,-1
 211.5 281 l 1,22,23
 238.5 233 238.5 233 256.5 218 c 128,-1,24
 274.5 203 274.5 203 295.5 203 c 0,25,26
 312.5 203 312.5 203 328 213.5 c 128,-1,27
 343.5 224 343.5 224 362 250 c 128,-1,28
 380.5 276 380.5 276 404.5 321 c 1,29,-1
 427.5 354 l 1,30,31
 453.5 408 453.5 408 477.5 428.5 c 128,-1,32
 501.5 449 501.5 449 530.5 449 c 0,33,34
 563.5 449 563.5 449 590 430.5 c 128,-1,35
 616.5 412 616.5 412 651.5 374 c 1,36,-1
 631.5 373 l 1,37,38
 627.5 396 627.5 396 626.5 416.5 c 128,-1,39
 625.5 437 625.5 437 625.5 458 c 2,40,-1
 625.5 551 l 1,41,-1
 119.5 551 l 5,42,-1
 119.5 622 l 5,43,-1
 773.5 622 l 1,0,-1
386.5 271 m 1,44,45
 376.5 339 376.5 339 366 379 c 128,-1,46
 355.5 419 355.5 419 329.5 441 c 0,47,48
 304.5 464 304.5 464 261.5 475.5 c 128,-1,49
 218.5 487 218.5 487 153.5 495 c 1,50,-1
 168.5 571 l 1,51,-1
 222.5 551 l 1,52,53
 279.5 542 279.5 542 317.5 528 c 128,-1,54
 355.5 514 355.5 514 379 491.5 c 128,-1,55
 402.5 469 402.5 469 414.5 436 c 128,-1,56
 426.5 403 426.5 403 430.5 356 c 1,57,-1
 386.5 271 l 1,44,45
EndSplineSet
Validated: 1572869
EndChar

StartChar: t
Encoding: 116 116 86
Width: 893
Flags: W
AnchorPoint: "Anchor-2" 449.5 622 basechar 0
AnchorPoint: "Anchor-1" 478.5 0 basechar 0
LayerCount: 2
Fore
SplineSet
720.5 622 m 1,0,-1
 720.5 551 l 1,1,-1
 338.5 551 l 1,2,-1
 338.5 205 l 2,3,4
 338.5 161 338.5 161 343.5 143 c 128,-1,5
 348.5 125 348.5 125 355.5 117 c 0,6,7
 373.5 96 373.5 96 410.5 96 c 0,8,9
 449.5 96 449.5 96 484.5 115 c 128,-1,10
 519.5 134 519.5 134 545.5 162 c 0,11,12
 574.5 193 574.5 193 590 228 c 128,-1,13
 605.5 263 605.5 263 605.5 299 c 0,14,15
 605.5 331 605.5 331 589.5 347.5 c 128,-1,16
 573.5 364 573.5 364 536.5 364 c 0,17,18
 524.5 364 524.5 364 510.5 362 c 128,-1,19
 496.5 360 496.5 360 483.5 357 c 1,20,-1
 472.5 428 l 1,21,22
 491.5 433 491.5 433 512 436 c 128,-1,23
 532.5 439 532.5 439 555.5 439 c 0,24,25
 592.5 439 592.5 439 621.5 425 c 128,-1,26
 650.5 411 650.5 411 667 381 c 128,-1,27
 683.5 351 683.5 351 683.5 303 c 0,28,29
 683.5 244 683.5 244 654.5 188.5 c 128,-1,30
 625.5 133 625.5 133 581.5 95 c 0,31,32
 544.5 63 544.5 63 501 43.5 c 128,-1,33
 457.5 24 457.5 24 405.5 24 c 0,34,35
 368.5 24 368.5 24 342 35 c 0,36,37
 311.5 48 311.5 48 298.5 63 c 0,38,39
 282.5 82 282.5 82 272 109 c 128,-1,40
 261.5 136 261.5 136 261.5 191 c 2,41,-1
 261.5 551 l 1,42,-1
 177.5 551 l 5,43,-1
 177.5 622 l 5,44,-1
 720.5 622 l 1,0,-1
561.5 622 m 1,45,46
 560.5 663 560.5 663 542 681 c 128,-1,47
 523.5 699 523.5 699 481.5 699 c 2,48,-1
 387.5 699 l 2,49,50
 322.5 699 322.5 699 287 708 c 128,-1,51
 251.5 717 251.5 717 226.5 736 c 0,52,53
 199.5 756 199.5 756 186 787.5 c 128,-1,54
 172.5 819 172.5 819 172.5 859 c 0,55,56
 172.5 872 172.5 872 174 884.5 c 128,-1,57
 175.5 897 175.5 897 177.5 912 c 1,58,-1
 251.5 907 l 1,59,60
 249.5 896 249.5 896 248.5 887.5 c 128,-1,61
 247.5 879 247.5 879 247.5 869 c 0,62,63
 247.5 847 247.5 847 252 830 c 128,-1,64
 256.5 813 256.5 813 266.5 802 c 0,65,66
 280.5 786 280.5 786 307 778.5 c 128,-1,67
 333.5 771 333.5 771 382.5 771 c 2,68,-1
 460.5 771 l 2,69,70
 513.5 771 513.5 771 544.5 763 c 128,-1,71
 575.5 755 575.5 755 597.5 734 c 0,72,73
 614.5 718 614.5 718 623.5 690.5 c 128,-1,74
 632.5 663 632.5 663 633.5 622 c 1,75,-1
 561.5 622 l 1,45,46
EndSplineSet
Validated: 1572869
EndChar

StartChar: u
Encoding: 117 117 87
Width: 893
Flags: W
LayerCount: 2
Fore
SplineSet
673.5 536 m 1,0,-1
 673.5 0 l 1,1,-1
 601.5 0 l 1,2,-1
 588.5 71 l 1,3,-1
 584.5 71 l 1,4,5
 567.5 43 567.5 43 540.5 25 c 128,-1,6
 513.5 7 513.5 7 481.5 -1.5 c 128,-1,7
 449.5 -10 449.5 -10 414.5 -10 c 0,8,9
 350.5 -10 350.5 -10 307 10.5 c 128,-1,10
 263.5 31 263.5 31 241.5 74 c 128,-1,11
 219.5 117 219.5 117 219.5 185 c 2,12,-1
 219.5 536 l 1,13,-1
 308.5 536 l 1,14,-1
 308.5 191 l 2,15,16
 308.5 127 308.5 127 337.5 95 c 128,-1,17
 366.5 63 366.5 63 427.5 63 c 0,18,19
 516.5 63 516.5 63 551 113 c 128,-1,20
 585.5 163 585.5 163 585.5 257 c 2,21,-1
 585.5 536 l 1,22,-1
 673.5 536 l 1,0,-1
EndSplineSet
Validated: 524289
EndChar

StartChar: v
Encoding: 118 118 88
Width: 893
Flags: W
LayerCount: 2
Fore
SplineSet
395.5 0 m 1,0,-1
 192.5 536 l 1,1,-1
 286.5 536 l 1,2,-1
 400.5 220 l 2,3,4
 408.5 198 408.5 198 417.5 171 c 128,-1,5
 426.5 144 426.5 144 433.5 119.5 c 128,-1,6
 440.5 95 440.5 95 443.5 78 c 1,7,-1
 447.5 78 l 1,8,9
 451.5 95 451.5 95 459 120 c 128,-1,10
 466.5 145 466.5 145 476 172 c 128,-1,11
 485.5 199 485.5 199 492.5 220 c 2,12,-1
 606.5 536 l 1,13,-1
 700.5 536 l 1,14,-1
 496.5 0 l 1,15,-1
 395.5 0 l 1,0,-1
EndSplineSet
Validated: 524289
EndChar

StartChar: w
Encoding: 119 119 89
Width: 893
Flags: W
AnchorPoint: "Anchor-1" 437 536 basechar 0
AnchorPoint: "Anchor-0" 436 0 basechar 0
LayerCount: 2
Fore
SplineSet
376 766 m 5,0,1
 387 744 387 744 403.5 716.5 c 132,-1,2
 420 689 420 689 438.5 663 c 132,-1,3
 457 637 457 637 472 618 c 5,4,-1
 472 606 l 5,5,-1
 413 606 l 5,6,7
 396 620 396 620 375 639.5 c 132,-1,8
 354 659 354 659 333.5 680.5 c 132,-1,9
 313 702 313 702 296.5 722 c 132,-1,10
 280 742 280 742 271 756 c 5,11,-1
 271 766 l 5,12,-1
 376 766 l 5,0,1
674 541 m 0,13,14
 686 541 686 541 696 539 c 128,-1,15
 706 537 706 537 715 535 c 1,16,-1
 715 467 l 1,17,18
 702 472 702 472 681 472 c 0,19,20
 659 472 659 472 645 452 c 128,-1,21
 631 432 631 432 617 390 c 2,22,-1
 494 0 l 1,23,-1
 377 0 l 1,24,-1
 178 536 l 1,25,-1
 270 536 l 1,26,-1
 397 181 l 2,27,28
 412 139 412 139 422 107.5 c 128,-1,29
 432 76 432 76 434 62 c 1,30,-1
 438 62 l 1,31,32
 442 83 442 83 450 119 c 128,-1,33
 458 155 458 155 469 189 c 2,34,-1
 539 407 l 2,35,36
 556 459 556 459 572.5 488 c 128,-1,37
 589 517 589 517 612.5 529 c 128,-1,38
 636 541 636 541 674 541 c 0,13,14
EndSplineSet
Validated: 1048577
EndChar

StartChar: x
Encoding: 120 120 90
Width: 893
Flags: W
LayerCount: 2
Fore
SplineSet
394 274 m 1,0,-1
 209 536 l 1,1,-1
 309 536 l 1,2,-1
 447 334 l 1,3,-1
 584 536 l 1,4,-1
 683 536 l 1,5,-1
 498 274 l 1,6,-1
 693 0 l 1,7,-1
 593 0 l 1,8,-1
 447 214 l 1,9,-1
 299 0 l 1,10,-1
 200 0 l 1,11,-1
 394 274 l 1,0,-1
EndSplineSet
Validated: 1
EndChar

StartChar: y
Encoding: 121 121 91
Width: 893
Flags: W
AnchorPoint: "Anchor-2" 449.5 622 basechar 0
AnchorPoint: "Anchor-1" 590.5 0 basechar 0
LayerCount: 2
Fore
SplineSet
739.5 622 m 1,0,-1
 739.5 551 l 1,1,-1
 667.5 551 l 1,2,-1
 667.5 0 l 1,3,-1
 590.5 0 l 1,4,5
 548.5 56 548.5 56 497.5 98.5 c 128,-1,6
 446.5 141 446.5 141 379.5 170 c 128,-1,7
 312.5 199 312.5 199 220.5 212 c 1,8,-1
 184.5 303 l 1,9,10
 215.5 324 215.5 324 249.5 343 c 128,-1,11
 283.5 362 283.5 362 319 380 c 128,-1,12
 354.5 398 354.5 398 388.5 414 c 1,13,14
 350.5 443 350.5 443 301 465.5 c 128,-1,15
 251.5 488 251.5 488 184.5 502 c 1,16,-1
 215.5 570 l 1,17,-1
 217.5 551 l 1,18,-1
 153.5 551 l 5,19,-1
 153.5 622 l 5,20,-1
 739.5 622 l 1,0,-1
590.5 551 m 1,21,-1
 271.5 551 l 1,22,-1
 250.5 560 l 1,23,24
 292.5 550 292.5 550 335 528 c 128,-1,25
 377.5 506 377.5 506 414 480.5 c 128,-1,26
 450.5 455 450.5 455 472.5 432 c 1,27,-1
 477.5 376 l 1,28,29
 441.5 360 441.5 360 402 341 c 128,-1,30
 362.5 322 362.5 322 326 303 c 128,-1,31
 289.5 284 289.5 284 261.5 265 c 1,32,-1
 249.5 280 l 1,33,34
 335.5 268 335.5 268 400 240 c 128,-1,35
 464.5 212 464.5 212 514.5 172 c 128,-1,36
 564.5 132 564.5 132 606.5 83 c 1,37,-1
 593.5 79 l 1,38,39
 592.5 100 592.5 100 591.5 124.5 c 128,-1,40
 590.5 149 590.5 149 590.5 171 c 2,41,-1
 590.5 551 l 1,21,-1
EndSplineSet
Validated: 1572869
EndChar

StartChar: z
Encoding: 122 122 92
Width: 893
Flags: W
LayerCount: 2
Fore
SplineSet
642.5 0 m 1,0,-1
 250.5 0 l 1,1,-1
 250.5 58 l 1,2,-1
 538.5 468 l 1,3,-1
 267.5 468 l 1,4,-1
 267.5 536 l 1,5,-1
 635.5 536 l 1,6,-1
 635.5 470 l 1,7,-1
 351.5 68 l 1,8,-1
 642.5 68 l 1,9,-1
 642.5 0 l 1,0,-1
EndSplineSet
Validated: 524289
EndChar

StartChar: at
Encoding: 64 64 93
Width: 893
Flags: W
LayerCount: 2
Fore
SplineSet
838 357 m 0,0,1
 838 311 838 311 827.5 267 c 128,-1,2
 817 223 817 223 795 187.5 c 128,-1,3
 773 152 773 152 741 130.5 c 128,-1,4
 709 109 709 109 665 109 c 0,5,6
 619 109 619 109 592.5 135.5 c 128,-1,7
 566 162 566 162 560 196 c 1,8,-1
 555 196 l 1,9,10
 537 159 537 159 502 134 c 128,-1,11
 467 109 467 109 414 109 c 0,12,13
 338 109 338 109 296.5 160 c 128,-1,14
 255 211 255 211 255 295 c 0,15,16
 255 361 255 361 281 411.5 c 128,-1,17
 307 462 307 462 354.5 491 c 128,-1,18
 402 520 402 520 467 520 c 0,19,20
 511 520 511 520 553.5 512.5 c 128,-1,21
 596 505 596 505 620 496 c 1,22,-1
 610 293 l 2,23,24
 609 275 609 275 609 267.5 c 128,-1,25
 609 260 609 260 609 257 c 0,26,27
 609 205 609 205 627.5 188 c 128,-1,28
 646 171 646 171 671 171 c 0,29,30
 702 171 702 171 723.5 196.5 c 128,-1,31
 745 222 745 222 756.5 264.5 c 128,-1,32
 768 307 768 307 768 358 c 0,33,34
 768 451 768 451 730.5 515.5 c 128,-1,35
 693 580 693 580 627.5 614 c 128,-1,36
 562 648 562 648 479 648 c 0,37,38
 394 648 394 648 328 621 c 128,-1,39
 262 594 262 594 217.5 545 c 128,-1,40
 173 496 173 496 150 429.5 c 128,-1,41
 127 363 127 363 127 283 c 0,42,43
 127 185 127 185 162 116.5 c 128,-1,44
 197 48 197 48 264.5 12.5 c 128,-1,45
 332 -23 332 -23 430 -23 c 0,46,47
 491 -23 491 -23 546.5 -9.5 c 128,-1,48
 602 4 602 4 645 20 c 1,49,-1
 645 -48 l 1,50,51
 602 -66 602 -66 548.5 -77.5 c 128,-1,52
 495 -89 495 -89 430 -89 c 0,53,54
 312 -89 312 -89 228 -45 c 128,-1,55
 144 -1 144 -1 99.5 81.5 c 128,-1,56
 55 164 55 164 55 280 c 0,57,58
 55 373 55 373 84 452.5 c 128,-1,59
 113 532 113 532 168 590.5 c 128,-1,60
 223 649 223 649 301.5 681.5 c 128,-1,61
 380 714 380 714 479 714 c 0,62,63
 557 714 557 714 622.5 689.5 c 128,-1,64
 688 665 688 665 736.5 618.5 c 128,-1,65
 785 572 785 572 811.5 506 c 128,-1,66
 838 440 838 440 838 357 c 0,0,1
333 293 m 0,67,68
 333 229 333 229 358.5 200 c 128,-1,69
 384 171 384 171 427 171 c 0,70,71
 483 171 483 171 507.5 213 c 128,-1,72
 532 255 532 255 536 322 c 2,73,-1
 542 447 l 1,74,75
 529 451 529 451 509 454 c 128,-1,76
 489 457 489 457 468 457 c 0,77,78
 419 457 419 457 389 433 c 128,-1,79
 359 409 359 409 346 371.5 c 128,-1,80
 333 334 333 334 333 293 c 0,67,68
EndSplineSet
Validated: 1
EndChar

StartChar: ampersand
Encoding: 38 38 94
Width: 893
Flags: W
LayerCount: 2
Fore
SplineSet
359 725 m 0,0,1
 413 725 413 725 451.5 706.5 c 128,-1,2
 490 688 490 688 511 654 c 128,-1,3
 532 620 532 620 532 571 c 0,4,5
 532 508 532 508 491.5 464 c 128,-1,6
 451 420 451 420 389 384 c 1,7,-1
 582 198 l 1,8,9
 608 229 608 229 624.5 269.5 c 128,-1,10
 641 310 641 310 652 357 c 1,11,-1
 741 357 l 1,12,13
 725 293 725 293 701 238 c 128,-1,14
 677 183 677 183 639 142 c 1,15,-1
 785 0 l 1,16,-1
 666 0 l 1,17,-1
 579 84 l 1,18,19
 548 56 548 56 512 35 c 128,-1,20
 476 14 476 14 432.5 2 c 128,-1,21
 389 -10 389 -10 333 -10 c 0,22,23
 264 -10 264 -10 213.5 12.5 c 128,-1,24
 163 35 163 35 135.5 79 c 128,-1,25
 108 123 108 123 108 186 c 0,26,27
 108 237 108 237 126.5 274 c 128,-1,28
 145 311 145 311 180 340 c 128,-1,29
 215 369 215 369 262 396 c 1,30,31
 241 420 241 420 221 446 c 128,-1,32
 201 472 201 472 188 502.5 c 128,-1,33
 175 533 175 533 175 569 c 0,34,35
 175 618 175 618 197 653 c 128,-1,36
 219 688 219 688 260.5 706.5 c 128,-1,37
 302 725 302 725 359 725 c 0,0,1
315 341 m 1,38,39
 279 320 279 320 253.5 298.5 c 128,-1,40
 228 277 228 277 214 251 c 128,-1,41
 200 225 200 225 200 189 c 0,42,43
 200 134 200 134 237 101 c 128,-1,44
 274 68 274 68 336 68 c 0,45,46
 400 68 400 68 446 89 c 128,-1,47
 492 110 492 110 523 139 c 1,48,-1
 315 341 l 1,38,39
356 653 m 0,49,50
 314 653 314 653 287.5 631 c 128,-1,51
 261 609 261 609 261 570 c 0,52,53
 261 534 261 534 280 503.5 c 128,-1,54
 299 473 299 473 335 436 c 1,55,56
 394 470 394 470 419.5 500.5 c 128,-1,57
 445 531 445 531 445 571 c 0,58,59
 445 607 445 607 421 630 c 128,-1,60
 397 653 397 653 356 653 c 0,49,50
EndSplineSet
Validated: 1
EndChar

StartChar: dollar
Encoding: 36 36 95
Width: 893
Flags: W
LayerCount: 2
Fore
SplineSet
410.5 49 m 1,0,1
 355.5 50 355.5 50 303.5 58.5 c 128,-1,2
 251.5 67 251.5 67 219.5 82 c 1,3,-1
 219.5 167 l 1,4,5
 253.5 151 253.5 151 306.5 139 c 128,-1,6
 359.5 127 359.5 127 410.5 126 c 1,7,-1
 410.5 328 l 1,8,9
 344.5 346 344.5 346 302.5 369.5 c 128,-1,10
 260.5 393 260.5 393 240 427 c 128,-1,11
 219.5 461 219.5 461 219.5 508 c 0,12,13
 219.5 557 219.5 557 243 592 c 128,-1,14
 266.5 627 266.5 627 309.5 647.5 c 128,-1,15
 352.5 668 352.5 668 410.5 671 c 1,16,-1
 410.5 759 l 1,17,-1
 474.5 759 l 1,18,-1
 474.5 672 l 1,19,20
 527.5 671 527.5 671 571 660.5 c 128,-1,21
 614.5 650 614.5 650 650.5 635 c 1,22,-1
 623.5 561 l 1,23,24
 591.5 574 591.5 574 553 583.5 c 128,-1,25
 514.5 593 514.5 593 474.5 596 c 1,26,-1
 474.5 395 l 1,27,28
 540.5 376 540.5 376 584.5 354.5 c 128,-1,29
 628.5 333 628.5 333 651 301.5 c 128,-1,30
 673.5 270 673.5 270 673.5 220 c 0,31,32
 673.5 150 673.5 150 621.5 106.5 c 128,-1,33
 569.5 63 569.5 63 474.5 53 c 1,34,-1
 474.5 -58 l 1,35,-1
 410.5 -58 l 1,36,-1
 410.5 49 l 1,0,1
474.5 131 m 1,37,38
 533.5 137 533.5 137 560.5 158.5 c 128,-1,39
 587.5 180 587.5 180 587.5 214 c 0,40,41
 587.5 239 587.5 239 577.5 255.5 c 128,-1,42
 567.5 272 567.5 272 543 284 c 128,-1,43
 518.5 296 518.5 296 474.5 307 c 1,44,-1
 474.5 131 l 1,37,38
410.5 594 m 1,45,46
 374.5 592 374.5 592 351.5 581.5 c 128,-1,47
 328.5 571 328.5 571 317 554 c 128,-1,48
 305.5 537 305.5 537 305.5 515 c 0,49,50
 305.5 489 305.5 489 315 470.5 c 128,-1,51
 324.5 452 324.5 452 347.5 439.5 c 128,-1,52
 370.5 427 370.5 427 410.5 417 c 1,53,-1
 410.5 594 l 1,45,46
EndSplineSet
Validated: 524289
EndChar

StartChar: grave
Encoding: 96 96 96
Width: 893
Flags: W
LayerCount: 2
Fore
SplineSet
451 766 m 1,0,1
 462 744 462 744 478.5 716.5 c 128,-1,2
 495 689 495 689 513.5 663 c 128,-1,3
 532 637 532 637 547 618 c 1,4,-1
 547 606 l 1,5,-1
 488 606 l 1,6,7
 471 620 471 620 450 639.5 c 128,-1,8
 429 659 429 659 408.5 680.5 c 128,-1,9
 388 702 388 702 371.5 722 c 128,-1,10
 355 742 355 742 346 756 c 1,11,-1
 346 766 l 1,12,-1
 451 766 l 1,0,1
EndSplineSet
Validated: 1
EndChar

StartChar: uni0080
Encoding: 128 128 97
Width: 893
Flags: W
LayerCount: 2
Fore
SplineSet
241 85 m 0,0,1
 241 103 241 103 256.5 118 c 128,-1,2
 272 133 272 133 300 144.5 c 128,-1,3
 328 156 328 156 365.5 162.5 c 128,-1,4
 403 169 403 169 446 169 c 0,5,6
 490 169 490 169 527.5 162.5 c 128,-1,7
 565 156 565 156 592.5 144.5 c 128,-1,8
 620 133 620 133 636 118 c 128,-1,9
 652 103 652 103 652 85 c 0,10,11
 652 68 652 68 636 53 c 128,-1,12
 620 38 620 38 592.5 27 c 128,-1,13
 565 16 565 16 527.5 9.5 c 128,-1,14
 490 3 490 3 446 3 c 0,15,16
 403 3 403 3 365.5 9.5 c 128,-1,17
 328 16 328 16 300 27 c 128,-1,18
 272 38 272 38 256.5 53 c 128,-1,19
 241 68 241 68 241 85 c 0,0,1
321 85 m 256,20,21
 321 74 321 74 330.5 64.5 c 128,-1,22
 340 55 340 55 357 48.5 c 128,-1,23
 374 42 374 42 397 38 c 128,-1,24
 420 34 420 34 446 34 c 0,25,26
 473 34 473 34 495.5 38 c 128,-1,27
 518 42 518 42 535 48.5 c 128,-1,28
 552 55 552 55 561.5 64.5 c 128,-1,29
 571 74 571 74 571 85 c 256,30,31
 571 96 571 96 561.5 105.5 c 128,-1,32
 552 115 552 115 535 122 c 128,-1,33
 518 129 518 129 495.5 133 c 128,-1,34
 473 137 473 137 446 137 c 0,35,36
 420 137 420 137 397 133 c 128,-1,37
 374 129 374 129 357 122 c 128,-1,38
 340 115 340 115 330.5 105.5 c 128,-1,39
 321 96 321 96 321 85 c 256,20,21
241 272 m 0,40,41
 241 290 241 290 256.5 305 c 128,-1,42
 272 320 272 320 300 331.5 c 128,-1,43
 328 343 328 343 365.5 349 c 128,-1,44
 403 355 403 355 446 355 c 0,45,46
 490 355 490 355 527.5 349 c 128,-1,47
 565 343 565 343 592.5 331.5 c 128,-1,48
 620 320 620 320 636 305 c 128,-1,49
 652 290 652 290 652 272 c 0,50,51
 652 255 652 255 636 240 c 128,-1,52
 620 225 620 225 592.5 214 c 128,-1,53
 565 203 565 203 527.5 196 c 128,-1,54
 490 189 490 189 446 189 c 0,55,56
 403 189 403 189 365.5 196 c 128,-1,57
 328 203 328 203 300 214 c 128,-1,58
 272 225 272 225 256.5 240 c 128,-1,59
 241 255 241 255 241 272 c 0,40,41
321 272 m 256,60,61
 321 261 321 261 330.5 251.5 c 128,-1,62
 340 242 340 242 357 235 c 128,-1,63
 374 228 374 228 397 224 c 128,-1,64
 420 220 420 220 446 220 c 0,65,66
 473 220 473 220 495.5 224 c 128,-1,67
 518 228 518 228 535 235 c 128,-1,68
 552 242 552 242 561.5 251.5 c 128,-1,69
 571 261 571 261 571 272 c 256,70,71
 571 283 571 283 561.5 292.5 c 128,-1,72
 552 302 552 302 535 309 c 128,-1,73
 518 316 518 316 495.5 320 c 128,-1,74
 473 324 473 324 446 324 c 0,75,76
 420 324 420 324 397 320 c 128,-1,77
 374 316 374 316 357 309 c 128,-1,78
 340 302 340 302 330.5 292.5 c 128,-1,79
 321 283 321 283 321 272 c 256,60,61
241 461 m 256,80,81
 241 478 241 478 256.5 493.5 c 128,-1,82
 272 509 272 509 300 520 c 128,-1,83
 328 531 328 531 365.5 537.5 c 128,-1,84
 403 544 403 544 446 544 c 0,85,86
 490 544 490 544 527.5 537.5 c 128,-1,87
 565 531 565 531 592.5 520 c 128,-1,88
 620 509 620 509 636 493.5 c 128,-1,89
 652 478 652 478 652 461 c 256,90,91
 652 444 652 444 636 429 c 128,-1,92
 620 414 620 414 592.5 402.5 c 128,-1,93
 565 391 565 391 527.5 384.5 c 128,-1,94
 490 378 490 378 446 378 c 0,95,96
 403 378 403 378 365.5 384.5 c 128,-1,97
 328 391 328 391 300 402.5 c 128,-1,98
 272 414 272 414 256.5 429 c 128,-1,99
 241 444 241 444 241 461 c 256,80,81
321 461 m 256,100,101
 321 450 321 450 330.5 440.5 c 128,-1,102
 340 431 340 431 357 424 c 128,-1,103
 374 417 374 417 397 413 c 128,-1,104
 420 409 420 409 446 409 c 0,105,106
 473 409 473 409 495.5 413 c 128,-1,107
 518 417 518 417 535 424 c 128,-1,108
 552 431 552 431 561.5 440.5 c 128,-1,109
 571 450 571 450 571 461 c 256,110,111
 571 472 571 472 561.5 481.5 c 128,-1,112
 552 491 552 491 535 498 c 128,-1,113
 518 505 518 505 495.5 509 c 128,-1,114
 473 513 473 513 446 513 c 0,115,116
 420 513 420 513 397 509 c 128,-1,117
 374 505 374 505 357 498 c 128,-1,118
 340 491 340 491 330.5 481.5 c 128,-1,119
 321 472 321 472 321 461 c 256,100,101
241 648 m 256,120,121
 241 665 241 665 256.5 680.5 c 128,-1,122
 272 696 272 696 300 707 c 128,-1,123
 328 718 328 718 365.5 724.5 c 128,-1,124
 403 731 403 731 446 731 c 0,125,126
 490 731 490 731 527.5 724.5 c 128,-1,127
 565 718 565 718 592.5 707 c 128,-1,128
 620 696 620 696 636 680.5 c 128,-1,129
 652 665 652 665 652 648 c 256,130,131
 652 631 652 631 636 616 c 128,-1,132
 620 601 620 601 592.5 589.5 c 128,-1,133
 565 578 565 578 527.5 571.5 c 128,-1,134
 490 565 490 565 446 565 c 0,135,136
 403 565 403 565 365.5 571.5 c 128,-1,137
 328 578 328 578 300 589.5 c 128,-1,138
 272 601 272 601 256.5 616 c 128,-1,139
 241 631 241 631 241 648 c 256,120,121
321 648 m 0,140,141
 321 637 321 637 330.5 627.5 c 128,-1,142
 340 618 340 618 357 611 c 128,-1,143
 374 604 374 604 397 600 c 128,-1,144
 420 596 420 596 446 596 c 0,145,146
 473 596 473 596 495.5 600 c 128,-1,147
 518 604 518 604 535 611 c 128,-1,148
 552 618 552 618 561.5 627.5 c 128,-1,149
 571 637 571 637 571 648 c 0,150,151
 571 658 571 658 561.5 668 c 128,-1,152
 552 678 552 678 535 685 c 128,-1,153
 518 692 518 692 495.5 696 c 128,-1,154
 473 700 473 700 446 700 c 0,155,156
 420 700 420 700 397 696 c 128,-1,157
 374 692 374 692 357 685 c 128,-1,158
 340 678 340 678 330.5 668 c 128,-1,159
 321 658 321 658 321 648 c 0,140,141
EndSplineSet
Validated: 1
EndChar

StartChar: uni0081
Encoding: 129 129 98
Width: 893
Flags: W
LayerCount: 2
Fore
SplineSet
241 85 m 0,0,1
 241 103 241 103 256.5 118 c 128,-1,2
 272 133 272 133 300 144.5 c 128,-1,3
 328 156 328 156 365.5 162.5 c 128,-1,4
 403 169 403 169 446 169 c 0,5,6
 490 169 490 169 527.5 162.5 c 128,-1,7
 565 156 565 156 592.5 144.5 c 128,-1,8
 620 133 620 133 636 118 c 128,-1,9
 652 103 652 103 652 85 c 0,10,11
 652 68 652 68 636 53 c 128,-1,12
 620 38 620 38 592.5 27 c 128,-1,13
 565 16 565 16 527.5 9.5 c 128,-1,14
 490 3 490 3 446 3 c 0,15,16
 403 3 403 3 365.5 9.5 c 128,-1,17
 328 16 328 16 300 27 c 128,-1,18
 272 38 272 38 256.5 53 c 128,-1,19
 241 68 241 68 241 85 c 0,0,1
241 272 m 0,20,21
 241 290 241 290 256.5 305 c 128,-1,22
 272 320 272 320 300 331.5 c 128,-1,23
 328 343 328 343 365.5 349 c 128,-1,24
 403 355 403 355 446 355 c 0,25,26
 490 355 490 355 527.5 349 c 128,-1,27
 565 343 565 343 592.5 331.5 c 128,-1,28
 620 320 620 320 636 305 c 128,-1,29
 652 290 652 290 652 272 c 0,30,31
 652 255 652 255 636 240 c 128,-1,32
 620 225 620 225 592.5 214 c 128,-1,33
 565 203 565 203 527.5 196 c 128,-1,34
 490 189 490 189 446 189 c 0,35,36
 403 189 403 189 365.5 196 c 128,-1,37
 328 203 328 203 300 214 c 128,-1,38
 272 225 272 225 256.5 240 c 128,-1,39
 241 255 241 255 241 272 c 0,20,21
321 272 m 256,40,41
 321 261 321 261 330.5 251.5 c 128,-1,42
 340 242 340 242 357 235 c 128,-1,43
 374 228 374 228 397 224 c 128,-1,44
 420 220 420 220 446 220 c 0,45,46
 473 220 473 220 495.5 224 c 128,-1,47
 518 228 518 228 535 235 c 128,-1,48
 552 242 552 242 561.5 251.5 c 128,-1,49
 571 261 571 261 571 272 c 256,50,51
 571 283 571 283 561.5 292.5 c 128,-1,52
 552 302 552 302 535 309 c 128,-1,53
 518 316 518 316 495.5 320 c 128,-1,54
 473 324 473 324 446 324 c 0,55,56
 420 324 420 324 397 320 c 128,-1,57
 374 316 374 316 357 309 c 128,-1,58
 340 302 340 302 330.5 292.5 c 128,-1,59
 321 283 321 283 321 272 c 256,40,41
241 461 m 256,60,61
 241 478 241 478 256.5 493.5 c 128,-1,62
 272 509 272 509 300 520 c 128,-1,63
 328 531 328 531 365.5 537.5 c 128,-1,64
 403 544 403 544 446 544 c 0,65,66
 490 544 490 544 527.5 537.5 c 128,-1,67
 565 531 565 531 592.5 520 c 128,-1,68
 620 509 620 509 636 493.5 c 128,-1,69
 652 478 652 478 652 461 c 256,70,71
 652 444 652 444 636 429 c 128,-1,72
 620 414 620 414 592.5 402.5 c 128,-1,73
 565 391 565 391 527.5 384.5 c 128,-1,74
 490 378 490 378 446 378 c 0,75,76
 403 378 403 378 365.5 384.5 c 128,-1,77
 328 391 328 391 300 402.5 c 128,-1,78
 272 414 272 414 256.5 429 c 128,-1,79
 241 444 241 444 241 461 c 256,60,61
321 461 m 256,80,81
 321 450 321 450 330.5 440.5 c 128,-1,82
 340 431 340 431 357 424 c 128,-1,83
 374 417 374 417 397 413 c 128,-1,84
 420 409 420 409 446 409 c 0,85,86
 473 409 473 409 495.5 413 c 128,-1,87
 518 417 518 417 535 424 c 128,-1,88
 552 431 552 431 561.5 440.5 c 128,-1,89
 571 450 571 450 571 461 c 256,90,91
 571 472 571 472 561.5 481.5 c 128,-1,92
 552 491 552 491 535 498 c 128,-1,93
 518 505 518 505 495.5 509 c 128,-1,94
 473 513 473 513 446 513 c 0,95,96
 420 513 420 513 397 509 c 128,-1,97
 374 505 374 505 357 498 c 128,-1,98
 340 491 340 491 330.5 481.5 c 128,-1,99
 321 472 321 472 321 461 c 256,80,81
241 648 m 256,100,101
 241 665 241 665 256.5 680.5 c 128,-1,102
 272 696 272 696 300 707 c 128,-1,103
 328 718 328 718 365.5 724.5 c 128,-1,104
 403 731 403 731 446 731 c 0,105,106
 490 731 490 731 527.5 724.5 c 128,-1,107
 565 718 565 718 592.5 707 c 128,-1,108
 620 696 620 696 636 680.5 c 128,-1,109
 652 665 652 665 652 648 c 256,110,111
 652 631 652 631 636 616 c 128,-1,112
 620 601 620 601 592.5 589.5 c 128,-1,113
 565 578 565 578 527.5 571.5 c 128,-1,114
 490 565 490 565 446 565 c 0,115,116
 403 565 403 565 365.5 571.5 c 128,-1,117
 328 578 328 578 300 589.5 c 128,-1,118
 272 601 272 601 256.5 616 c 128,-1,119
 241 631 241 631 241 648 c 256,100,101
321 648 m 0,120,121
 321 637 321 637 330.5 627.5 c 128,-1,122
 340 618 340 618 357 611 c 128,-1,123
 374 604 374 604 397 600 c 128,-1,124
 420 596 420 596 446 596 c 0,125,126
 473 596 473 596 495.5 600 c 128,-1,127
 518 604 518 604 535 611 c 128,-1,128
 552 618 552 618 561.5 627.5 c 128,-1,129
 571 637 571 637 571 648 c 0,130,131
 571 658 571 658 561.5 668 c 128,-1,132
 552 678 552 678 535 685 c 128,-1,133
 518 692 518 692 495.5 696 c 128,-1,134
 473 700 473 700 446 700 c 0,135,136
 420 700 420 700 397 696 c 128,-1,137
 374 692 374 692 357 685 c 128,-1,138
 340 678 340 678 330.5 668 c 128,-1,139
 321 658 321 658 321 648 c 0,120,121
EndSplineSet
Validated: 1
EndChar

StartChar: uni0082
Encoding: 130 130 99
Width: 893
Flags: W
LayerCount: 2
Fore
SplineSet
241 85 m 0,0,1
 241 103 241 103 256.5 118 c 128,-1,2
 272 133 272 133 300 144.5 c 128,-1,3
 328 156 328 156 365.5 162.5 c 128,-1,4
 403 169 403 169 446 169 c 0,5,6
 490 169 490 169 527.5 162.5 c 128,-1,7
 565 156 565 156 592.5 144.5 c 128,-1,8
 620 133 620 133 636 118 c 128,-1,9
 652 103 652 103 652 85 c 0,10,11
 652 68 652 68 636 53 c 128,-1,12
 620 38 620 38 592.5 27 c 128,-1,13
 565 16 565 16 527.5 9.5 c 128,-1,14
 490 3 490 3 446 3 c 0,15,16
 403 3 403 3 365.5 9.5 c 128,-1,17
 328 16 328 16 300 27 c 128,-1,18
 272 38 272 38 256.5 53 c 128,-1,19
 241 68 241 68 241 85 c 0,0,1
321 85 m 256,20,21
 321 74 321 74 330.5 64.5 c 128,-1,22
 340 55 340 55 357 48.5 c 128,-1,23
 374 42 374 42 397 38 c 128,-1,24
 420 34 420 34 446 34 c 0,25,26
 473 34 473 34 495.5 38 c 128,-1,27
 518 42 518 42 535 48.5 c 128,-1,28
 552 55 552 55 561.5 64.5 c 128,-1,29
 571 74 571 74 571 85 c 256,30,31
 571 96 571 96 561.5 105.5 c 128,-1,32
 552 115 552 115 535 122 c 128,-1,33
 518 129 518 129 495.5 133 c 128,-1,34
 473 137 473 137 446 137 c 0,35,36
 420 137 420 137 397 133 c 128,-1,37
 374 129 374 129 357 122 c 128,-1,38
 340 115 340 115 330.5 105.5 c 128,-1,39
 321 96 321 96 321 85 c 256,20,21
241 272 m 0,40,41
 241 290 241 290 256.5 305 c 128,-1,42
 272 320 272 320 300 331.5 c 128,-1,43
 328 343 328 343 365.5 349 c 128,-1,44
 403 355 403 355 446 355 c 0,45,46
 490 355 490 355 527.5 349 c 128,-1,47
 565 343 565 343 592.5 331.5 c 128,-1,48
 620 320 620 320 636 305 c 128,-1,49
 652 290 652 290 652 272 c 0,50,51
 652 255 652 255 636 240 c 128,-1,52
 620 225 620 225 592.5 214 c 128,-1,53
 565 203 565 203 527.5 196 c 128,-1,54
 490 189 490 189 446 189 c 0,55,56
 403 189 403 189 365.5 196 c 128,-1,57
 328 203 328 203 300 214 c 128,-1,58
 272 225 272 225 256.5 240 c 128,-1,59
 241 255 241 255 241 272 c 0,40,41
241 461 m 256,60,61
 241 478 241 478 256.5 493.5 c 128,-1,62
 272 509 272 509 300 520 c 128,-1,63
 328 531 328 531 365.5 537.5 c 128,-1,64
 403 544 403 544 446 544 c 0,65,66
 490 544 490 544 527.5 537.5 c 128,-1,67
 565 531 565 531 592.5 520 c 128,-1,68
 620 509 620 509 636 493.5 c 128,-1,69
 652 478 652 478 652 461 c 256,70,71
 652 444 652 444 636 429 c 128,-1,72
 620 414 620 414 592.5 402.5 c 128,-1,73
 565 391 565 391 527.5 384.5 c 128,-1,74
 490 378 490 378 446 378 c 0,75,76
 403 378 403 378 365.5 384.5 c 128,-1,77
 328 391 328 391 300 402.5 c 128,-1,78
 272 414 272 414 256.5 429 c 128,-1,79
 241 444 241 444 241 461 c 256,60,61
321 461 m 256,80,81
 321 450 321 450 330.5 440.5 c 128,-1,82
 340 431 340 431 357 424 c 128,-1,83
 374 417 374 417 397 413 c 128,-1,84
 420 409 420 409 446 409 c 0,85,86
 473 409 473 409 495.5 413 c 128,-1,87
 518 417 518 417 535 424 c 128,-1,88
 552 431 552 431 561.5 440.5 c 128,-1,89
 571 450 571 450 571 461 c 256,90,91
 571 472 571 472 561.5 481.5 c 128,-1,92
 552 491 552 491 535 498 c 128,-1,93
 518 505 518 505 495.5 509 c 128,-1,94
 473 513 473 513 446 513 c 0,95,96
 420 513 420 513 397 509 c 128,-1,97
 374 505 374 505 357 498 c 128,-1,98
 340 491 340 491 330.5 481.5 c 128,-1,99
 321 472 321 472 321 461 c 256,80,81
241 648 m 256,100,101
 241 665 241 665 256.5 680.5 c 128,-1,102
 272 696 272 696 300 707 c 128,-1,103
 328 718 328 718 365.5 724.5 c 128,-1,104
 403 731 403 731 446 731 c 0,105,106
 490 731 490 731 527.5 724.5 c 128,-1,107
 565 718 565 718 592.5 707 c 128,-1,108
 620 696 620 696 636 680.5 c 128,-1,109
 652 665 652 665 652 648 c 256,110,111
 652 631 652 631 636 616 c 128,-1,112
 620 601 620 601 592.5 589.5 c 128,-1,113
 565 578 565 578 527.5 571.5 c 128,-1,114
 490 565 490 565 446 565 c 0,115,116
 403 565 403 565 365.5 571.5 c 128,-1,117
 328 578 328 578 300 589.5 c 128,-1,118
 272 601 272 601 256.5 616 c 128,-1,119
 241 631 241 631 241 648 c 256,100,101
321 648 m 0,120,121
 321 637 321 637 330.5 627.5 c 128,-1,122
 340 618 340 618 357 611 c 128,-1,123
 374 604 374 604 397 600 c 128,-1,124
 420 596 420 596 446 596 c 0,125,126
 473 596 473 596 495.5 600 c 128,-1,127
 518 604 518 604 535 611 c 128,-1,128
 552 618 552 618 561.5 627.5 c 128,-1,129
 571 637 571 637 571 648 c 0,130,131
 571 658 571 658 561.5 668 c 128,-1,132
 552 678 552 678 535 685 c 128,-1,133
 518 692 518 692 495.5 696 c 128,-1,134
 473 700 473 700 446 700 c 0,135,136
 420 700 420 700 397 696 c 128,-1,137
 374 692 374 692 357 685 c 128,-1,138
 340 678 340 678 330.5 668 c 128,-1,139
 321 658 321 658 321 648 c 0,120,121
EndSplineSet
Validated: 1
EndChar

StartChar: uni0083
Encoding: 131 131 100
Width: 893
Flags: W
LayerCount: 2
Fore
SplineSet
241 85 m 0,0,1
 241 103 241 103 256.5 118 c 128,-1,2
 272 133 272 133 300 144.5 c 128,-1,3
 328 156 328 156 365.5 162.5 c 128,-1,4
 403 169 403 169 446 169 c 0,5,6
 490 169 490 169 527.5 162.5 c 128,-1,7
 565 156 565 156 592.5 144.5 c 128,-1,8
 620 133 620 133 636 118 c 128,-1,9
 652 103 652 103 652 85 c 0,10,11
 652 68 652 68 636 53 c 128,-1,12
 620 38 620 38 592.5 27 c 128,-1,13
 565 16 565 16 527.5 9.5 c 128,-1,14
 490 3 490 3 446 3 c 0,15,16
 403 3 403 3 365.5 9.5 c 128,-1,17
 328 16 328 16 300 27 c 128,-1,18
 272 38 272 38 256.5 53 c 128,-1,19
 241 68 241 68 241 85 c 0,0,1
241 272 m 0,20,21
 241 290 241 290 256.5 305 c 128,-1,22
 272 320 272 320 300 331.5 c 128,-1,23
 328 343 328 343 365.5 349 c 128,-1,24
 403 355 403 355 446 355 c 0,25,26
 490 355 490 355 527.5 349 c 128,-1,27
 565 343 565 343 592.5 331.5 c 128,-1,28
 620 320 620 320 636 305 c 128,-1,29
 652 290 652 290 652 272 c 0,30,31
 652 255 652 255 636 240 c 128,-1,32
 620 225 620 225 592.5 214 c 128,-1,33
 565 203 565 203 527.5 196 c 128,-1,34
 490 189 490 189 446 189 c 0,35,36
 403 189 403 189 365.5 196 c 128,-1,37
 328 203 328 203 300 214 c 128,-1,38
 272 225 272 225 256.5 240 c 128,-1,39
 241 255 241 255 241 272 c 0,20,21
241 461 m 256,40,41
 241 478 241 478 256.5 493.5 c 128,-1,42
 272 509 272 509 300 520 c 128,-1,43
 328 531 328 531 365.5 537.5 c 128,-1,44
 403 544 403 544 446 544 c 0,45,46
 490 544 490 544 527.5 537.5 c 128,-1,47
 565 531 565 531 592.5 520 c 128,-1,48
 620 509 620 509 636 493.5 c 128,-1,49
 652 478 652 478 652 461 c 256,50,51
 652 444 652 444 636 429 c 128,-1,52
 620 414 620 414 592.5 402.5 c 128,-1,53
 565 391 565 391 527.5 384.5 c 128,-1,54
 490 378 490 378 446 378 c 0,55,56
 403 378 403 378 365.5 384.5 c 128,-1,57
 328 391 328 391 300 402.5 c 128,-1,58
 272 414 272 414 256.5 429 c 128,-1,59
 241 444 241 444 241 461 c 256,40,41
321 461 m 256,60,61
 321 450 321 450 330.5 440.5 c 128,-1,62
 340 431 340 431 357 424 c 128,-1,63
 374 417 374 417 397 413 c 128,-1,64
 420 409 420 409 446 409 c 0,65,66
 473 409 473 409 495.5 413 c 128,-1,67
 518 417 518 417 535 424 c 128,-1,68
 552 431 552 431 561.5 440.5 c 128,-1,69
 571 450 571 450 571 461 c 256,70,71
 571 472 571 472 561.5 481.5 c 128,-1,72
 552 491 552 491 535 498 c 128,-1,73
 518 505 518 505 495.5 509 c 128,-1,74
 473 513 473 513 446 513 c 0,75,76
 420 513 420 513 397 509 c 128,-1,77
 374 505 374 505 357 498 c 128,-1,78
 340 491 340 491 330.5 481.5 c 128,-1,79
 321 472 321 472 321 461 c 256,60,61
241 648 m 256,80,81
 241 665 241 665 256.5 680.5 c 128,-1,82
 272 696 272 696 300 707 c 128,-1,83
 328 718 328 718 365.5 724.5 c 128,-1,84
 403 731 403 731 446 731 c 0,85,86
 490 731 490 731 527.5 724.5 c 128,-1,87
 565 718 565 718 592.5 707 c 128,-1,88
 620 696 620 696 636 680.5 c 128,-1,89
 652 665 652 665 652 648 c 256,90,91
 652 631 652 631 636 616 c 128,-1,92
 620 601 620 601 592.5 589.5 c 128,-1,93
 565 578 565 578 527.5 571.5 c 128,-1,94
 490 565 490 565 446 565 c 0,95,96
 403 565 403 565 365.5 571.5 c 128,-1,97
 328 578 328 578 300 589.5 c 128,-1,98
 272 601 272 601 256.5 616 c 128,-1,99
 241 631 241 631 241 648 c 256,80,81
321 648 m 0,100,101
 321 637 321 637 330.5 627.5 c 128,-1,102
 340 618 340 618 357 611 c 128,-1,103
 374 604 374 604 397 600 c 128,-1,104
 420 596 420 596 446 596 c 0,105,106
 473 596 473 596 495.5 600 c 128,-1,107
 518 604 518 604 535 611 c 128,-1,108
 552 618 552 618 561.5 627.5 c 128,-1,109
 571 637 571 637 571 648 c 0,110,111
 571 658 571 658 561.5 668 c 128,-1,112
 552 678 552 678 535 685 c 128,-1,113
 518 692 518 692 495.5 696 c 128,-1,114
 473 700 473 700 446 700 c 0,115,116
 420 700 420 700 397 696 c 128,-1,117
 374 692 374 692 357 685 c 128,-1,118
 340 678 340 678 330.5 668 c 128,-1,119
 321 658 321 658 321 648 c 0,100,101
EndSplineSet
Validated: 1
EndChar

StartChar: uni0084
Encoding: 132 132 101
Width: 893
Flags: W
LayerCount: 2
Fore
SplineSet
241 85 m 0,0,1
 241 103 241 103 256.5 118 c 128,-1,2
 272 133 272 133 300 144.5 c 128,-1,3
 328 156 328 156 365.5 162.5 c 128,-1,4
 403 169 403 169 446 169 c 0,5,6
 490 169 490 169 527.5 162.5 c 128,-1,7
 565 156 565 156 592.5 144.5 c 128,-1,8
 620 133 620 133 636 118 c 128,-1,9
 652 103 652 103 652 85 c 0,10,11
 652 68 652 68 636 53 c 128,-1,12
 620 38 620 38 592.5 27 c 128,-1,13
 565 16 565 16 527.5 9.5 c 128,-1,14
 490 3 490 3 446 3 c 0,15,16
 403 3 403 3 365.5 9.5 c 128,-1,17
 328 16 328 16 300 27 c 128,-1,18
 272 38 272 38 256.5 53 c 128,-1,19
 241 68 241 68 241 85 c 0,0,1
321 85 m 256,20,21
 321 74 321 74 330.5 64.5 c 128,-1,22
 340 55 340 55 357 48.5 c 128,-1,23
 374 42 374 42 397 38 c 128,-1,24
 420 34 420 34 446 34 c 0,25,26
 473 34 473 34 495.5 38 c 128,-1,27
 518 42 518 42 535 48.5 c 128,-1,28
 552 55 552 55 561.5 64.5 c 128,-1,29
 571 74 571 74 571 85 c 256,30,31
 571 96 571 96 561.5 105.5 c 128,-1,32
 552 115 552 115 535 122 c 128,-1,33
 518 129 518 129 495.5 133 c 128,-1,34
 473 137 473 137 446 137 c 0,35,36
 420 137 420 137 397 133 c 128,-1,37
 374 129 374 129 357 122 c 128,-1,38
 340 115 340 115 330.5 105.5 c 128,-1,39
 321 96 321 96 321 85 c 256,20,21
241 272 m 0,40,41
 241 290 241 290 256.5 305 c 128,-1,42
 272 320 272 320 300 331.5 c 128,-1,43
 328 343 328 343 365.5 349 c 128,-1,44
 403 355 403 355 446 355 c 0,45,46
 490 355 490 355 527.5 349 c 128,-1,47
 565 343 565 343 592.5 331.5 c 128,-1,48
 620 320 620 320 636 305 c 128,-1,49
 652 290 652 290 652 272 c 0,50,51
 652 255 652 255 636 240 c 128,-1,52
 620 225 620 225 592.5 214 c 128,-1,53
 565 203 565 203 527.5 196 c 128,-1,54
 490 189 490 189 446 189 c 0,55,56
 403 189 403 189 365.5 196 c 128,-1,57
 328 203 328 203 300 214 c 128,-1,58
 272 225 272 225 256.5 240 c 128,-1,59
 241 255 241 255 241 272 c 0,40,41
321 272 m 256,60,61
 321 261 321 261 330.5 251.5 c 128,-1,62
 340 242 340 242 357 235 c 128,-1,63
 374 228 374 228 397 224 c 128,-1,64
 420 220 420 220 446 220 c 0,65,66
 473 220 473 220 495.5 224 c 128,-1,67
 518 228 518 228 535 235 c 128,-1,68
 552 242 552 242 561.5 251.5 c 128,-1,69
 571 261 571 261 571 272 c 256,70,71
 571 283 571 283 561.5 292.5 c 128,-1,72
 552 302 552 302 535 309 c 128,-1,73
 518 316 518 316 495.5 320 c 128,-1,74
 473 324 473 324 446 324 c 0,75,76
 420 324 420 324 397 320 c 128,-1,77
 374 316 374 316 357 309 c 128,-1,78
 340 302 340 302 330.5 292.5 c 128,-1,79
 321 283 321 283 321 272 c 256,60,61
241 461 m 256,80,81
 241 478 241 478 256.5 493.5 c 128,-1,82
 272 509 272 509 300 520 c 128,-1,83
 328 531 328 531 365.5 537.5 c 128,-1,84
 403 544 403 544 446 544 c 0,85,86
 490 544 490 544 527.5 537.5 c 128,-1,87
 565 531 565 531 592.5 520 c 128,-1,88
 620 509 620 509 636 493.5 c 128,-1,89
 652 478 652 478 652 461 c 256,90,91
 652 444 652 444 636 429 c 128,-1,92
 620 414 620 414 592.5 402.5 c 128,-1,93
 565 391 565 391 527.5 384.5 c 128,-1,94
 490 378 490 378 446 378 c 0,95,96
 403 378 403 378 365.5 384.5 c 128,-1,97
 328 391 328 391 300 402.5 c 128,-1,98
 272 414 272 414 256.5 429 c 128,-1,99
 241 444 241 444 241 461 c 256,80,81
241 648 m 256,100,101
 241 665 241 665 256.5 680.5 c 128,-1,102
 272 696 272 696 300 707 c 128,-1,103
 328 718 328 718 365.5 724.5 c 128,-1,104
 403 731 403 731 446 731 c 0,105,106
 490 731 490 731 527.5 724.5 c 128,-1,107
 565 718 565 718 592.5 707 c 128,-1,108
 620 696 620 696 636 680.5 c 128,-1,109
 652 665 652 665 652 648 c 256,110,111
 652 631 652 631 636 616 c 128,-1,112
 620 601 620 601 592.5 589.5 c 128,-1,113
 565 578 565 578 527.5 571.5 c 128,-1,114
 490 565 490 565 446 565 c 0,115,116
 403 565 403 565 365.5 571.5 c 128,-1,117
 328 578 328 578 300 589.5 c 128,-1,118
 272 601 272 601 256.5 616 c 128,-1,119
 241 631 241 631 241 648 c 256,100,101
321 648 m 0,120,121
 321 637 321 637 330.5 627.5 c 128,-1,122
 340 618 340 618 357 611 c 128,-1,123
 374 604 374 604 397 600 c 128,-1,124
 420 596 420 596 446 596 c 0,125,126
 473 596 473 596 495.5 600 c 128,-1,127
 518 604 518 604 535 611 c 128,-1,128
 552 618 552 618 561.5 627.5 c 128,-1,129
 571 637 571 637 571 648 c 0,130,131
 571 658 571 658 561.5 668 c 128,-1,132
 552 678 552 678 535 685 c 128,-1,133
 518 692 518 692 495.5 696 c 128,-1,134
 473 700 473 700 446 700 c 0,135,136
 420 700 420 700 397 696 c 128,-1,137
 374 692 374 692 357 685 c 128,-1,138
 340 678 340 678 330.5 668 c 128,-1,139
 321 658 321 658 321 648 c 0,120,121
EndSplineSet
Validated: 1
EndChar

StartChar: uni0085
Encoding: 133 133 102
Width: 893
Flags: W
LayerCount: 2
Fore
SplineSet
241 85 m 0,0,1
 241 103 241 103 256.5 118 c 128,-1,2
 272 133 272 133 300 144.5 c 128,-1,3
 328 156 328 156 365.5 162.5 c 128,-1,4
 403 169 403 169 446 169 c 0,5,6
 490 169 490 169 527.5 162.5 c 128,-1,7
 565 156 565 156 592.5 144.5 c 128,-1,8
 620 133 620 133 636 118 c 128,-1,9
 652 103 652 103 652 85 c 0,10,11
 652 68 652 68 636 53 c 128,-1,12
 620 38 620 38 592.5 27 c 128,-1,13
 565 16 565 16 527.5 9.5 c 128,-1,14
 490 3 490 3 446 3 c 0,15,16
 403 3 403 3 365.5 9.5 c 128,-1,17
 328 16 328 16 300 27 c 128,-1,18
 272 38 272 38 256.5 53 c 128,-1,19
 241 68 241 68 241 85 c 0,0,1
241 272 m 0,20,21
 241 290 241 290 256.5 305 c 128,-1,22
 272 320 272 320 300 331.5 c 128,-1,23
 328 343 328 343 365.5 349 c 128,-1,24
 403 355 403 355 446 355 c 0,25,26
 490 355 490 355 527.5 349 c 128,-1,27
 565 343 565 343 592.5 331.5 c 128,-1,28
 620 320 620 320 636 305 c 128,-1,29
 652 290 652 290 652 272 c 0,30,31
 652 255 652 255 636 240 c 128,-1,32
 620 225 620 225 592.5 214 c 128,-1,33
 565 203 565 203 527.5 196 c 128,-1,34
 490 189 490 189 446 189 c 0,35,36
 403 189 403 189 365.5 196 c 128,-1,37
 328 203 328 203 300 214 c 128,-1,38
 272 225 272 225 256.5 240 c 128,-1,39
 241 255 241 255 241 272 c 0,20,21
321 272 m 256,40,41
 321 261 321 261 330.5 251.5 c 128,-1,42
 340 242 340 242 357 235 c 128,-1,43
 374 228 374 228 397 224 c 128,-1,44
 420 220 420 220 446 220 c 0,45,46
 473 220 473 220 495.5 224 c 128,-1,47
 518 228 518 228 535 235 c 128,-1,48
 552 242 552 242 561.5 251.5 c 128,-1,49
 571 261 571 261 571 272 c 256,50,51
 571 283 571 283 561.5 292.5 c 128,-1,52
 552 302 552 302 535 309 c 128,-1,53
 518 316 518 316 495.5 320 c 128,-1,54
 473 324 473 324 446 324 c 0,55,56
 420 324 420 324 397 320 c 128,-1,57
 374 316 374 316 357 309 c 128,-1,58
 340 302 340 302 330.5 292.5 c 128,-1,59
 321 283 321 283 321 272 c 256,40,41
241 461 m 256,60,61
 241 478 241 478 256.5 493.5 c 128,-1,62
 272 509 272 509 300 520 c 128,-1,63
 328 531 328 531 365.5 537.5 c 128,-1,64
 403 544 403 544 446 544 c 0,65,66
 490 544 490 544 527.5 537.5 c 128,-1,67
 565 531 565 531 592.5 520 c 128,-1,68
 620 509 620 509 636 493.5 c 128,-1,69
 652 478 652 478 652 461 c 256,70,71
 652 444 652 444 636 429 c 128,-1,72
 620 414 620 414 592.5 402.5 c 128,-1,73
 565 391 565 391 527.5 384.5 c 128,-1,74
 490 378 490 378 446 378 c 0,75,76
 403 378 403 378 365.5 384.5 c 128,-1,77
 328 391 328 391 300 402.5 c 128,-1,78
 272 414 272 414 256.5 429 c 128,-1,79
 241 444 241 444 241 461 c 256,60,61
241 648 m 256,80,81
 241 665 241 665 256.5 680.5 c 128,-1,82
 272 696 272 696 300 707 c 128,-1,83
 328 718 328 718 365.5 724.5 c 128,-1,84
 403 731 403 731 446 731 c 0,85,86
 490 731 490 731 527.5 724.5 c 128,-1,87
 565 718 565 718 592.5 707 c 128,-1,88
 620 696 620 696 636 680.5 c 128,-1,89
 652 665 652 665 652 648 c 256,90,91
 652 631 652 631 636 616 c 128,-1,92
 620 601 620 601 592.5 589.5 c 128,-1,93
 565 578 565 578 527.5 571.5 c 128,-1,94
 490 565 490 565 446 565 c 0,95,96
 403 565 403 565 365.5 571.5 c 128,-1,97
 328 578 328 578 300 589.5 c 128,-1,98
 272 601 272 601 256.5 616 c 128,-1,99
 241 631 241 631 241 648 c 256,80,81
321 648 m 0,100,101
 321 637 321 637 330.5 627.5 c 128,-1,102
 340 618 340 618 357 611 c 128,-1,103
 374 604 374 604 397 600 c 128,-1,104
 420 596 420 596 446 596 c 0,105,106
 473 596 473 596 495.5 600 c 128,-1,107
 518 604 518 604 535 611 c 128,-1,108
 552 618 552 618 561.5 627.5 c 128,-1,109
 571 637 571 637 571 648 c 0,110,111
 571 658 571 658 561.5 668 c 128,-1,112
 552 678 552 678 535 685 c 128,-1,113
 518 692 518 692 495.5 696 c 128,-1,114
 473 700 473 700 446 700 c 0,115,116
 420 700 420 700 397 696 c 128,-1,117
 374 692 374 692 357 685 c 128,-1,118
 340 678 340 678 330.5 668 c 128,-1,119
 321 658 321 658 321 648 c 0,100,101
EndSplineSet
Validated: 1
EndChar

StartChar: uni0086
Encoding: 134 134 103
Width: 893
Flags: W
LayerCount: 2
Fore
SplineSet
241 85 m 0,0,1
 241 103 241 103 256.5 118 c 128,-1,2
 272 133 272 133 300 144.5 c 128,-1,3
 328 156 328 156 365.5 162.5 c 128,-1,4
 403 169 403 169 446 169 c 0,5,6
 490 169 490 169 527.5 162.5 c 128,-1,7
 565 156 565 156 592.5 144.5 c 128,-1,8
 620 133 620 133 636 118 c 128,-1,9
 652 103 652 103 652 85 c 0,10,11
 652 68 652 68 636 53 c 128,-1,12
 620 38 620 38 592.5 27 c 128,-1,13
 565 16 565 16 527.5 9.5 c 128,-1,14
 490 3 490 3 446 3 c 0,15,16
 403 3 403 3 365.5 9.5 c 128,-1,17
 328 16 328 16 300 27 c 128,-1,18
 272 38 272 38 256.5 53 c 128,-1,19
 241 68 241 68 241 85 c 0,0,1
321 85 m 256,20,21
 321 74 321 74 330.5 64.5 c 128,-1,22
 340 55 340 55 357 48.5 c 128,-1,23
 374 42 374 42 397 38 c 128,-1,24
 420 34 420 34 446 34 c 0,25,26
 473 34 473 34 495.5 38 c 128,-1,27
 518 42 518 42 535 48.5 c 128,-1,28
 552 55 552 55 561.5 64.5 c 128,-1,29
 571 74 571 74 571 85 c 256,30,31
 571 96 571 96 561.5 105.5 c 128,-1,32
 552 115 552 115 535 122 c 128,-1,33
 518 129 518 129 495.5 133 c 128,-1,34
 473 137 473 137 446 137 c 0,35,36
 420 137 420 137 397 133 c 128,-1,37
 374 129 374 129 357 122 c 128,-1,38
 340 115 340 115 330.5 105.5 c 128,-1,39
 321 96 321 96 321 85 c 256,20,21
241 272 m 0,40,41
 241 290 241 290 256.5 305 c 128,-1,42
 272 320 272 320 300 331.5 c 128,-1,43
 328 343 328 343 365.5 349 c 128,-1,44
 403 355 403 355 446 355 c 0,45,46
 490 355 490 355 527.5 349 c 128,-1,47
 565 343 565 343 592.5 331.5 c 128,-1,48
 620 320 620 320 636 305 c 128,-1,49
 652 290 652 290 652 272 c 0,50,51
 652 255 652 255 636 240 c 128,-1,52
 620 225 620 225 592.5 214 c 128,-1,53
 565 203 565 203 527.5 196 c 128,-1,54
 490 189 490 189 446 189 c 0,55,56
 403 189 403 189 365.5 196 c 128,-1,57
 328 203 328 203 300 214 c 128,-1,58
 272 225 272 225 256.5 240 c 128,-1,59
 241 255 241 255 241 272 c 0,40,41
241 461 m 256,60,61
 241 478 241 478 256.5 493.5 c 128,-1,62
 272 509 272 509 300 520 c 128,-1,63
 328 531 328 531 365.5 537.5 c 128,-1,64
 403 544 403 544 446 544 c 0,65,66
 490 544 490 544 527.5 537.5 c 128,-1,67
 565 531 565 531 592.5 520 c 128,-1,68
 620 509 620 509 636 493.5 c 128,-1,69
 652 478 652 478 652 461 c 256,70,71
 652 444 652 444 636 429 c 128,-1,72
 620 414 620 414 592.5 402.5 c 128,-1,73
 565 391 565 391 527.5 384.5 c 128,-1,74
 490 378 490 378 446 378 c 0,75,76
 403 378 403 378 365.5 384.5 c 128,-1,77
 328 391 328 391 300 402.5 c 128,-1,78
 272 414 272 414 256.5 429 c 128,-1,79
 241 444 241 444 241 461 c 256,60,61
241 648 m 256,80,81
 241 665 241 665 256.5 680.5 c 128,-1,82
 272 696 272 696 300 707 c 128,-1,83
 328 718 328 718 365.5 724.5 c 128,-1,84
 403 731 403 731 446 731 c 0,85,86
 490 731 490 731 527.5 724.5 c 128,-1,87
 565 718 565 718 592.5 707 c 128,-1,88
 620 696 620 696 636 680.5 c 128,-1,89
 652 665 652 665 652 648 c 256,90,91
 652 631 652 631 636 616 c 128,-1,92
 620 601 620 601 592.5 589.5 c 128,-1,93
 565 578 565 578 527.5 571.5 c 128,-1,94
 490 565 490 565 446 565 c 0,95,96
 403 565 403 565 365.5 571.5 c 128,-1,97
 328 578 328 578 300 589.5 c 128,-1,98
 272 601 272 601 256.5 616 c 128,-1,99
 241 631 241 631 241 648 c 256,80,81
321 648 m 0,100,101
 321 637 321 637 330.5 627.5 c 128,-1,102
 340 618 340 618 357 611 c 128,-1,103
 374 604 374 604 397 600 c 128,-1,104
 420 596 420 596 446 596 c 0,105,106
 473 596 473 596 495.5 600 c 128,-1,107
 518 604 518 604 535 611 c 128,-1,108
 552 618 552 618 561.5 627.5 c 128,-1,109
 571 637 571 637 571 648 c 0,110,111
 571 658 571 658 561.5 668 c 128,-1,112
 552 678 552 678 535 685 c 128,-1,113
 518 692 518 692 495.5 696 c 128,-1,114
 473 700 473 700 446 700 c 0,115,116
 420 700 420 700 397 696 c 128,-1,117
 374 692 374 692 357 685 c 128,-1,118
 340 678 340 678 330.5 668 c 128,-1,119
 321 658 321 658 321 648 c 0,100,101
EndSplineSet
Validated: 1
EndChar

StartChar: uni0087
Encoding: 135 135 104
Width: 893
Flags: W
LayerCount: 2
Fore
SplineSet
241 85 m 0,0,1
 241 103 241 103 256.5 118 c 128,-1,2
 272 133 272 133 300 144.5 c 128,-1,3
 328 156 328 156 365.5 162.5 c 128,-1,4
 403 169 403 169 446 169 c 0,5,6
 490 169 490 169 527.5 162.5 c 128,-1,7
 565 156 565 156 592.5 144.5 c 128,-1,8
 620 133 620 133 636 118 c 128,-1,9
 652 103 652 103 652 85 c 0,10,11
 652 68 652 68 636 53 c 128,-1,12
 620 38 620 38 592.5 27 c 128,-1,13
 565 16 565 16 527.5 9.5 c 128,-1,14
 490 3 490 3 446 3 c 0,15,16
 403 3 403 3 365.5 9.5 c 128,-1,17
 328 16 328 16 300 27 c 128,-1,18
 272 38 272 38 256.5 53 c 128,-1,19
 241 68 241 68 241 85 c 0,0,1
241 272 m 0,20,21
 241 290 241 290 256.5 305 c 128,-1,22
 272 320 272 320 300 331.5 c 128,-1,23
 328 343 328 343 365.5 349 c 128,-1,24
 403 355 403 355 446 355 c 0,25,26
 490 355 490 355 527.5 349 c 128,-1,27
 565 343 565 343 592.5 331.5 c 128,-1,28
 620 320 620 320 636 305 c 128,-1,29
 652 290 652 290 652 272 c 0,30,31
 652 255 652 255 636 240 c 128,-1,32
 620 225 620 225 592.5 214 c 128,-1,33
 565 203 565 203 527.5 196 c 128,-1,34
 490 189 490 189 446 189 c 0,35,36
 403 189 403 189 365.5 196 c 128,-1,37
 328 203 328 203 300 214 c 128,-1,38
 272 225 272 225 256.5 240 c 128,-1,39
 241 255 241 255 241 272 c 0,20,21
241 461 m 256,40,41
 241 478 241 478 256.5 493.5 c 128,-1,42
 272 509 272 509 300 520 c 128,-1,43
 328 531 328 531 365.5 537.5 c 128,-1,44
 403 544 403 544 446 544 c 0,45,46
 490 544 490 544 527.5 537.5 c 128,-1,47
 565 531 565 531 592.5 520 c 128,-1,48
 620 509 620 509 636 493.5 c 128,-1,49
 652 478 652 478 652 461 c 256,50,51
 652 444 652 444 636 429 c 128,-1,52
 620 414 620 414 592.5 402.5 c 128,-1,53
 565 391 565 391 527.5 384.5 c 128,-1,54
 490 378 490 378 446 378 c 0,55,56
 403 378 403 378 365.5 384.5 c 128,-1,57
 328 391 328 391 300 402.5 c 128,-1,58
 272 414 272 414 256.5 429 c 128,-1,59
 241 444 241 444 241 461 c 256,40,41
241 648 m 256,60,61
 241 665 241 665 256.5 680.5 c 128,-1,62
 272 696 272 696 300 707 c 128,-1,63
 328 718 328 718 365.5 724.5 c 128,-1,64
 403 731 403 731 446 731 c 0,65,66
 490 731 490 731 527.5 724.5 c 128,-1,67
 565 718 565 718 592.5 707 c 128,-1,68
 620 696 620 696 636 680.5 c 128,-1,69
 652 665 652 665 652 648 c 256,70,71
 652 631 652 631 636 616 c 128,-1,72
 620 601 620 601 592.5 589.5 c 128,-1,73
 565 578 565 578 527.5 571.5 c 128,-1,74
 490 565 490 565 446 565 c 0,75,76
 403 565 403 565 365.5 571.5 c 128,-1,77
 328 578 328 578 300 589.5 c 128,-1,78
 272 601 272 601 256.5 616 c 128,-1,79
 241 631 241 631 241 648 c 256,60,61
321 648 m 0,80,81
 321 637 321 637 330.5 627.5 c 128,-1,82
 340 618 340 618 357 611 c 128,-1,83
 374 604 374 604 397 600 c 128,-1,84
 420 596 420 596 446 596 c 0,85,86
 473 596 473 596 495.5 600 c 128,-1,87
 518 604 518 604 535 611 c 128,-1,88
 552 618 552 618 561.5 627.5 c 128,-1,89
 571 637 571 637 571 648 c 0,90,91
 571 658 571 658 561.5 668 c 128,-1,92
 552 678 552 678 535 685 c 128,-1,93
 518 692 518 692 495.5 696 c 128,-1,94
 473 700 473 700 446 700 c 0,95,96
 420 700 420 700 397 696 c 128,-1,97
 374 692 374 692 357 685 c 128,-1,98
 340 678 340 678 330.5 668 c 128,-1,99
 321 658 321 658 321 648 c 0,80,81
EndSplineSet
Validated: 1
EndChar

StartChar: uni0088
Encoding: 136 136 105
Width: 893
Flags: W
LayerCount: 2
Fore
SplineSet
241 85 m 0,0,1
 241 103 241 103 256.5 118 c 128,-1,2
 272 133 272 133 300 144.5 c 128,-1,3
 328 156 328 156 365.5 162.5 c 128,-1,4
 403 169 403 169 446 169 c 0,5,6
 490 169 490 169 527.5 162.5 c 128,-1,7
 565 156 565 156 592.5 144.5 c 128,-1,8
 620 133 620 133 636 118 c 128,-1,9
 652 103 652 103 652 85 c 0,10,11
 652 68 652 68 636 53 c 128,-1,12
 620 38 620 38 592.5 27 c 128,-1,13
 565 16 565 16 527.5 9.5 c 128,-1,14
 490 3 490 3 446 3 c 0,15,16
 403 3 403 3 365.5 9.5 c 128,-1,17
 328 16 328 16 300 27 c 128,-1,18
 272 38 272 38 256.5 53 c 128,-1,19
 241 68 241 68 241 85 c 0,0,1
321 85 m 256,20,21
 321 74 321 74 330.5 64.5 c 128,-1,22
 340 55 340 55 357 48.5 c 128,-1,23
 374 42 374 42 397 38 c 128,-1,24
 420 34 420 34 446 34 c 0,25,26
 473 34 473 34 495.5 38 c 128,-1,27
 518 42 518 42 535 48.5 c 128,-1,28
 552 55 552 55 561.5 64.5 c 128,-1,29
 571 74 571 74 571 85 c 256,30,31
 571 96 571 96 561.5 105.5 c 128,-1,32
 552 115 552 115 535 122 c 128,-1,33
 518 129 518 129 495.5 133 c 128,-1,34
 473 137 473 137 446 137 c 0,35,36
 420 137 420 137 397 133 c 128,-1,37
 374 129 374 129 357 122 c 128,-1,38
 340 115 340 115 330.5 105.5 c 128,-1,39
 321 96 321 96 321 85 c 256,20,21
241 272 m 0,40,41
 241 290 241 290 256.5 305 c 128,-1,42
 272 320 272 320 300 331.5 c 128,-1,43
 328 343 328 343 365.5 349 c 128,-1,44
 403 355 403 355 446 355 c 0,45,46
 490 355 490 355 527.5 349 c 128,-1,47
 565 343 565 343 592.5 331.5 c 128,-1,48
 620 320 620 320 636 305 c 128,-1,49
 652 290 652 290 652 272 c 0,50,51
 652 255 652 255 636 240 c 128,-1,52
 620 225 620 225 592.5 214 c 128,-1,53
 565 203 565 203 527.5 196 c 128,-1,54
 490 189 490 189 446 189 c 0,55,56
 403 189 403 189 365.5 196 c 128,-1,57
 328 203 328 203 300 214 c 128,-1,58
 272 225 272 225 256.5 240 c 128,-1,59
 241 255 241 255 241 272 c 0,40,41
321 272 m 256,60,61
 321 261 321 261 330.5 251.5 c 128,-1,62
 340 242 340 242 357 235 c 128,-1,63
 374 228 374 228 397 224 c 128,-1,64
 420 220 420 220 446 220 c 0,65,66
 473 220 473 220 495.5 224 c 128,-1,67
 518 228 518 228 535 235 c 128,-1,68
 552 242 552 242 561.5 251.5 c 128,-1,69
 571 261 571 261 571 272 c 256,70,71
 571 283 571 283 561.5 292.5 c 128,-1,72
 552 302 552 302 535 309 c 128,-1,73
 518 316 518 316 495.5 320 c 128,-1,74
 473 324 473 324 446 324 c 0,75,76
 420 324 420 324 397 320 c 128,-1,77
 374 316 374 316 357 309 c 128,-1,78
 340 302 340 302 330.5 292.5 c 128,-1,79
 321 283 321 283 321 272 c 256,60,61
241 461 m 256,80,81
 241 478 241 478 256.5 493.5 c 128,-1,82
 272 509 272 509 300 520 c 128,-1,83
 328 531 328 531 365.5 537.5 c 128,-1,84
 403 544 403 544 446 544 c 0,85,86
 490 544 490 544 527.5 537.5 c 128,-1,87
 565 531 565 531 592.5 520 c 128,-1,88
 620 509 620 509 636 493.5 c 128,-1,89
 652 478 652 478 652 461 c 256,90,91
 652 444 652 444 636 429 c 128,-1,92
 620 414 620 414 592.5 402.5 c 128,-1,93
 565 391 565 391 527.5 384.5 c 128,-1,94
 490 378 490 378 446 378 c 0,95,96
 403 378 403 378 365.5 384.5 c 128,-1,97
 328 391 328 391 300 402.5 c 128,-1,98
 272 414 272 414 256.5 429 c 128,-1,99
 241 444 241 444 241 461 c 256,80,81
321 461 m 256,100,101
 321 450 321 450 330.5 440.5 c 128,-1,102
 340 431 340 431 357 424 c 128,-1,103
 374 417 374 417 397 413 c 128,-1,104
 420 409 420 409 446 409 c 0,105,106
 473 409 473 409 495.5 413 c 128,-1,107
 518 417 518 417 535 424 c 128,-1,108
 552 431 552 431 561.5 440.5 c 128,-1,109
 571 450 571 450 571 461 c 256,110,111
 571 472 571 472 561.5 481.5 c 128,-1,112
 552 491 552 491 535 498 c 128,-1,113
 518 505 518 505 495.5 509 c 128,-1,114
 473 513 473 513 446 513 c 0,115,116
 420 513 420 513 397 509 c 128,-1,117
 374 505 374 505 357 498 c 128,-1,118
 340 491 340 491 330.5 481.5 c 128,-1,119
 321 472 321 472 321 461 c 256,100,101
241 648 m 256,120,121
 241 665 241 665 256.5 680.5 c 128,-1,122
 272 696 272 696 300 707 c 128,-1,123
 328 718 328 718 365.5 724.5 c 128,-1,124
 403 731 403 731 446 731 c 0,125,126
 490 731 490 731 527.5 724.5 c 128,-1,127
 565 718 565 718 592.5 707 c 128,-1,128
 620 696 620 696 636 680.5 c 128,-1,129
 652 665 652 665 652 648 c 256,130,131
 652 631 652 631 636 616 c 128,-1,132
 620 601 620 601 592.5 589.5 c 128,-1,133
 565 578 565 578 527.5 571.5 c 128,-1,134
 490 565 490 565 446 565 c 0,135,136
 403 565 403 565 365.5 571.5 c 128,-1,137
 328 578 328 578 300 589.5 c 128,-1,138
 272 601 272 601 256.5 616 c 128,-1,139
 241 631 241 631 241 648 c 256,120,121
EndSplineSet
Validated: 1
EndChar

StartChar: uni0089
Encoding: 137 137 106
Width: 893
Flags: W
LayerCount: 2
Fore
SplineSet
241 85 m 0,0,1
 241 103 241 103 256.5 118 c 128,-1,2
 272 133 272 133 300 144.5 c 128,-1,3
 328 156 328 156 365.5 162.5 c 128,-1,4
 403 169 403 169 446 169 c 0,5,6
 490 169 490 169 527.5 162.5 c 128,-1,7
 565 156 565 156 592.5 144.5 c 128,-1,8
 620 133 620 133 636 118 c 128,-1,9
 652 103 652 103 652 85 c 0,10,11
 652 68 652 68 636 53 c 128,-1,12
 620 38 620 38 592.5 27 c 128,-1,13
 565 16 565 16 527.5 9.5 c 128,-1,14
 490 3 490 3 446 3 c 0,15,16
 403 3 403 3 365.5 9.5 c 128,-1,17
 328 16 328 16 300 27 c 128,-1,18
 272 38 272 38 256.5 53 c 128,-1,19
 241 68 241 68 241 85 c 0,0,1
241 272 m 0,20,21
 241 290 241 290 256.5 305 c 128,-1,22
 272 320 272 320 300 331.5 c 128,-1,23
 328 343 328 343 365.5 349 c 128,-1,24
 403 355 403 355 446 355 c 0,25,26
 490 355 490 355 527.5 349 c 128,-1,27
 565 343 565 343 592.5 331.5 c 128,-1,28
 620 320 620 320 636 305 c 128,-1,29
 652 290 652 290 652 272 c 0,30,31
 652 255 652 255 636 240 c 128,-1,32
 620 225 620 225 592.5 214 c 128,-1,33
 565 203 565 203 527.5 196 c 128,-1,34
 490 189 490 189 446 189 c 0,35,36
 403 189 403 189 365.5 196 c 128,-1,37
 328 203 328 203 300 214 c 128,-1,38
 272 225 272 225 256.5 240 c 128,-1,39
 241 255 241 255 241 272 c 0,20,21
321 272 m 256,40,41
 321 261 321 261 330.5 251.5 c 128,-1,42
 340 242 340 242 357 235 c 128,-1,43
 374 228 374 228 397 224 c 128,-1,44
 420 220 420 220 446 220 c 0,45,46
 473 220 473 220 495.5 224 c 128,-1,47
 518 228 518 228 535 235 c 128,-1,48
 552 242 552 242 561.5 251.5 c 128,-1,49
 571 261 571 261 571 272 c 256,50,51
 571 283 571 283 561.5 292.5 c 128,-1,52
 552 302 552 302 535 309 c 128,-1,53
 518 316 518 316 495.5 320 c 128,-1,54
 473 324 473 324 446 324 c 0,55,56
 420 324 420 324 397 320 c 128,-1,57
 374 316 374 316 357 309 c 128,-1,58
 340 302 340 302 330.5 292.5 c 128,-1,59
 321 283 321 283 321 272 c 256,40,41
241 461 m 256,60,61
 241 478 241 478 256.5 493.5 c 128,-1,62
 272 509 272 509 300 520 c 128,-1,63
 328 531 328 531 365.5 537.5 c 128,-1,64
 403 544 403 544 446 544 c 0,65,66
 490 544 490 544 527.5 537.5 c 128,-1,67
 565 531 565 531 592.5 520 c 128,-1,68
 620 509 620 509 636 493.5 c 128,-1,69
 652 478 652 478 652 461 c 256,70,71
 652 444 652 444 636 429 c 128,-1,72
 620 414 620 414 592.5 402.5 c 128,-1,73
 565 391 565 391 527.5 384.5 c 128,-1,74
 490 378 490 378 446 378 c 0,75,76
 403 378 403 378 365.5 384.5 c 128,-1,77
 328 391 328 391 300 402.5 c 128,-1,78
 272 414 272 414 256.5 429 c 128,-1,79
 241 444 241 444 241 461 c 256,60,61
321 461 m 256,80,81
 321 450 321 450 330.5 440.5 c 128,-1,82
 340 431 340 431 357 424 c 128,-1,83
 374 417 374 417 397 413 c 128,-1,84
 420 409 420 409 446 409 c 0,85,86
 473 409 473 409 495.5 413 c 128,-1,87
 518 417 518 417 535 424 c 128,-1,88
 552 431 552 431 561.5 440.5 c 128,-1,89
 571 450 571 450 571 461 c 256,90,91
 571 472 571 472 561.5 481.5 c 128,-1,92
 552 491 552 491 535 498 c 128,-1,93
 518 505 518 505 495.5 509 c 128,-1,94
 473 513 473 513 446 513 c 0,95,96
 420 513 420 513 397 509 c 128,-1,97
 374 505 374 505 357 498 c 128,-1,98
 340 491 340 491 330.5 481.5 c 128,-1,99
 321 472 321 472 321 461 c 256,80,81
241 648 m 256,100,101
 241 665 241 665 256.5 680.5 c 128,-1,102
 272 696 272 696 300 707 c 128,-1,103
 328 718 328 718 365.5 724.5 c 128,-1,104
 403 731 403 731 446 731 c 0,105,106
 490 731 490 731 527.5 724.5 c 128,-1,107
 565 718 565 718 592.5 707 c 128,-1,108
 620 696 620 696 636 680.5 c 128,-1,109
 652 665 652 665 652 648 c 256,110,111
 652 631 652 631 636 616 c 128,-1,112
 620 601 620 601 592.5 589.5 c 128,-1,113
 565 578 565 578 527.5 571.5 c 128,-1,114
 490 565 490 565 446 565 c 0,115,116
 403 565 403 565 365.5 571.5 c 128,-1,117
 328 578 328 578 300 589.5 c 128,-1,118
 272 601 272 601 256.5 616 c 128,-1,119
 241 631 241 631 241 648 c 256,100,101
EndSplineSet
Validated: 1
EndChar

StartChar: uni008A
Encoding: 138 138 107
Width: 893
Flags: W
LayerCount: 2
Fore
SplineSet
241 85 m 0,0,1
 241 103 241 103 256.5 118 c 128,-1,2
 272 133 272 133 300 144.5 c 128,-1,3
 328 156 328 156 365.5 162.5 c 128,-1,4
 403 169 403 169 446 169 c 0,5,6
 490 169 490 169 527.5 162.5 c 128,-1,7
 565 156 565 156 592.5 144.5 c 128,-1,8
 620 133 620 133 636 118 c 128,-1,9
 652 103 652 103 652 85 c 0,10,11
 652 68 652 68 636 53 c 128,-1,12
 620 38 620 38 592.5 27 c 128,-1,13
 565 16 565 16 527.5 9.5 c 128,-1,14
 490 3 490 3 446 3 c 0,15,16
 403 3 403 3 365.5 9.5 c 128,-1,17
 328 16 328 16 300 27 c 128,-1,18
 272 38 272 38 256.5 53 c 128,-1,19
 241 68 241 68 241 85 c 0,0,1
321 85 m 256,20,21
 321 74 321 74 330.5 64.5 c 128,-1,22
 340 55 340 55 357 48.5 c 128,-1,23
 374 42 374 42 397 38 c 128,-1,24
 420 34 420 34 446 34 c 0,25,26
 473 34 473 34 495.5 38 c 128,-1,27
 518 42 518 42 535 48.5 c 128,-1,28
 552 55 552 55 561.5 64.5 c 128,-1,29
 571 74 571 74 571 85 c 256,30,31
 571 96 571 96 561.5 105.5 c 128,-1,32
 552 115 552 115 535 122 c 128,-1,33
 518 129 518 129 495.5 133 c 128,-1,34
 473 137 473 137 446 137 c 0,35,36
 420 137 420 137 397 133 c 128,-1,37
 374 129 374 129 357 122 c 128,-1,38
 340 115 340 115 330.5 105.5 c 128,-1,39
 321 96 321 96 321 85 c 256,20,21
241 272 m 0,40,41
 241 290 241 290 256.5 305 c 128,-1,42
 272 320 272 320 300 331.5 c 128,-1,43
 328 343 328 343 365.5 349 c 128,-1,44
 403 355 403 355 446 355 c 0,45,46
 490 355 490 355 527.5 349 c 128,-1,47
 565 343 565 343 592.5 331.5 c 128,-1,48
 620 320 620 320 636 305 c 128,-1,49
 652 290 652 290 652 272 c 0,50,51
 652 255 652 255 636 240 c 128,-1,52
 620 225 620 225 592.5 214 c 128,-1,53
 565 203 565 203 527.5 196 c 128,-1,54
 490 189 490 189 446 189 c 0,55,56
 403 189 403 189 365.5 196 c 128,-1,57
 328 203 328 203 300 214 c 128,-1,58
 272 225 272 225 256.5 240 c 128,-1,59
 241 255 241 255 241 272 c 0,40,41
241 461 m 256,60,61
 241 478 241 478 256.5 493.5 c 128,-1,62
 272 509 272 509 300 520 c 128,-1,63
 328 531 328 531 365.5 537.5 c 128,-1,64
 403 544 403 544 446 544 c 0,65,66
 490 544 490 544 527.5 537.5 c 128,-1,67
 565 531 565 531 592.5 520 c 128,-1,68
 620 509 620 509 636 493.5 c 128,-1,69
 652 478 652 478 652 461 c 256,70,71
 652 444 652 444 636 429 c 128,-1,72
 620 414 620 414 592.5 402.5 c 128,-1,73
 565 391 565 391 527.5 384.5 c 128,-1,74
 490 378 490 378 446 378 c 0,75,76
 403 378 403 378 365.5 384.5 c 128,-1,77
 328 391 328 391 300 402.5 c 128,-1,78
 272 414 272 414 256.5 429 c 128,-1,79
 241 444 241 444 241 461 c 256,60,61
321 461 m 256,80,81
 321 450 321 450 330.5 440.5 c 128,-1,82
 340 431 340 431 357 424 c 128,-1,83
 374 417 374 417 397 413 c 128,-1,84
 420 409 420 409 446 409 c 0,85,86
 473 409 473 409 495.5 413 c 128,-1,87
 518 417 518 417 535 424 c 128,-1,88
 552 431 552 431 561.5 440.5 c 128,-1,89
 571 450 571 450 571 461 c 256,90,91
 571 472 571 472 561.5 481.5 c 128,-1,92
 552 491 552 491 535 498 c 128,-1,93
 518 505 518 505 495.5 509 c 128,-1,94
 473 513 473 513 446 513 c 0,95,96
 420 513 420 513 397 509 c 128,-1,97
 374 505 374 505 357 498 c 128,-1,98
 340 491 340 491 330.5 481.5 c 128,-1,99
 321 472 321 472 321 461 c 256,80,81
241 648 m 256,100,101
 241 665 241 665 256.5 680.5 c 128,-1,102
 272 696 272 696 300 707 c 128,-1,103
 328 718 328 718 365.5 724.5 c 128,-1,104
 403 731 403 731 446 731 c 0,105,106
 490 731 490 731 527.5 724.5 c 128,-1,107
 565 718 565 718 592.5 707 c 128,-1,108
 620 696 620 696 636 680.5 c 128,-1,109
 652 665 652 665 652 648 c 256,110,111
 652 631 652 631 636 616 c 128,-1,112
 620 601 620 601 592.5 589.5 c 128,-1,113
 565 578 565 578 527.5 571.5 c 128,-1,114
 490 565 490 565 446 565 c 0,115,116
 403 565 403 565 365.5 571.5 c 128,-1,117
 328 578 328 578 300 589.5 c 128,-1,118
 272 601 272 601 256.5 616 c 128,-1,119
 241 631 241 631 241 648 c 256,100,101
EndSplineSet
Validated: 1
EndChar

StartChar: uni008B
Encoding: 139 139 108
Width: 893
Flags: W
LayerCount: 2
Fore
SplineSet
241 85 m 0,0,1
 241 103 241 103 256.5 118 c 128,-1,2
 272 133 272 133 300 144.5 c 128,-1,3
 328 156 328 156 365.5 162.5 c 128,-1,4
 403 169 403 169 446 169 c 0,5,6
 490 169 490 169 527.5 162.5 c 128,-1,7
 565 156 565 156 592.5 144.5 c 128,-1,8
 620 133 620 133 636 118 c 128,-1,9
 652 103 652 103 652 85 c 0,10,11
 652 68 652 68 636 53 c 128,-1,12
 620 38 620 38 592.5 27 c 128,-1,13
 565 16 565 16 527.5 9.5 c 128,-1,14
 490 3 490 3 446 3 c 0,15,16
 403 3 403 3 365.5 9.5 c 128,-1,17
 328 16 328 16 300 27 c 128,-1,18
 272 38 272 38 256.5 53 c 128,-1,19
 241 68 241 68 241 85 c 0,0,1
241 272 m 0,20,21
 241 290 241 290 256.5 305 c 128,-1,22
 272 320 272 320 300 331.5 c 128,-1,23
 328 343 328 343 365.5 349 c 128,-1,24
 403 355 403 355 446 355 c 0,25,26
 490 355 490 355 527.5 349 c 128,-1,27
 565 343 565 343 592.5 331.5 c 128,-1,28
 620 320 620 320 636 305 c 128,-1,29
 652 290 652 290 652 272 c 0,30,31
 652 255 652 255 636 240 c 128,-1,32
 620 225 620 225 592.5 214 c 128,-1,33
 565 203 565 203 527.5 196 c 128,-1,34
 490 189 490 189 446 189 c 0,35,36
 403 189 403 189 365.5 196 c 128,-1,37
 328 203 328 203 300 214 c 128,-1,38
 272 225 272 225 256.5 240 c 128,-1,39
 241 255 241 255 241 272 c 0,20,21
241 461 m 256,40,41
 241 478 241 478 256.5 493.5 c 128,-1,42
 272 509 272 509 300 520 c 128,-1,43
 328 531 328 531 365.5 537.5 c 128,-1,44
 403 544 403 544 446 544 c 0,45,46
 490 544 490 544 527.5 537.5 c 128,-1,47
 565 531 565 531 592.5 520 c 128,-1,48
 620 509 620 509 636 493.5 c 128,-1,49
 652 478 652 478 652 461 c 256,50,51
 652 444 652 444 636 429 c 128,-1,52
 620 414 620 414 592.5 402.5 c 128,-1,53
 565 391 565 391 527.5 384.5 c 128,-1,54
 490 378 490 378 446 378 c 0,55,56
 403 378 403 378 365.5 384.5 c 128,-1,57
 328 391 328 391 300 402.5 c 128,-1,58
 272 414 272 414 256.5 429 c 128,-1,59
 241 444 241 444 241 461 c 256,40,41
321 461 m 256,60,61
 321 450 321 450 330.5 440.5 c 128,-1,62
 340 431 340 431 357 424 c 128,-1,63
 374 417 374 417 397 413 c 128,-1,64
 420 409 420 409 446 409 c 0,65,66
 473 409 473 409 495.5 413 c 128,-1,67
 518 417 518 417 535 424 c 128,-1,68
 552 431 552 431 561.5 440.5 c 128,-1,69
 571 450 571 450 571 461 c 256,70,71
 571 472 571 472 561.5 481.5 c 128,-1,72
 552 491 552 491 535 498 c 128,-1,73
 518 505 518 505 495.5 509 c 128,-1,74
 473 513 473 513 446 513 c 0,75,76
 420 513 420 513 397 509 c 128,-1,77
 374 505 374 505 357 498 c 128,-1,78
 340 491 340 491 330.5 481.5 c 128,-1,79
 321 472 321 472 321 461 c 256,60,61
241 648 m 256,80,81
 241 665 241 665 256.5 680.5 c 128,-1,82
 272 696 272 696 300 707 c 128,-1,83
 328 718 328 718 365.5 724.5 c 128,-1,84
 403 731 403 731 446 731 c 0,85,86
 490 731 490 731 527.5 724.5 c 128,-1,87
 565 718 565 718 592.5 707 c 128,-1,88
 620 696 620 696 636 680.5 c 128,-1,89
 652 665 652 665 652 648 c 256,90,91
 652 631 652 631 636 616 c 128,-1,92
 620 601 620 601 592.5 589.5 c 128,-1,93
 565 578 565 578 527.5 571.5 c 128,-1,94
 490 565 490 565 446 565 c 0,95,96
 403 565 403 565 365.5 571.5 c 128,-1,97
 328 578 328 578 300 589.5 c 128,-1,98
 272 601 272 601 256.5 616 c 128,-1,99
 241 631 241 631 241 648 c 256,80,81
EndSplineSet
Validated: 1
EndChar

StartChar: uni008C
Encoding: 140 140 109
Width: 893
Flags: W
LayerCount: 2
Fore
SplineSet
241 85 m 0,0,1
 241 103 241 103 256.5 118 c 128,-1,2
 272 133 272 133 300 144.5 c 128,-1,3
 328 156 328 156 365.5 162.5 c 128,-1,4
 403 169 403 169 446 169 c 0,5,6
 490 169 490 169 527.5 162.5 c 128,-1,7
 565 156 565 156 592.5 144.5 c 128,-1,8
 620 133 620 133 636 118 c 128,-1,9
 652 103 652 103 652 85 c 0,10,11
 652 68 652 68 636 53 c 128,-1,12
 620 38 620 38 592.5 27 c 128,-1,13
 565 16 565 16 527.5 9.5 c 128,-1,14
 490 3 490 3 446 3 c 0,15,16
 403 3 403 3 365.5 9.5 c 128,-1,17
 328 16 328 16 300 27 c 128,-1,18
 272 38 272 38 256.5 53 c 128,-1,19
 241 68 241 68 241 85 c 0,0,1
321 85 m 256,20,21
 321 74 321 74 330.5 64.5 c 128,-1,22
 340 55 340 55 357 48.5 c 128,-1,23
 374 42 374 42 397 38 c 128,-1,24
 420 34 420 34 446 34 c 0,25,26
 473 34 473 34 495.5 38 c 128,-1,27
 518 42 518 42 535 48.5 c 128,-1,28
 552 55 552 55 561.5 64.5 c 128,-1,29
 571 74 571 74 571 85 c 256,30,31
 571 96 571 96 561.5 105.5 c 128,-1,32
 552 115 552 115 535 122 c 128,-1,33
 518 129 518 129 495.5 133 c 128,-1,34
 473 137 473 137 446 137 c 0,35,36
 420 137 420 137 397 133 c 128,-1,37
 374 129 374 129 357 122 c 128,-1,38
 340 115 340 115 330.5 105.5 c 128,-1,39
 321 96 321 96 321 85 c 256,20,21
241 272 m 0,40,41
 241 290 241 290 256.5 305 c 128,-1,42
 272 320 272 320 300 331.5 c 128,-1,43
 328 343 328 343 365.5 349 c 128,-1,44
 403 355 403 355 446 355 c 0,45,46
 490 355 490 355 527.5 349 c 128,-1,47
 565 343 565 343 592.5 331.5 c 128,-1,48
 620 320 620 320 636 305 c 128,-1,49
 652 290 652 290 652 272 c 0,50,51
 652 255 652 255 636 240 c 128,-1,52
 620 225 620 225 592.5 214 c 128,-1,53
 565 203 565 203 527.5 196 c 128,-1,54
 490 189 490 189 446 189 c 0,55,56
 403 189 403 189 365.5 196 c 128,-1,57
 328 203 328 203 300 214 c 128,-1,58
 272 225 272 225 256.5 240 c 128,-1,59
 241 255 241 255 241 272 c 0,40,41
321 272 m 256,60,61
 321 261 321 261 330.5 251.5 c 128,-1,62
 340 242 340 242 357 235 c 128,-1,63
 374 228 374 228 397 224 c 128,-1,64
 420 220 420 220 446 220 c 0,65,66
 473 220 473 220 495.5 224 c 128,-1,67
 518 228 518 228 535 235 c 128,-1,68
 552 242 552 242 561.5 251.5 c 128,-1,69
 571 261 571 261 571 272 c 256,70,71
 571 283 571 283 561.5 292.5 c 128,-1,72
 552 302 552 302 535 309 c 128,-1,73
 518 316 518 316 495.5 320 c 128,-1,74
 473 324 473 324 446 324 c 0,75,76
 420 324 420 324 397 320 c 128,-1,77
 374 316 374 316 357 309 c 128,-1,78
 340 302 340 302 330.5 292.5 c 128,-1,79
 321 283 321 283 321 272 c 256,60,61
241 461 m 256,80,81
 241 478 241 478 256.5 493.5 c 128,-1,82
 272 509 272 509 300 520 c 128,-1,83
 328 531 328 531 365.5 537.5 c 128,-1,84
 403 544 403 544 446 544 c 0,85,86
 490 544 490 544 527.5 537.5 c 128,-1,87
 565 531 565 531 592.5 520 c 128,-1,88
 620 509 620 509 636 493.5 c 128,-1,89
 652 478 652 478 652 461 c 256,90,91
 652 444 652 444 636 429 c 128,-1,92
 620 414 620 414 592.5 402.5 c 128,-1,93
 565 391 565 391 527.5 384.5 c 128,-1,94
 490 378 490 378 446 378 c 0,95,96
 403 378 403 378 365.5 384.5 c 128,-1,97
 328 391 328 391 300 402.5 c 128,-1,98
 272 414 272 414 256.5 429 c 128,-1,99
 241 444 241 444 241 461 c 256,80,81
241 648 m 256,100,101
 241 665 241 665 256.5 680.5 c 128,-1,102
 272 696 272 696 300 707 c 128,-1,103
 328 718 328 718 365.5 724.5 c 128,-1,104
 403 731 403 731 446 731 c 0,105,106
 490 731 490 731 527.5 724.5 c 128,-1,107
 565 718 565 718 592.5 707 c 128,-1,108
 620 696 620 696 636 680.5 c 128,-1,109
 652 665 652 665 652 648 c 256,110,111
 652 631 652 631 636 616 c 128,-1,112
 620 601 620 601 592.5 589.5 c 128,-1,113
 565 578 565 578 527.5 571.5 c 128,-1,114
 490 565 490 565 446 565 c 0,115,116
 403 565 403 565 365.5 571.5 c 128,-1,117
 328 578 328 578 300 589.5 c 128,-1,118
 272 601 272 601 256.5 616 c 128,-1,119
 241 631 241 631 241 648 c 256,100,101
EndSplineSet
Validated: 1
EndChar

StartChar: uni008D
Encoding: 141 141 110
Width: 893
Flags: W
LayerCount: 2
Fore
SplineSet
241 85 m 0,0,1
 241 103 241 103 256.5 118 c 128,-1,2
 272 133 272 133 300 144.5 c 128,-1,3
 328 156 328 156 365.5 162.5 c 128,-1,4
 403 169 403 169 446 169 c 0,5,6
 490 169 490 169 527.5 162.5 c 128,-1,7
 565 156 565 156 592.5 144.5 c 128,-1,8
 620 133 620 133 636 118 c 128,-1,9
 652 103 652 103 652 85 c 0,10,11
 652 68 652 68 636 53 c 128,-1,12
 620 38 620 38 592.5 27 c 128,-1,13
 565 16 565 16 527.5 9.5 c 128,-1,14
 490 3 490 3 446 3 c 0,15,16
 403 3 403 3 365.5 9.5 c 128,-1,17
 328 16 328 16 300 27 c 128,-1,18
 272 38 272 38 256.5 53 c 128,-1,19
 241 68 241 68 241 85 c 0,0,1
241 272 m 0,20,21
 241 290 241 290 256.5 305 c 128,-1,22
 272 320 272 320 300 331.5 c 128,-1,23
 328 343 328 343 365.5 349 c 128,-1,24
 403 355 403 355 446 355 c 0,25,26
 490 355 490 355 527.5 349 c 128,-1,27
 565 343 565 343 592.5 331.5 c 128,-1,28
 620 320 620 320 636 305 c 128,-1,29
 652 290 652 290 652 272 c 0,30,31
 652 255 652 255 636 240 c 128,-1,32
 620 225 620 225 592.5 214 c 128,-1,33
 565 203 565 203 527.5 196 c 128,-1,34
 490 189 490 189 446 189 c 0,35,36
 403 189 403 189 365.5 196 c 128,-1,37
 328 203 328 203 300 214 c 128,-1,38
 272 225 272 225 256.5 240 c 128,-1,39
 241 255 241 255 241 272 c 0,20,21
321 272 m 256,40,41
 321 261 321 261 330.5 251.5 c 128,-1,42
 340 242 340 242 357 235 c 128,-1,43
 374 228 374 228 397 224 c 128,-1,44
 420 220 420 220 446 220 c 0,45,46
 473 220 473 220 495.5 224 c 128,-1,47
 518 228 518 228 535 235 c 128,-1,48
 552 242 552 242 561.5 251.5 c 128,-1,49
 571 261 571 261 571 272 c 256,50,51
 571 283 571 283 561.5 292.5 c 128,-1,52
 552 302 552 302 535 309 c 128,-1,53
 518 316 518 316 495.5 320 c 128,-1,54
 473 324 473 324 446 324 c 0,55,56
 420 324 420 324 397 320 c 128,-1,57
 374 316 374 316 357 309 c 128,-1,58
 340 302 340 302 330.5 292.5 c 128,-1,59
 321 283 321 283 321 272 c 256,40,41
241 461 m 256,60,61
 241 478 241 478 256.5 493.5 c 128,-1,62
 272 509 272 509 300 520 c 128,-1,63
 328 531 328 531 365.5 537.5 c 128,-1,64
 403 544 403 544 446 544 c 0,65,66
 490 544 490 544 527.5 537.5 c 128,-1,67
 565 531 565 531 592.5 520 c 128,-1,68
 620 509 620 509 636 493.5 c 128,-1,69
 652 478 652 478 652 461 c 256,70,71
 652 444 652 444 636 429 c 128,-1,72
 620 414 620 414 592.5 402.5 c 128,-1,73
 565 391 565 391 527.5 384.5 c 128,-1,74
 490 378 490 378 446 378 c 0,75,76
 403 378 403 378 365.5 384.5 c 128,-1,77
 328 391 328 391 300 402.5 c 128,-1,78
 272 414 272 414 256.5 429 c 128,-1,79
 241 444 241 444 241 461 c 256,60,61
241 648 m 256,80,81
 241 665 241 665 256.5 680.5 c 128,-1,82
 272 696 272 696 300 707 c 128,-1,83
 328 718 328 718 365.5 724.5 c 128,-1,84
 403 731 403 731 446 731 c 0,85,86
 490 731 490 731 527.5 724.5 c 128,-1,87
 565 718 565 718 592.5 707 c 128,-1,88
 620 696 620 696 636 680.5 c 128,-1,89
 652 665 652 665 652 648 c 256,90,91
 652 631 652 631 636 616 c 128,-1,92
 620 601 620 601 592.5 589.5 c 128,-1,93
 565 578 565 578 527.5 571.5 c 128,-1,94
 490 565 490 565 446 565 c 0,95,96
 403 565 403 565 365.5 571.5 c 128,-1,97
 328 578 328 578 300 589.5 c 128,-1,98
 272 601 272 601 256.5 616 c 128,-1,99
 241 631 241 631 241 648 c 256,80,81
EndSplineSet
Validated: 1
EndChar

StartChar: uni008E
Encoding: 142 142 111
Width: 893
Flags: W
LayerCount: 2
Fore
SplineSet
241 85 m 0,0,1
 241 103 241 103 256.5 118 c 128,-1,2
 272 133 272 133 300 144.5 c 128,-1,3
 328 156 328 156 365.5 162.5 c 128,-1,4
 403 169 403 169 446 169 c 0,5,6
 490 169 490 169 527.5 162.5 c 128,-1,7
 565 156 565 156 592.5 144.5 c 128,-1,8
 620 133 620 133 636 118 c 128,-1,9
 652 103 652 103 652 85 c 0,10,11
 652 68 652 68 636 53 c 128,-1,12
 620 38 620 38 592.5 27 c 128,-1,13
 565 16 565 16 527.5 9.5 c 128,-1,14
 490 3 490 3 446 3 c 0,15,16
 403 3 403 3 365.5 9.5 c 128,-1,17
 328 16 328 16 300 27 c 128,-1,18
 272 38 272 38 256.5 53 c 128,-1,19
 241 68 241 68 241 85 c 0,0,1
321 85 m 256,20,21
 321 74 321 74 330.5 64.5 c 128,-1,22
 340 55 340 55 357 48.5 c 128,-1,23
 374 42 374 42 397 38 c 128,-1,24
 420 34 420 34 446 34 c 0,25,26
 473 34 473 34 495.5 38 c 128,-1,27
 518 42 518 42 535 48.5 c 128,-1,28
 552 55 552 55 561.5 64.5 c 128,-1,29
 571 74 571 74 571 85 c 256,30,31
 571 96 571 96 561.5 105.5 c 128,-1,32
 552 115 552 115 535 122 c 128,-1,33
 518 129 518 129 495.5 133 c 128,-1,34
 473 137 473 137 446 137 c 0,35,36
 420 137 420 137 397 133 c 128,-1,37
 374 129 374 129 357 122 c 128,-1,38
 340 115 340 115 330.5 105.5 c 128,-1,39
 321 96 321 96 321 85 c 256,20,21
241 272 m 0,40,41
 241 290 241 290 256.5 305 c 128,-1,42
 272 320 272 320 300 331.5 c 128,-1,43
 328 343 328 343 365.5 349 c 128,-1,44
 403 355 403 355 446 355 c 0,45,46
 490 355 490 355 527.5 349 c 128,-1,47
 565 343 565 343 592.5 331.5 c 128,-1,48
 620 320 620 320 636 305 c 128,-1,49
 652 290 652 290 652 272 c 0,50,51
 652 255 652 255 636 240 c 128,-1,52
 620 225 620 225 592.5 214 c 128,-1,53
 565 203 565 203 527.5 196 c 128,-1,54
 490 189 490 189 446 189 c 0,55,56
 403 189 403 189 365.5 196 c 128,-1,57
 328 203 328 203 300 214 c 128,-1,58
 272 225 272 225 256.5 240 c 128,-1,59
 241 255 241 255 241 272 c 0,40,41
241 461 m 256,60,61
 241 478 241 478 256.5 493.5 c 128,-1,62
 272 509 272 509 300 520 c 128,-1,63
 328 531 328 531 365.5 537.5 c 128,-1,64
 403 544 403 544 446 544 c 0,65,66
 490 544 490 544 527.5 537.5 c 128,-1,67
 565 531 565 531 592.5 520 c 128,-1,68
 620 509 620 509 636 493.5 c 128,-1,69
 652 478 652 478 652 461 c 256,70,71
 652 444 652 444 636 429 c 128,-1,72
 620 414 620 414 592.5 402.5 c 128,-1,73
 565 391 565 391 527.5 384.5 c 128,-1,74
 490 378 490 378 446 378 c 0,75,76
 403 378 403 378 365.5 384.5 c 128,-1,77
 328 391 328 391 300 402.5 c 128,-1,78
 272 414 272 414 256.5 429 c 128,-1,79
 241 444 241 444 241 461 c 256,60,61
241 648 m 256,80,81
 241 665 241 665 256.5 680.5 c 128,-1,82
 272 696 272 696 300 707 c 128,-1,83
 328 718 328 718 365.5 724.5 c 128,-1,84
 403 731 403 731 446 731 c 0,85,86
 490 731 490 731 527.5 724.5 c 128,-1,87
 565 718 565 718 592.5 707 c 128,-1,88
 620 696 620 696 636 680.5 c 128,-1,89
 652 665 652 665 652 648 c 256,90,91
 652 631 652 631 636 616 c 128,-1,92
 620 601 620 601 592.5 589.5 c 128,-1,93
 565 578 565 578 527.5 571.5 c 128,-1,94
 490 565 490 565 446 565 c 0,95,96
 403 565 403 565 365.5 571.5 c 128,-1,97
 328 578 328 578 300 589.5 c 128,-1,98
 272 601 272 601 256.5 616 c 128,-1,99
 241 631 241 631 241 648 c 256,80,81
EndSplineSet
Validated: 1
EndChar

StartChar: uni008F
Encoding: 143 143 112
Width: 893
Flags: W
LayerCount: 2
Fore
SplineSet
241 85 m 0,0,1
 241 103 241 103 256.5 118 c 128,-1,2
 272 133 272 133 300 144.5 c 128,-1,3
 328 156 328 156 365.5 162.5 c 128,-1,4
 403 169 403 169 446 169 c 0,5,6
 490 169 490 169 527.5 162.5 c 128,-1,7
 565 156 565 156 592.5 144.5 c 128,-1,8
 620 133 620 133 636 118 c 128,-1,9
 652 103 652 103 652 85 c 0,10,11
 652 68 652 68 636 53 c 128,-1,12
 620 38 620 38 592.5 27 c 128,-1,13
 565 16 565 16 527.5 9.5 c 128,-1,14
 490 3 490 3 446 3 c 0,15,16
 403 3 403 3 365.5 9.5 c 128,-1,17
 328 16 328 16 300 27 c 128,-1,18
 272 38 272 38 256.5 53 c 128,-1,19
 241 68 241 68 241 85 c 0,0,1
241 272 m 0,20,21
 241 290 241 290 256.5 305 c 128,-1,22
 272 320 272 320 300 331.5 c 128,-1,23
 328 343 328 343 365.5 349 c 128,-1,24
 403 355 403 355 446 355 c 0,25,26
 490 355 490 355 527.5 349 c 128,-1,27
 565 343 565 343 592.5 331.5 c 128,-1,28
 620 320 620 320 636 305 c 128,-1,29
 652 290 652 290 652 272 c 0,30,31
 652 255 652 255 636 240 c 128,-1,32
 620 225 620 225 592.5 214 c 128,-1,33
 565 203 565 203 527.5 196 c 128,-1,34
 490 189 490 189 446 189 c 0,35,36
 403 189 403 189 365.5 196 c 128,-1,37
 328 203 328 203 300 214 c 128,-1,38
 272 225 272 225 256.5 240 c 128,-1,39
 241 255 241 255 241 272 c 0,20,21
241 461 m 256,40,41
 241 478 241 478 256.5 493.5 c 128,-1,42
 272 509 272 509 300 520 c 128,-1,43
 328 531 328 531 365.5 537.5 c 128,-1,44
 403 544 403 544 446 544 c 0,45,46
 490 544 490 544 527.5 537.5 c 128,-1,47
 565 531 565 531 592.5 520 c 128,-1,48
 620 509 620 509 636 493.5 c 128,-1,49
 652 478 652 478 652 461 c 256,50,51
 652 444 652 444 636 429 c 128,-1,52
 620 414 620 414 592.5 402.5 c 128,-1,53
 565 391 565 391 527.5 384.5 c 128,-1,54
 490 378 490 378 446 378 c 0,55,56
 403 378 403 378 365.5 384.5 c 128,-1,57
 328 391 328 391 300 402.5 c 128,-1,58
 272 414 272 414 256.5 429 c 128,-1,59
 241 444 241 444 241 461 c 256,40,41
241 648 m 256,60,61
 241 665 241 665 256.5 680.5 c 128,-1,62
 272 696 272 696 300 707 c 128,-1,63
 328 718 328 718 365.5 724.5 c 128,-1,64
 403 731 403 731 446 731 c 0,65,66
 490 731 490 731 527.5 724.5 c 128,-1,67
 565 718 565 718 592.5 707 c 128,-1,68
 620 696 620 696 636 680.5 c 128,-1,69
 652 665 652 665 652 648 c 256,70,71
 652 631 652 631 636 616 c 128,-1,72
 620 601 620 601 592.5 589.5 c 128,-1,73
 565 578 565 578 527.5 571.5 c 128,-1,74
 490 565 490 565 446 565 c 0,75,76
 403 565 403 565 365.5 571.5 c 128,-1,77
 328 578 328 578 300 589.5 c 128,-1,78
 272 601 272 601 256.5 616 c 128,-1,79
 241 631 241 631 241 648 c 256,60,61
EndSplineSet
Validated: 1
EndChar

StartChar: uni0090
Encoding: 144 144 113
Width: 893
Flags: W
LayerCount: 2
Fore
SplineSet
445.5 -10 m 0,0,1
 330.5 -10 330.5 -10 274.5 87.5 c 128,-1,2
 218.5 185 218.5 185 218.5 358 c 0,3,4
 218.5 474 218.5 474 241 556 c 128,-1,5
 263.5 638 263.5 638 313.5 681.5 c 128,-1,6
 363.5 725 363.5 725 445.5 725 c 0,7,8
 561.5 725 561.5 725 618 628.5 c 128,-1,9
 674.5 532 674.5 532 674.5 358 c 0,10,11
 674.5 243 674.5 243 652 160.5 c 128,-1,12
 629.5 78 629.5 78 579 34 c 128,-1,13
 528.5 -10 528.5 -10 445.5 -10 c 0,0,1
445.5 66 m 256,14,15
 520.5 66 520.5 66 552.5 138 c 128,-1,16
 584.5 210 584.5 210 584.5 358 c 0,17,18
 584.5 504 584.5 504 552.5 576.5 c 128,-1,19
 520.5 649 520.5 649 445.5 649 c 256,20,21
 370.5 649 370.5 649 339.5 576.5 c 128,-1,22
 308.5 504 308.5 504 308.5 358 c 256,23,24
 308.5 212 308.5 212 339.5 139 c 128,-1,25
 370.5 66 370.5 66 445.5 66 c 256,14,15
EndSplineSet
Validated: 524289
EndChar

StartChar: uni0091
Encoding: 145 145 114
Width: 893
Flags: W
LayerCount: 2
Fore
SplineSet
490.5 0 m 1,0,-1
 490.5 446 l 2,1,2
 490.5 474 490.5 474 491.5 506.5 c 128,-1,3
 492.5 539 492.5 539 493.5 569.5 c 128,-1,4
 494.5 600 494.5 600 494.5 622 c 1,5,6
 478.5 605 478.5 605 467 594.5 c 128,-1,7
 455.5 584 455.5 584 435.5 567 c 2,8,-1
 363.5 508 l 1,9,-1
 316.5 568 l 1,10,-1
 503.5 714 l 1,11,-1
 576.5 714 l 1,12,-1
 576.5 0 l 1,13,-1
 490.5 0 l 1,0,-1
EndSplineSet
Validated: 524289
EndChar

StartChar: uni0092
Encoding: 146 146 115
Width: 893
Flags: W
LayerCount: 2
Fore
SplineSet
224 76 m 1,0,-1
 395 262 l 2,1,2
 444 315 444 315 478.5 357 c 128,-1,3
 513 399 513 399 532 440 c 128,-1,4
 551 481 551 481 551 530 c 0,5,6
 551 587 551 587 519 618 c 128,-1,7
 487 649 487 649 436 649 c 0,8,9
 390 649 390 649 352.5 630 c 128,-1,10
 315 611 315 611 281 582 c 1,11,-1
 231 640 l 1,12,13
 257 664 257 664 288.5 683 c 128,-1,14
 320 702 320 702 357.5 713 c 128,-1,15
 395 724 395 724 437 724 c 0,16,17
 500 724 500 724 545.5 701 c 128,-1,18
 591 678 591 678 616 635.5 c 128,-1,19
 641 593 641 593 641 533 c 0,20,21
 641 478 641 478 619 429 c 128,-1,22
 597 380 597 380 558.5 332 c 128,-1,23
 520 284 520 284 470 231 c 2,24,-1
 333 85 l 1,25,-1
 333 81 l 1,26,-1
 669 81 l 1,27,-1
 669 0 l 1,28,-1
 224 0 l 1,29,-1
 224 76 l 1,0,-1
EndSplineSet
Validated: 1
EndChar

StartChar: uni0093
Encoding: 147 147 116
Width: 893
Flags: W
LayerCount: 2
Fore
SplineSet
410 -10 m 0,0,1
 357 -10 357 -10 309.5 -1.5 c 128,-1,2
 262 7 262 7 221 29 c 1,3,-1
 221 112 l 1,4,5
 264 90 264 90 313 77.5 c 128,-1,6
 362 65 362 65 408 65 c 0,7,8
 498 65 498 65 539.5 102.5 c 128,-1,9
 581 140 581 140 581 206 c 0,10,11
 581 250 581 250 558.5 278 c 128,-1,12
 536 306 536 306 494.5 319 c 128,-1,13
 453 332 453 332 395 332 c 2,14,-1
 330 332 l 1,15,-1
 330 406 l 1,16,-1
 395 406 l 2,17,18
 448 406 448 406 484.5 423 c 128,-1,19
 521 440 521 440 540 470.5 c 128,-1,20
 559 501 559 501 559 541 c 0,21,22
 559 575 559 575 543.5 599 c 128,-1,23
 528 623 528 623 501 636 c 128,-1,24
 474 649 474 649 437 649 c 0,25,26
 385 649 385 649 345 632.5 c 128,-1,27
 305 616 305 616 269 590 c 1,28,-1
 224 651 l 1,29,30
 261 681 261 681 315 702.5 c 128,-1,31
 369 724 369 724 437 724 c 0,32,33
 507 724 507 724 554.5 701 c 128,-1,34
 602 678 602 678 626 638.5 c 128,-1,35
 650 599 650 599 650 547 c 0,36,37
 650 499 650 499 630.5 463.5 c 128,-1,38
 611 428 611 428 576.5 406 c 128,-1,39
 542 384 542 384 496 376 c 1,40,-1
 496 373 l 1,41,42
 582 363 582 363 627 318.5 c 128,-1,43
 672 274 672 274 672 203 c 0,44,45
 672 141 672 141 644 92.5 c 128,-1,46
 616 44 616 44 558 17 c 128,-1,47
 500 -10 500 -10 410 -10 c 0,0,1
EndSplineSet
Validated: 1
EndChar

StartChar: uni0094
Encoding: 148 148 117
Width: 893
Flags: W
LayerCount: 2
Fore
SplineSet
516.5 160 m 1,0,-1
 186.5 160 l 1,1,-1
 186.5 238 l 1,2,-1
 510.5 718 l 1,3,-1
 602.5 718 l 1,4,-1
 602.5 241 l 1,5,-1
 706.5 241 l 1,6,-1
 706.5 160 l 1,7,-1
 602.5 160 l 1,8,-1
 602.5 0 l 1,9,-1
 516.5 0 l 1,10,-1
 516.5 160 l 1,0,-1
516.5 241 m 1,11,-1
 516.5 415 l 2,12,13
 516.5 442 516.5 442 517.5 472 c 128,-1,14
 518.5 502 518.5 502 519.5 531 c 128,-1,15
 520.5 560 520.5 560 521.5 585 c 128,-1,16
 522.5 610 522.5 610 522.5 626 c 1,17,-1
 518.5 626 l 1,18,19
 511.5 607 511.5 607 498.5 581 c 128,-1,20
 485.5 555 485.5 555 474.5 538 c 2,21,-1
 273.5 241 l 1,22,-1
 516.5 241 l 1,11,-1
EndSplineSet
Validated: 524289
EndChar

StartChar: uni0095
Encoding: 149 149 118
Width: 893
Flags: W
LayerCount: 2
Fore
SplineSet
405 -10 m 0,0,1
 355 -10 355 -10 309 -0.5 c 128,-1,2
 263 9 263 9 231 29 c 1,3,-1
 231 113 l 1,4,5
 253 98 253 98 283.5 87.5 c 128,-1,6
 314 77 314 77 347 71.5 c 128,-1,7
 380 66 380 66 407 66 c 0,8,9
 484 66 484 66 527.5 103 c 128,-1,10
 571 140 571 140 571 219 c 0,11,12
 571 290 571 290 528 326.5 c 128,-1,13
 485 363 485 363 403 363 c 0,14,15
 377 363 377 363 343.5 358.5 c 128,-1,16
 310 354 310 354 290 350 c 1,17,-1
 246 378 l 1,18,-1
 273 714 l 1,19,-1
 610 714 l 1,20,-1
 610 633 l 1,21,-1
 350 633 l 1,22,-1
 331 428 l 1,23,24
 347 432 347 432 374.5 435 c 128,-1,25
 402 438 402 438 433 438 c 0,26,27
 498 438 498 438 549.5 414.5 c 128,-1,28
 601 391 601 391 631.5 344.5 c 128,-1,29
 662 298 662 298 662 229 c 0,30,31
 662 117 662 117 596 53.5 c 128,-1,32
 530 -10 530 -10 405 -10 c 0,0,1
EndSplineSet
Validated: 1
EndChar

StartChar: uni0096
Encoding: 150 150 119
Width: 893
Flags: W
LayerCount: 2
Fore
SplineSet
454.5 -10 m 0,0,1
 389.5 -10 389.5 -10 336.5 24 c 128,-1,2
 283.5 58 283.5 58 252.5 128 c 128,-1,3
 221.5 198 221.5 198 221.5 305 c 0,4,5
 221.5 367 221.5 367 229 427 c 128,-1,6
 236.5 487 236.5 487 256.5 540.5 c 128,-1,7
 276.5 594 276.5 594 311.5 635.5 c 128,-1,8
 346.5 677 346.5 677 401 700.5 c 128,-1,9
 455.5 724 455.5 724 533.5 724 c 0,10,11
 552.5 724 552.5 724 577 722 c 128,-1,12
 601.5 720 601.5 720 617.5 715 c 1,13,-1
 617.5 639 l 1,14,15
 600.5 645 600.5 645 579 648 c 128,-1,16
 557.5 651 557.5 651 536.5 651 c 0,17,18
 470.5 651 470.5 651 428 628 c 128,-1,19
 385.5 605 385.5 605 361 565.5 c 128,-1,20
 336.5 526 336.5 526 325.5 474 c 128,-1,21
 314.5 422 314.5 422 312.5 364 c 1,22,-1
 318.5 364 l 1,23,24
 338.5 399 338.5 399 374.5 423 c 128,-1,25
 410.5 447 410.5 447 468.5 447 c 0,26,27
 530.5 447 530.5 447 576 421.5 c 128,-1,28
 621.5 396 621.5 396 646.5 347.5 c 128,-1,29
 671.5 299 671.5 299 671.5 230 c 0,30,31
 671.5 156 671.5 156 645 102 c 128,-1,32
 618.5 48 618.5 48 570 19 c 128,-1,33
 521.5 -10 521.5 -10 454.5 -10 c 0,0,1
453.5 65 m 0,34,35
 512.5 65 512.5 65 549 105 c 128,-1,36
 585.5 145 585.5 145 585.5 230 c 0,37,38
 585.5 298 585.5 298 553.5 337.5 c 128,-1,39
 521.5 377 521.5 377 456.5 377 c 0,40,41
 412.5 377 412.5 377 379.5 357.5 c 128,-1,42
 346.5 338 346.5 338 328.5 308.5 c 128,-1,43
 310.5 279 310.5 279 310.5 247 c 0,44,45
 310.5 204 310.5 204 326.5 162 c 128,-1,46
 342.5 120 342.5 120 374.5 92.5 c 128,-1,47
 406.5 65 406.5 65 453.5 65 c 0,34,35
EndSplineSet
Validated: 524289
EndChar

StartChar: uni0097
Encoding: 151 151 120
Width: 893
Flags: W
LayerCount: 2
Fore
SplineSet
585 633 m 1,0,-1
 217 633 l 1,1,-1
 217 714 l 1,2,-1
 676 714 l 1,3,-1
 676 643 l 1,4,-1
 405 0 l 1,5,-1
 310 0 l 1,6,-1
 585 633 l 1,0,-1
EndSplineSet
Validated: 1
EndChar

StartChar: uni0098
Encoding: 152 152 121
Width: 893
Flags: W
LayerCount: 2
Fore
SplineSet
446.5 -10 m 0,0,1
 339.5 -10 339.5 -10 281 41.5 c 128,-1,2
 222.5 93 222.5 93 222.5 182 c 0,3,4
 222.5 255 222.5 255 263 300.5 c 128,-1,5
 303.5 346 303.5 346 360.5 374 c 1,6,7
 328.5 395 328.5 395 302.5 420 c 128,-1,8
 276.5 445 276.5 445 261 478 c 128,-1,9
 245.5 511 245.5 511 245.5 554 c 0,10,11
 245.5 611 245.5 611 273.5 649 c 128,-1,12
 301.5 687 301.5 687 347.5 706 c 128,-1,13
 393.5 725 393.5 725 446.5 725 c 0,14,15
 501.5 725 501.5 725 547 706 c 128,-1,16
 592.5 687 592.5 687 620 649 c 128,-1,17
 647.5 611 647.5 611 647.5 553 c 0,18,19
 647.5 510 647.5 510 630.5 477.5 c 128,-1,20
 613.5 445 613.5 445 585 421 c 128,-1,21
 556.5 397 556.5 397 519.5 378 c 1,22,23
 557.5 358 557.5 358 592 331.5 c 128,-1,24
 626.5 305 626.5 305 648.5 269.5 c 128,-1,25
 670.5 234 670.5 234 670.5 186 c 0,26,27
 670.5 126 670.5 126 642 82 c 128,-1,28
 613.5 38 613.5 38 563.5 14 c 128,-1,29
 513.5 -10 513.5 -10 446.5 -10 c 0,0,1
444.5 64 m 0,30,31
 513.5 64 513.5 64 548.5 97 c 128,-1,32
 583.5 130 583.5 130 583.5 185 c 0,33,34
 583.5 235 583.5 235 545.5 270 c 128,-1,35
 507.5 305 507.5 305 433.5 340 c 1,36,37
 372.5 311 372.5 311 341 273 c 128,-1,38
 309.5 235 309.5 235 309.5 181 c 0,39,40
 309.5 129 309.5 129 342 96.5 c 128,-1,41
 374.5 64 374.5 64 444.5 64 c 0,30,31
447.5 414 m 1,42,43
 479.5 429 479.5 429 505 447 c 128,-1,44
 530.5 465 530.5 465 545.5 490 c 128,-1,45
 560.5 515 560.5 515 560.5 550 c 0,46,47
 560.5 600 560.5 600 530 625.5 c 128,-1,48
 499.5 651 499.5 651 445.5 651 c 0,49,50
 411.5 651 411.5 651 386 639.5 c 128,-1,51
 360.5 628 360.5 628 346.5 605.5 c 128,-1,52
 332.5 583 332.5 583 332.5 550 c 0,53,54
 332.5 514 332.5 514 347.5 489.5 c 128,-1,55
 362.5 465 362.5 465 388.5 447.5 c 128,-1,56
 414.5 430 414.5 430 447.5 414 c 1,42,43
EndSplineSet
Validated: 524289
EndChar

StartChar: uni0099
Encoding: 153 153 122
Width: 893
Flags: W
LayerCount: 2
Fore
SplineSet
359.5 -10 m 0,0,1
 340.5 -10 340.5 -10 316.5 -7.5 c 128,-1,2
 292.5 -5 292.5 -5 275.5 -1 c 1,3,-1
 275.5 75 l 1,4,5
 292.5 69 292.5 69 314 66 c 128,-1,6
 335.5 63 335.5 63 356.5 63 c 0,7,8
 422.5 63 422.5 63 465.5 86 c 128,-1,9
 508.5 109 508.5 109 532.5 148.5 c 128,-1,10
 556.5 188 556.5 188 567.5 240 c 128,-1,11
 578.5 292 578.5 292 580.5 350 c 1,12,-1
 574.5 350 l 1,13,14
 561.5 327 561.5 327 541 308 c 128,-1,15
 520.5 289 520.5 289 492 278 c 128,-1,16
 463.5 267 463.5 267 424.5 267 c 0,17,18
 363.5 267 363.5 267 317.5 292.5 c 128,-1,19
 271.5 318 271.5 318 246.5 366.5 c 128,-1,20
 221.5 415 221.5 415 221.5 484 c 0,21,22
 221.5 559 221.5 559 248 612.5 c 128,-1,23
 274.5 666 274.5 666 323.5 695 c 128,-1,24
 372.5 724 372.5 724 438.5 724 c 256,25,26
 504.5 724 504.5 724 557 690 c 128,-1,27
 609.5 656 609.5 656 640.5 586 c 128,-1,28
 671.5 516 671.5 516 671.5 409 c 0,29,30
 671.5 348 671.5 348 664 287.5 c 128,-1,31
 656.5 227 656.5 227 636.5 173.5 c 128,-1,32
 616.5 120 616.5 120 581.5 78.5 c 128,-1,33
 546.5 37 546.5 37 492 13.5 c 128,-1,34
 437.5 -10 437.5 -10 359.5 -10 c 0,0,1
436.5 337 m 0,35,36
 480.5 337 480.5 337 513.5 356.5 c 128,-1,37
 546.5 376 546.5 376 564.5 406 c 128,-1,38
 582.5 436 582.5 436 582.5 467 c 0,39,40
 582.5 511 582.5 511 566.5 552.5 c 128,-1,41
 550.5 594 550.5 594 519 621.5 c 128,-1,42
 487.5 649 487.5 649 439.5 649 c 0,43,44
 381.5 649 381.5 649 344.5 609 c 128,-1,45
 307.5 569 307.5 569 307.5 484 c 0,46,47
 307.5 416 307.5 416 340 376.5 c 128,-1,48
 372.5 337 372.5 337 436.5 337 c 0,35,36
EndSplineSet
Validated: 524289
EndChar

StartChar: uni009A
Encoding: 154 154 123
Width: 893
Flags: W
LayerCount: 2
Fore
SplineSet
497 723 m 0,0,1
 552 723 552 723 596 711 c 128,-1,2
 640 699 640 699 674 682 c 1,3,-1
 643 612 l 1,4,5
 613 626 613 626 576.5 638 c 128,-1,6
 540 650 540 650 499 650 c 0,7,8
 442 650 442 650 412 620.5 c 128,-1,9
 382 591 382 591 382 525 c 2,10,-1
 382 386 l 1,11,-1
 586 386 l 1,12,-1
 586 320 l 1,13,-1
 382 320 l 1,14,-1
 382 216 l 2,15,16
 382 176 382 176 372.5 149.5 c 128,-1,17
 363 123 363 123 347.5 107 c 128,-1,18
 332 91 332 91 314 80 c 1,19,-1
 698 80 l 1,20,-1
 698 0 l 1,21,-1
 195 0 l 1,22,-1
 195 74 l 1,23,24
 224 81 224 81 246 97.5 c 128,-1,25
 268 114 268 114 281 142.5 c 128,-1,26
 294 171 294 171 294 215 c 2,27,-1
 294 320 l 1,28,-1
 198 320 l 1,29,-1
 198 386 l 1,30,-1
 294 386 l 1,31,-1
 294 534 l 2,32,33
 294 594 294 594 319 636 c 128,-1,34
 344 678 344 678 390 700.5 c 128,-1,35
 436 723 436 723 497 723 c 0,0,1
EndSplineSet
Validated: 1
EndChar

StartChar: uni009B
Encoding: 155 155 124
Width: 893
Flags: W
LayerCount: 2
Fore
SplineSet
396 -8 m 4,0,1
 341 -8 341 -8 297 4 c 132,-1,2
 253 16 253 16 219 33 c 5,3,-1
 250 103 l 5,4,5
 280 89 280 89 316.5 77 c 132,-1,6
 353 65 353 65 394 65 c 4,7,8
 451 65 451 65 481 94.5 c 132,-1,9
 511 124 511 124 511 190 c 6,10,-1
 511 329 l 5,11,-1
 307 329 l 5,12,-1
 307 395 l 5,13,-1
 511 395 l 5,14,-1
 511 499 l 6,15,16
 511 539 511 539 520.5 565.5 c 132,-1,17
 530 592 530 592 545.5 608 c 132,-1,18
 561 624 561 624 579 635 c 5,19,-1
 195 635 l 5,20,-1
 195 715 l 5,21,-1
 698 715 l 5,22,-1
 698 641 l 5,23,24
 669 634 669 634 647 617.5 c 132,-1,25
 625 601 625 601 612 572.5 c 132,-1,26
 599 544 599 544 599 500 c 6,27,-1
 599 395 l 5,28,-1
 695 395 l 5,29,-1
 695 329 l 5,30,-1
 599 329 l 5,31,-1
 599 181 l 6,32,33
 599 121 599 121 574 79 c 132,-1,34
 549 37 549 37 503 14.5 c 132,-1,35
 457 -8 457 -8 396 -8 c 4,0,1
EndSplineSet
Validated: 1
EndChar

StartChar: uni009C
Encoding: 156 156 125
Width: 893
Flags: W
LayerCount: 2
Fore
SplineSet
633 617 m 0,0,1
 633 583 633 583 619 557.5 c 128,-1,2
 605 532 605 532 584 512.5 c 128,-1,3
 563 493 563 493 542 477 c 128,-1,4
 521 461 521 461 507 445.5 c 128,-1,5
 493 430 493 430 493 412 c 0,6,7
 493 399 493 399 499.5 388 c 128,-1,8
 506 377 506 377 525 362.5 c 128,-1,9
 544 348 544 348 581 323 c 0,10,11
 617 299 617 299 643 275 c 128,-1,12
 669 251 669 251 683 222 c 128,-1,13
 697 193 697 193 697 153 c 0,14,15
 697 96 697 96 673.5 60 c 128,-1,16
 650 24 650 24 608 7 c 128,-1,17
 566 -10 566 -10 511 -10 c 0,18,19
 464 -10 464 -10 428 -1 c 128,-1,20
 392 8 392 8 366 24 c 1,21,-1
 366 103 l 1,22,23
 383 93 383 93 406 83 c 128,-1,24
 429 73 429 73 455.5 67 c 128,-1,25
 482 61 482 61 508 61 c 0,26,27
 563 61 563 61 587 84 c 128,-1,28
 611 107 611 107 611 147 c 0,29,30
 611 171 611 171 602.5 189.5 c 128,-1,31
 594 208 594 208 573.5 226 c 128,-1,32
 553 244 553 244 517 267 c 0,33,34
 475 294 475 294 451.5 315.5 c 128,-1,35
 428 337 428 337 418 359 c 128,-1,36
 408 381 408 381 408 407 c 0,37,38
 408 438 408 438 421.5 460 c 128,-1,39
 435 482 435 482 455.5 498.5 c 128,-1,40
 476 515 476 515 496.5 531 c 128,-1,41
 517 547 517 547 530.5 566 c 128,-1,42
 544 585 544 585 544 612 c 0,43,44
 544 654 544 654 508.5 673 c 128,-1,45
 473 692 473 692 417 692 c 0,46,47
 382 692 382 692 351.5 682.5 c 128,-1,48
 321 673 321 673 302.5 650 c 128,-1,49
 284 627 284 627 284 584 c 2,50,-1
 284 0 l 1,51,-1
 196 0 l 1,52,-1
 196 584 l 2,53,54
 196 651 196 651 225 690.5 c 128,-1,55
 254 730 254 730 304 747.5 c 128,-1,56
 354 765 354 765 417 765 c 0,57,58
 482 765 482 765 530.5 748.5 c 128,-1,59
 579 732 579 732 606 699.5 c 128,-1,60
 633 667 633 667 633 617 c 0,0,1
EndSplineSet
Validated: 1
EndChar

StartChar: uni009D
Encoding: 157 157 126
Width: 893
Flags: W
LayerCount: 2
Fore
SplineSet
302.5 -10 m 0,0,1
 240.5 -10 240.5 -10 198 24 c 128,-1,2
 155.5 58 155.5 58 133.5 119 c 128,-1,3
 111.5 180 111.5 180 111.5 260 c 0,4,5
 111.5 322 111.5 322 123 467 c 128,-1,6
 134.5 612 134.5 612 153.5 652 c 5,7,-1
 39.5 652 l 5,8,-1
 39.5 725 l 5,9,-1
 853.5 725 l 5,10,-1
 853.5 652 l 5,11,-1
 739.5 652 l 5,12,13
 759.5 612 759.5 612 770.5 467 c 128,-1,14
 781.5 322 781.5 322 781.5 260 c 0,15,16
 781.5 180 781.5 180 759.5 119 c 128,-1,17
 737.5 58 737.5 58 695 24 c 128,-1,18
 652.5 -10 652.5 -10 590.5 -10 c 0,19,20
 535.5 -10 535.5 -10 500.5 15.5 c 128,-1,21
 465.5 41 465.5 41 448.5 100 c 1,22,-1
 443.5 100 l 1,23,24
 433.5 61 433.5 61 414.5 36.5 c 128,-1,25
 395.5 12 395.5 12 367.5 1 c 128,-1,26
 339.5 -10 339.5 -10 302.5 -10 c 0,0,1
308.5 63 m 0,27,28
 341.5 63 341.5 63 363 80 c 128,-1,29
 384.5 97 384.5 97 394.5 126.5 c 128,-1,30
 404.5 156 404.5 156 404.5 193 c 2,31,-1
 404.5 344 l 1,32,-1
 488.5 344 l 1,33,-1
 488.5 193 l 2,34,35
 488.5 152 488.5 152 500 122.5 c 128,-1,36
 511.5 93 511.5 93 532.5 78 c 128,-1,37
 553.5 63 553.5 63 583.5 63 c 0,38,39
 617.5 63 617.5 63 642 85 c 128,-1,40
 666.5 107 666.5 107 680 151 c 128,-1,41
 693.5 195 693.5 195 693.5 259 c 0,42,43
 693.5 322 693.5 322 682.5 467 c 128,-1,44
 671.5 612 671.5 612 651.5 652 c 5,45,-1
 242.5 652 l 5,46,47
 223.5 612 223.5 612 211.5 467 c 128,-1,48
 199.5 322 199.5 322 199.5 259 c 0,49,50
 199.5 162 199.5 162 229.5 112.5 c 128,-1,51
 259.5 63 259.5 63 308.5 63 c 0,27,28
EndSplineSet
Validated: 524289
EndChar

StartChar: uni009E
Encoding: 158 158 127
Width: 893
Flags: W
LayerCount: 2
Fore
SplineSet
646 0 m 1,0,-1
 247 0 l 1,1,-1
 247 714 l 1,2,-1
 646 714 l 1,3,-1
 646 635 l 1,4,-1
 337 635 l 1,5,-1
 337 412 l 1,6,-1
 628 412 l 1,7,-1
 628 334 l 1,8,-1
 337 334 l 1,9,-1
 337 79 l 1,10,-1
 646 79 l 1,11,-1
 646 0 l 1,0,-1
EndSplineSet
Validated: 1
EndChar

StartChar: uni009F
Encoding: 159 159 128
Width: 893
Flags: W
LayerCount: 2
Fore
SplineSet
337 0 m 1,0,-1
 247 0 l 1,1,-1
 247 714 l 1,2,-1
 646 714 l 1,3,-1
 646 635 l 1,4,-1
 337 635 l 1,5,-1
 337 382 l 1,6,-1
 627 382 l 1,7,-1
 627 303 l 1,8,-1
 337 303 l 1,9,-1
 337 0 l 1,0,-1
EndSplineSet
Validated: 1
EndChar

